<?xml version="1.0" encoding="utf-8"?>
<!-- Generator: Adobe Illustrator 25.0.1, SVG Export Plug-In . SVG Version: 6.00 Build 0)  -->
<svg version="1.1" id="Layer_1" xmlns="http://www.w3.org/2000/svg" xmlns:xlink="http://www.w3.org/1999/xlink" x="0px" y="0px"
	 viewBox="0 0 841.9 115.5" style="enable-background:new 0 0 841.9 115.5;" xml:space="preserve">
<style type="text/css">
	.st0{fill:#B99400;}
</style>
<g>
	<text transform="matrix(1 0 0 1 127.579 -389.402)" style="fill:#1D1D1B; font-family:'HelveticaNeue-Bold'; font-size:12px;"> </text>
</g>
<g>
	<path class="st0" d="M112.7,80.1c-1-0.1-1.9-0.1-2.9-0.1c-1,0-2.1,0-3.1,0.1l2.6,24.1h1L112.7,80.1z"/>
	<path class="st0" d="M112.9,78.1c-1-0.1-2.1-0.1-3.1-0.1c-1.1,0-2.2,0-3.3,0.1L98.1,0l22.1,2.9L112.9,78.1z"/>
	<path class="st0" d="M120.7,81.6c-0.9-0.3-1.9-0.5-2.8-0.7c-1-0.2-2-0.4-3-0.5l-2.5,24.1l1,0.2L120.7,81.6z"/>
	<path class="st0" d="M121.3,79.7c-1-0.3-2-0.6-3-0.8c-1.1-0.2-2.2-0.4-3.2-0.6l8.1-78.2l21,7.5L121.3,79.7z"/>
	<path class="st0" d="M104.6,80.4c-1,0.1-1.9,0.3-2.9,0.5c-1,0.2-2,0.5-3,0.8l7.6,23.1l1-0.2L104.6,80.4z"/>
	<path class="st0" d="M104.3,78.4c-1,0.1-2,0.3-3.1,0.5c-1.1,0.2-2.1,0.5-3.2,0.8L73.5,5.1l22.3-1.8L104.3,78.4z"/>
	<path class="st0" d="M96.7,82.3c-0.9,0.3-1.8,0.7-2.7,1.1c-0.9,0.4-1.9,0.9-2.7,1.4l12.2,21l1-0.4L96.7,82.3z"/>
	<path class="st0" d="M96,80.4c-1,0.3-1.9,0.7-2.9,1.2c-1,0.4-2,0.9-2.9,1.5L50.6,15.2L72,8.8L96,80.4z"/>
	<path class="st0" d="M89.3,85.9c-0.8,0.5-1.6,1.1-2.4,1.6c-0.8,0.6-1.6,1.2-2.4,1.9l16.3,17.9l0.8-0.6L89.3,85.9z"/>
	<path class="st0" d="M88.3,84.1c-0.9,0.5-1.7,1.1-2.6,1.7c-0.9,0.7-1.8,1.3-2.6,2L30.2,29.8l19.6-10.7L88.3,84.1z"/>
	<path class="st0" d="M82.9,90.8c-0.7,0.7-1.4,1.4-2,2.1c-0.7,0.8-1.3,1.6-1.9,2.4l19.7,14.1l0.7-0.8L82.9,90.8z"/>
	<path class="st0" d="M81.6,89.4c-0.7,0.7-1.5,1.5-2.2,2.2c-0.7,0.8-1.4,1.7-2.1,2.5L13.4,48.4l16.9-14.6L81.6,89.4z"/>
	<path class="st0" d="M77.7,97.1c-0.5,0.8-1.1,1.6-1.5,2.5c-0.5,0.9-1,1.8-1.4,2.7L97,112l0.5-0.9L77.7,97.1z"/>
	<path class="st0" d="M76.1,95.9c-0.6,0.8-1.1,1.7-1.6,2.6c-0.5,1-1,1.9-1.5,2.9L0.8,70.1l13.5-17.8L76.1,95.9z"/>
	<path class="st0" d="M128.2,84.7c-0.8-0.5-1.7-0.9-2.6-1.3c-0.9-0.4-1.9-0.8-2.8-1.1l-7.5,23.1l1,0.4L128.2,84.7z"/>
	<path class="st0" d="M129.2,82.9c-0.9-0.5-1.8-1-2.8-1.4c-1-0.4-2-0.9-3-1.2l24.3-74.7l19,11.7L129.2,82.9z"/>
	<path class="st0" d="M134.9,89.3c-0.7-0.6-1.5-1.2-2.3-1.8c-0.8-0.6-1.7-1.2-2.5-1.7l-12.2,21l0.8,0.6L134.9,89.3z"/>
	<path class="st0" d="M136.2,87.8c-0.8-0.7-1.6-1.3-2.4-1.9c-0.9-0.7-1.8-1.3-2.7-1.8l39.4-68l16.1,15.5L136.2,87.8z"/>
	<path class="st0" d="M140.5,95.2c-0.6-0.8-1.2-1.5-1.9-2.3c-0.7-0.8-1.4-1.5-2.1-2.2l-16.3,18l0.7,0.8L140.5,95.2z"/>
	<path class="st0" d="M142.1,94c-0.6-0.8-1.3-1.6-2-2.4c-0.7-0.8-1.5-1.6-2.3-2.4L190.6,31l12.5,18.5L142.1,94z"/>
	<path class="st0" d="M144.7,102.2c-0.4-0.9-0.9-1.7-1.4-2.6c-0.5-0.9-1.1-1.8-1.6-2.6L122,111.1l0.5,0.9L144.7,102.2z"/>
	<path class="st0" d="M146.5,101.3c-0.4-0.9-0.9-1.9-1.4-2.8c-0.5-1-1.1-1.9-1.7-2.8l63.7-46l8.4,20.7L146.5,101.3z"/>
</g>
<g>
	<path class="st0" d="M249.1,85h1.5c1,4.8,2.2,8.8,3.8,12.1c1.5,3.3,3.2,6,5.1,8.1c1.9,2.1,3.8,3.8,5.8,4.9s4.1,2,6.2,2.5
		c2.1,0.5,4.1,0.8,6,0.9c1.9,0.1,3.7,0.1,5.4,0.1c4.7,0,8.5-0.7,11.5-2.1c3-1.4,5.4-3.2,7.2-5.4c1.8-2.2,3-4.5,3.7-7
		c0.7-2.5,1.1-4.8,1.1-7c0-3.1-0.6-5.7-1.7-8c-1.2-2.2-2.6-4.1-4.4-5.6c-1.8-1.5-3.7-2.8-5.8-3.8c-2.1-1-4-1.7-5.9-2.3l-15.2-4.6
		c-7.2-2.2-12.6-5.1-16.2-8.7c-3.7-3.6-5.5-8.5-5.5-14.6c0-4,0.7-7.7,2.1-11.1c1.4-3.4,3.4-6.3,6-8.8c2.6-2.5,5.6-4.4,9.2-5.8
		c3.6-1.4,7.5-2.1,11.7-2.1c3.1,0,5.7,0.3,7.8,0.8c2.1,0.5,3.9,1.1,5.4,1.8c1.5,0.7,2.8,1.3,4,1.8c1.2,0.5,2.4,0.8,3.6,0.8
		c1.1,0,1.9-0.2,2.3-0.5c0.4-0.3,0.9-1.1,1.7-2.3h1.9v24h-1.6c-0.5-3.2-1.4-6.3-2.7-9.2c-1.3-3-2.9-5.6-5-7.8
		c-2-2.3-4.5-4.1-7.4-5.4c-2.9-1.4-6.2-2.1-10-2.1c-2.1,0-4.5,0.3-7,0.9c-2.6,0.6-4.9,1.6-7.2,3c-2.2,1.4-4,3.3-5.5,5.6
		s-2.2,5.2-2.2,8.7c0,2.8,0.6,5.2,1.7,7.2c1.1,2,2.6,3.7,4.4,5c1.8,1.4,3.8,2.5,6.1,3.4c2.3,0.9,4.5,1.7,6.8,2.5l16,5
		c1.7,0.5,3.8,1.2,6.4,2.1c2.6,0.9,5.1,2.2,7.5,4c2.4,1.8,4.5,4.1,6.2,7c1.7,2.9,2.6,6.6,2.6,11.1c0,4.2-0.8,8.1-2.3,11.9
		c-1.5,3.8-3.8,7.1-6.7,9.9c-2.9,2.9-6.5,5.2-10.6,6.9c-4.2,1.7-8.8,2.6-14.1,2.6c-1.9,0-3.5,0-4.9-0.1c-1.4,0-2.7-0.2-4-0.3
		c-1.2-0.2-2.5-0.4-3.7-0.6c-1.2-0.2-2.6-0.6-4.1-1c-1.8-0.5-3.7-1.1-5.7-1.9c-2-0.7-3.8-1.1-5.3-1.1c-1.3,0-2.2,0.3-2.7,0.8
		c-0.5,0.5-0.9,1.2-1.3,2.1h-2V85z"/>
	<polygon class="st0" points="318.9,111.7 333.6,111.7 333.6,21 318.9,21 318.9,19.1 361.6,19.1 361.6,21 346.9,21 346.9,63.8 
		391,63.8 391,21 376.3,21 376.3,19.1 419,19.1 419,21 404.3,21 404.3,111.7 419,111.7 419,113.5 376.3,113.5 376.3,111.7 
		391,111.7 391,66.2 346.9,66.2 346.9,111.7 361.6,111.7 361.6,113.5 318.9,113.5 	"/>
	<path class="st0" d="M419.4,66.2c0-7.1,1.4-13.6,4.2-19.6c2.8-6,6.4-11.2,10.7-15.6c4.4-4.4,9.3-7.9,14.8-10.4
		c5.5-2.5,11-3.8,16.4-3.8c5.8,0,11.5,1.3,17,3.8c5.5,2.5,10.5,6,14.8,10.4c4.3,4.4,7.8,9.6,10.4,15.6c2.6,6,3.9,12.6,3.9,19.6
		c0,6.2-1.2,12.2-3.6,18.2c-2.4,5.9-5.7,11.2-9.8,15.8c-4.2,4.6-9,8.3-14.6,11.1c-5.6,2.8-11.6,4.2-18.1,4.2
		c-6.6,0-12.8-1.4-18.4-4.1c-5.7-2.7-10.5-6.4-14.6-10.9c-4.1-4.6-7.3-9.8-9.6-15.8C420.5,78.7,419.4,72.5,419.4,66.2 M434.6,66.2
		c0,8,0.5,14.9,1.6,20.8c1.1,5.9,2.8,10.9,5.3,14.8c2.5,4,5.7,6.9,9.5,8.9c3.9,1.9,8.7,2.9,14.5,2.9c5.7,0,10.5-1,14.4-2.9
		c3.9-1.9,7.1-4.9,9.6-8.9c2.5-4,4.2-8.9,5.3-14.8c1.1-5.9,1.6-12.9,1.6-20.8c0-6.1-0.4-12-1.2-17.7c-0.8-5.7-2.3-10.8-4.6-15.2
		c-2.3-4.5-5.4-8-9.4-10.7c-4-2.7-9.3-4-15.7-4c-6.5,0-11.7,1.3-15.7,4c-4,2.7-7.2,6.2-9.4,10.7c-2.3,4.5-3.8,9.5-4.6,15.2
		C435,54.2,434.6,60.1,434.6,66.2"/>
	<path class="st0" d="M510.6,111.7h14.7V21h-14.7v-1.9h24.9c1.2,0,2.5,0,3.7-0.1c1.2,0,2.5-0.1,3.7-0.2c1.2,0,2.5,0,3.6-0.1
		c1.2,0,2.4-0.1,3.6-0.1c5,0,9.7,0.6,14,1.8c4.3,1.2,8,2.9,11.1,5.1c3.1,2.2,5.6,4.9,7.4,8c1.8,3.1,2.7,6.5,2.7,10.3
		c0,4-1,7.5-3,10.6c-2,3.1-4.7,5.7-8.1,7.8c-3.4,2.1-7.3,3.8-11.7,4.9c-4.5,1.1-9.1,1.7-14,1.7c-1.2,0-2.8-0.1-4.8-0.3
		c-1.9-0.2-3.7-0.5-5.2-0.7v43.7h14.7v1.9h-42.7V111.7z M538.6,66c1.8,0.4,3.6,0.6,5.6,0.8c1.9,0.2,3.7,0.3,5.2,0.3
		c6.5,0,11.6-1.9,15.3-5.8c3.7-3.8,5.5-9.7,5.5-17.4c0-4.5-0.4-8.3-1.3-11.3c-0.9-3-2.3-5.4-4.2-7.2c-1.9-1.8-4.4-3.1-7.4-3.8
		c-3-0.7-6.7-1.1-10.9-1.1c-1.7,0-3.2,0-4.6,0.1c-1.4,0.1-2.4,0.2-3.1,0.3V66z"/>
	<polygon class="st0" points="613.4,111.7 627.6,111.7 627.6,21 613.4,21 613.4,19.1 643.2,19.1 667.3,89.4 667.6,89.4 691.6,19.1 
		721.8,19.1 721.8,21 707.1,21 707.1,111.7 721.8,111.7 721.8,113.5 679.2,113.5 679.2,111.7 693.9,111.7 693.9,21.8 693.6,21.8 
		661.9,113.6 630.4,22.7 630.1,22.7 630.1,111.7 644.8,111.7 644.8,113.5 613.4,113.5 	"/>
	<path class="st0" d="M726.8,107.9c0-1.9,0.7-3.6,2.1-5c1.4-1.4,3-2.1,5-2.1c1.9,0,3.6,0.7,5,2.1c1.4,1.4,2.1,3,2.1,5
		c0,1.9-0.7,3.6-2.1,5c-1.4,1.4-3,2.1-5,2.1c-1.9,0-3.6-0.7-5-2.1C727.4,111.5,726.8,109.9,726.8,107.9"/>
	<path class="st0" d="M738.4,66.2c0-7.1,1.4-13.6,4.2-19.6c2.8-6,6.4-11.2,10.7-15.6c4.4-4.4,9.3-7.9,14.8-10.4
		c5.5-2.5,11-3.8,16.4-3.8c5.8,0,11.5,1.3,17,3.8c5.5,2.5,10.5,6,14.8,10.4c4.3,4.4,7.8,9.6,10.4,15.6c2.6,6,3.9,12.6,3.9,19.6
		c0,6.2-1.2,12.2-3.6,18.2c-2.4,5.9-5.7,11.2-9.8,15.8c-4.2,4.6-9,8.3-14.6,11.1c-5.6,2.8-11.6,4.2-18.1,4.2
		c-6.6,0-12.8-1.4-18.4-4.1c-5.7-2.7-10.5-6.4-14.6-10.9c-4.1-4.6-7.3-9.8-9.6-15.8C739.6,78.7,738.4,72.5,738.4,66.2 M753.7,66.2
		c0,8,0.5,14.9,1.6,20.8c1.1,5.9,2.8,10.9,5.3,14.8c2.5,4,5.7,6.9,9.5,8.9c3.9,1.9,8.7,2.9,14.4,2.9c5.7,0,10.5-1,14.4-2.9
		c3.9-1.9,7.1-4.9,9.6-8.9c2.5-4,4.2-8.9,5.3-14.8c1.1-5.9,1.6-12.9,1.6-20.8c0-6.1-0.4-12-1.2-17.7c-0.8-5.7-2.3-10.8-4.6-15.2
		c-2.3-4.5-5.4-8-9.4-10.7c-4-2.7-9.3-4-15.7-4c-6.5,0-11.7,1.3-15.7,4c-4,2.7-7.2,6.2-9.4,10.7c-2.3,4.5-3.8,9.5-4.6,15.2
		C754.1,54.2,753.7,60.1,753.7,66.2"/>
	<path class="st0" d="M827.8,107.9c0-1.9,0.7-3.6,2.1-5c1.4-1.4,3-2.1,5-2.1c1.9,0,3.6,0.7,5,2.1c1.4,1.4,2.1,3,2.1,5
		c0,1.9-0.7,3.6-2.1,5c-1.4,1.4-3,2.1-5,2.1c-1.9,0-3.6-0.7-5-2.1C828.5,111.5,827.8,109.9,827.8,107.9"/>
</g>
</svg>
