<?xml version="1.0" encoding="utf-8"?>
<!-- Generator: Adobe Illustrator 25.0.1, SVG Export Plug-In . SVG Version: 6.00 Build 0)  -->
<svg version="1.1" id="Layer_1" xmlns="http://www.w3.org/2000/svg" xmlns:xlink="http://www.w3.org/1999/xlink" x="0px" y="0px"
	 viewBox="0 0 841.9 595.3" style="enable-background:new 0 0 841.9 595.3;" xml:space="preserve">
<style type="text/css">
	.st0{fill:none;}
	.st1{fill:#FFFFFF;}
</style>
<rect class="st0" width="841.9" height="595.3"/>
<g>
	<path class="st1" d="M704.9,452.1H138v-2.6h566.9V452.1z M138,384.7v-2.6l566.9,0v2.6L138,384.7z"/>
	<path class="st1" d="M529.5,482.3c0-4.9,0-5.5-2.1-5.8l-1.1-0.2c-0.3-0.4-0.3-1.2,0-1.4c2.7-0.3,6.4-0.5,10-0.5
		c3.4,0,6.3,0.5,8.2,1.7c2.2,1.4,3.8,3.8,3.8,7.4c0,4.7-3.1,7-5.2,8c-0.3,0.2-0.2,0.6,0,0.9c3.5,6.9,5.6,11.2,7.7,13.2
		c1.2,1.2,1.8,1.2,2.3,1.2c0.2,0.2,0,1.4,0,1.4l-7.4,0c0,0-1.1-1.7-3.8-6.4c-1.2-2.1-2.4-4.9-3.4-6.9c-0.8-1.5-1.3-1.7-2.7-1.7
		c-1.3,0-1.3,0.1-1.3,1.1v6.5c0,5.4,0.4,5.6,2.4,5.9l1,0.2c0.3,0.4,0.3,1.3-0.1,1.5c-1.9-0.1-3.9-0.2-5.8-0.2
		c-1.9,0-3.9,0.1-5.8,0.2c-0.3-0.2-0.5-1.1-0.1-1.5l1-0.2c2-0.3,2.4-0.5,2.4-5.9V482.3L529.5,482.3z M534.6,489.6
		c0,1.6,0,1.7,2.1,1.7c4.2,0,6.2-2.4,6.2-7.3c0-4-2.2-7.5-6-7.5c-2.3,0-2.3,0.2-2.3,2.5V489.6L534.6,489.6z"/>
	<path class="st1" d="M200.5,478.9c0-2.1,0-2.2-1.2-2.2h-2.4c-4,0-5.2,0.6-6.8,4.7c-0.3,0.3-1.2,0.2-1.4-0.4
		c0.7-2.8,1.4-5.9,1.7-7.7c0.1-0.2,0.3-0.2,0.5-0.2c0.2,0,0.3,0.1,0.4,0.2c0.2,1.3,0.8,1.3,3.8,1.3h17.7c2.1,0,2.8-0.2,3.3-1.3
		c0.2-0.1,0.3-0.2,0.5-0.2c0.3,0,0.5,0.1,0.6,0.3c-0.4,2.1-0.8,6.5-0.6,8.1c-0.2,0.4-1,0.5-1.3,0.2c-0.6-4-1.4-4.9-6-4.9h-2.5
		c-1.1,0-1.2,0.1-1.2,2.2v22c0,5.4,0.4,5.6,2.4,5.8l1.6,0.2c0.3,0.4,0.3,1.3-0.1,1.5c-2.5-0.1-4.5-0.2-6.4-0.2s-3.9,0.1-6.7,0.2
		c-0.3-0.2-0.4-1.2-0.1-1.5l1.8-0.3c2-0.2,2.4-0.4,2.4-5.8V478.9L200.5,478.9z"/>
	<path class="st1" d="M233.3,491.9c-2.2,0-2.3,0.1-2.3,1.5v7.5c0,5.4,0.4,5.6,2.4,5.8l1.3,0.2c0.3,0.4,0.3,1.3-0.1,1.5
		c-2.3-0.1-4.2-0.2-6.1-0.2c-1.9,0-3.9,0.1-5.5,0.2c-0.3-0.2-0.4-1.1-0.1-1.5l0.6-0.1c2-0.4,2.4-0.5,2.4-5.9v-18.9
		c0-5.4-0.4-5.6-2.4-5.9l-1-0.2c-0.3-0.3-0.3-1.3,0.1-1.5c1.9,0.1,3.9,0.2,5.8,0.2c1.9,0,3.9-0.1,5.5-0.2c0.3,0.2,0.4,1.2,0.1,1.5
		l-0.7,0.2c-2,0.3-2.4,0.5-2.4,5.9v6.2c0,1.4,0.1,1.5,2.3,1.5h10.1c2.2,0,2.3-0.1,2.3-1.5v-6.2c0-5.4-0.4-5.6-2.4-5.9l-1-0.2
		c-0.3-0.3-0.3-1.3,0.1-1.5c2,0.1,3.9,0.2,5.8,0.2s3.9-0.1,5.6-0.2c0.3,0.2,0.4,1.2,0.1,1.5l-0.8,0.2c-2,0.3-2.4,0.5-2.4,5.9v18.9
		c0,5.4,0.4,5.6,2.4,5.9l1,0.2c0.3,0.4,0.3,1.3-0.1,1.5c-1.9-0.1-3.9-0.2-5.8-0.2c-2,0-3.9,0.1-5.8,0.2c-0.3-0.2-0.4-1.1-0.1-1.5
		l1-0.2c2-0.3,2.4-0.5,2.4-5.9v-7.5c0-1.4-0.1-1.5-2.3-1.5H233.3L233.3,491.9z"/>
	<path class="st1" d="M265.2,481.9c0-5.4-0.4-5.6-2.4-5.9l-0.7-0.1c-0.3-0.4-0.3-1.3,0.1-1.5c1.6,0.1,3.7,0.2,5.6,0.2h8.3
		c2.8,0,5.3-0.1,5.8-0.2c0.2,0.9,0.4,4.9,0.7,7.1c-0.2,0.4-1,0.5-1.4,0.2c-0.7-3-1.3-4.2-2.7-4.6c-1-0.4-2.3-0.5-3.5-0.5h-2.9
		c-1.9,0-1.9,0.1-1.9,3v8.6c0,1.3,0,1.4,1,1.4h2.1c3.8,0,4.5-0.1,4.8-2.2l0.3-1.7c0.3-0.4,1.2-0.4,1.4,0.1c0,1.4-0.1,3.2-0.1,5.1
		c0,1.9,0.1,3.7,0.1,5.3c-0.2,0.4-1,0.4-1.4,0.1l-0.3-2c-0.3-2.1-1-2.2-4.8-2.2h-2.1c-1,0-1,0.1-1,1.4v6.5c0,2.6,0.1,4.4,0.7,5.3
		c0.5,0.7,1.3,1.1,4.9,1.1c5.5,0.1,6.4-1.4,8-5.5c0.4-0.4,1.1-0.2,1.4,0.3c-0.3,2.1-1.2,6-1.8,7.4c-1.9-0.1-5.6-0.2-10.7-0.2h-4.9
		c-1.9,0-4.5,0.1-6.5,0.2c-0.3-0.2-0.4-1.1-0.1-1.5l1.6-0.2c2-0.3,2.4-0.4,2.4-5.8V481.9L265.2,481.9z"/>
	<path class="st1" d="M318.2,491.9c-2.2,0-2.3,0.1-2.3,1.5v7.5c0,5.4,0.4,5.6,2.4,5.8l1.3,0.2c0.3,0.4,0.3,1.3-0.1,1.5
		c-2.3-0.1-4.2-0.2-6.1-0.2c-1.9,0-3.9,0.1-5.5,0.2c-0.3-0.2-0.4-1.1-0.1-1.5l0.6-0.1c2-0.4,2.4-0.5,2.4-5.9v-18.9
		c0-5.4-0.4-5.6-2.4-5.9l-1-0.2c-0.3-0.3-0.3-1.3,0.1-1.5c1.9,0.1,3.9,0.2,5.8,0.2c1.9,0,3.9-0.1,5.5-0.2c0.3,0.2,0.4,1.2,0.1,1.5
		l-0.7,0.2c-2,0.3-2.4,0.5-2.4,5.9v6.2c0,1.4,0.1,1.5,2.3,1.5h10.1c2.2,0,2.3-0.1,2.3-1.5v-6.2c0-5.4-0.4-5.6-2.4-5.9l-1-0.2
		c-0.3-0.3-0.3-1.3,0.1-1.5c2,0.1,3.9,0.2,5.8,0.2c1.9,0,3.9-0.1,5.6-0.2c0.3,0.2,0.4,1.2,0.1,1.5l-0.8,0.2c-2,0.3-2.4,0.5-2.4,5.9
		v18.9c0,5.4,0.4,5.6,2.4,5.9l1,0.2c0.3,0.4,0.3,1.3-0.1,1.5c-1.9-0.1-3.9-0.2-5.8-0.2c-2,0-3.9,0.1-5.8,0.2
		c-0.3-0.2-0.4-1.1-0.1-1.5l1-0.2c2-0.3,2.4-0.5,2.4-5.9v-7.5c0-1.4-0.1-1.5-2.3-1.5H318.2L318.2,491.9z"/>
	<path class="st1" d="M377.3,491.5c0,10-6.5,17.5-15.2,17.5c-9.8,0-15.4-8.1-15.4-17.2c0-10.4,6.4-18.1,15.5-18.1
		C372.2,473.8,377.3,482.2,377.3,491.5L377.3,491.5z M352.6,490.4c0,7,2.6,16.6,10,16.6c4.9,0,8.9-4.3,8.9-14.6
		c0-7.7-2.9-16.6-9.8-16.6C357.3,475.8,352.6,479.5,352.6,490.4L352.6,490.4z"/>
	<path class="st1" d="M394.2,478.9c0-2.1,0-2.2-1.2-2.2h-2.4c-4,0-5.2,0.6-6.8,4.7c-0.3,0.3-1.2,0.2-1.4-0.4
		c0.7-2.8,1.4-5.9,1.7-7.7c0.1-0.2,0.3-0.2,0.5-0.2c0.2,0,0.3,0.1,0.4,0.2c0.2,1.3,0.8,1.3,3.8,1.3h17.7c2.1,0,2.8-0.2,3.3-1.3
		c0.2-0.1,0.3-0.2,0.5-0.2c0.3,0,0.5,0.1,0.6,0.3c-0.4,2.1-0.8,6.5-0.6,8.1c-0.2,0.4-1,0.5-1.3,0.2c-0.6-4-1.4-4.9-6-4.9h-2.5
		c-1.1,0-1.2,0.1-1.2,2.2v22c0,5.4,0.4,5.6,2.4,5.8l1.6,0.2c0.3,0.4,0.3,1.3-0.1,1.5c-2.5-0.1-4.5-0.2-6.4-0.2s-3.9,0.1-6.7,0.2
		c-0.3-0.2-0.4-1.2-0.1-1.5l1.8-0.3c2-0.2,2.4-0.4,2.4-5.8V478.9L394.2,478.9z"/>
	<path class="st1" d="M422.2,481.9c0-5.4-0.4-5.6-2.4-5.9l-0.7-0.1c-0.3-0.4-0.3-1.3,0.1-1.5c1.6,0.1,3.7,0.2,5.6,0.2h8.3
		c2.8,0,5.3-0.1,5.8-0.2c0.2,0.9,0.4,4.9,0.7,7.1c-0.2,0.4-1,0.5-1.4,0.2c-0.7-3-1.3-4.2-2.7-4.6c-1-0.4-2.3-0.5-3.5-0.5H429
		c-1.9,0-1.9,0.1-1.9,3v8.6c0,1.3,0,1.4,1,1.4h2.1c3.8,0,4.5-0.1,4.8-2.2l0.3-1.7c0.3-0.4,1.2-0.4,1.4,0.1c0,1.4-0.1,3.2-0.1,5.1
		c0,1.9,0.1,3.7,0.1,5.3c-0.2,0.4-1,0.4-1.4,0.1l-0.3-2c-0.3-2.1-1-2.2-4.8-2.2h-2.1c-1,0-1,0.1-1,1.4v6.5c0,2.6,0.1,4.4,0.7,5.3
		c0.5,0.7,1.3,1.1,4.9,1.1c5.5,0.1,6.4-1.4,8-5.5c0.4-0.4,1.1-0.2,1.4,0.3c-0.3,2.1-1.2,6-1.8,7.4c-1.9-0.1-5.6-0.2-10.7-0.2h-4.9
		c-1.9,0-4.5,0.1-6.5,0.2c-0.3-0.2-0.4-1.1-0.1-1.5l1.6-0.2c2-0.3,2.4-0.4,2.4-5.8V481.9L422.2,481.9z"/>
	<path class="st1" d="M458.4,499.8c0,2.5,0.1,4.4,0.7,5.2c0.5,0.7,1.2,1.1,4.7,1.1c4.8,0,5.5-0.3,7.5-5.5c0.4-0.3,1.1-0.1,1.3,0.3
		c-0.3,2.1-1.3,6-1.8,7.4c-1.8-0.1-5.5-0.2-10.4-0.2h-4.5c-2.2,0-4.4,0.1-6.2,0.2c-0.3-0.2-0.5-1.2-0.1-1.5l1.3-0.3
		c2-0.3,2.4-0.5,2.4-5.8v-18.9c0-5.3-0.4-5.4-2.4-5.8l-1.2-0.2c-0.3-0.3-0.3-1.3,0.1-1.5c2.2,0.1,4.1,0.2,6.1,0.2
		c1.9,0,3.9-0.1,5.8-0.2c0.4,0.2,0.4,1.2,0.1,1.5l-1,0.2c-2,0.4-2.4,0.5-2.4,5.8V499.8L458.4,499.8z"/>
	<path class="st1" d="M516.2,502.9c0,1.8,0.2,3.1,1,3.6c0.1,0.2,0.1,0.6,0,0.8c-0.5,0-1.3,0.2-2.1,0.4c-2.7,0.7-5.9,1.4-8.4,1.4
		c-5.2,0-10.1-1.6-13.3-5.6c-2.6-3.1-3.8-7.4-3.8-11.7c0-4.3,1.3-8.7,4-12c3.1-3.8,7.8-6,13.8-6c2,0,4.2,0.4,5.8,0.8
		c1,0.3,2.2,0.5,2.8,0.5c0,1.5,0.3,4.1,0.6,8.1c-0.2,0.5-1.2,0.6-1.4,0.1c-1-4.9-4-7.4-8.3-7.4c-7.6,0-11.3,6.5-11.3,15.1
		c0,4.1,0.8,8.5,3.1,11.7c2.3,3.3,5.8,4.3,8.4,4.3c2.1,0,3.3-0.4,3.9-1.2c0.3-0.5,0.4-1.4,0.4-3.2v-1.8c0-3.6,0-3.9-2.9-4.5
		l-1.6-0.3c-0.3-0.4-0.3-1.2,0-1.5c1.7,0.1,3.8,0.2,6.8,0.2c1.9,0,3.4-0.1,5.3-0.2c0.4,0.3,0.5,1.1,0.1,1.5l-0.8,0.2
		c-1.6,0.3-1.9,0.7-1.9,3.8V502.9L516.2,502.9z"/>
	<path class="st1" d="M588.8,491.5c0,10-6.5,17.5-15.2,17.5c-9.8,0-15.4-8.1-15.4-17.2c0-10.4,6.4-18.1,15.5-18.1
		C583.6,473.8,588.8,482.2,588.8,491.5L588.8,491.5z M564,490.4c0,7,2.6,16.6,10,16.6c4.9,0,8.9-4.3,8.9-14.6
		c0-7.7-2.9-16.6-9.8-16.6C568.7,475.8,564,479.5,564,490.4L564,490.4z"/>
	<path class="st1" d="M599.4,481.9c0-5.4-0.4-5.6-2.4-5.9l-0.7-0.2c-0.3-0.4-0.3-1.2,0.1-1.4c1.7,0.1,3.7,0.2,5.6,0.2
		c1.9,0,3.9-0.1,5.8-0.2c0.3,0.2,0.4,1.1,0.1,1.4l-1,0.2c-2,0.4-2.4,0.5-2.4,5.9v11.7c0,7,1.8,12.9,7.8,12.9c5.7,0,8-5,8-12.8v-6.4
		c0-3.8,0-8.6-0.8-10c-0.4-0.8-1.1-1.1-2.2-1.3l-0.9-0.2c-0.4-0.4-0.3-1.3,0.1-1.4c1.5,0.1,3.1,0.2,4.8,0.2c1.8,0,3-0.1,4.6-0.2
		c0.3,0.3,0.4,1.1,0.1,1.4l-1,0.3c-0.8,0.2-1.6,0.4-1.9,1.2c-0.6,1.5-0.6,6-0.6,10v6.1c0,4.6-0.6,8.9-2.9,11.8
		c-2.2,2.9-5.5,3.8-8.5,3.8c-4.1,0-6.9-1-8.9-3.3c-1.9-2.2-2.9-5.8-2.9-10.9V481.9L599.4,481.9z"/>
	<path class="st1" d="M637.6,482.2c0-4.6,0-5.4-1.9-5.7l-1.5-0.2c-0.3-0.4-0.3-1.2,0-1.4c3-0.4,5.6-0.5,9.6-0.5c4.1,0,7.1,0.7,9,2
		c2.2,1.6,3.7,4.3,3.7,7.6c0,7.7-6.3,9.9-9.7,9.9c-0.4,0-0.7,0-1.1-0.1c-0.3-0.3-0.3-1-0.1-1.3c3.9-0.9,5.4-4.3,5.4-8.5
		c0-4.1-2.3-7.7-6.2-7.7c-2.2,0-2.2,0.2-2.2,2.1v22.3c0,5.4,0.4,5.6,2.4,5.8l1.6,0.2c0.3,0.4,0.2,1.3-0.1,1.5
		c-2.6-0.1-4.5-0.2-6.4-0.2s-3.9,0.1-5.6,0.2c-0.3-0.2-0.4-1.1-0.1-1.5l0.7-0.1c2-0.4,2.4-0.5,2.4-5.9V482.2L637.6,482.2z"/>
	<path class="st1" d="M175,432.7c0.4,0.2,0.4,1.3-0.1,1.5c-1.9-0.1-3.5-0.2-5.3-0.2c-2,0-3.9,0.1-5.8,0.2c-0.3-0.2-0.5-1.2-0.1-1.5
		l1.2-0.3c1.7-0.3,1.9-0.7,1.9-4.2v-16.1c0-1.9,0-3.8,0-4.7h-0.1c-1.2,2.8-1.8,4.3-2.6,6.4l-3.7,9c-1.5,3.6-3.6,9.2-4.4,11.6
		c-0.2,0.2-0.8,0.2-1.1,0c-0.7-2.8-2.6-7.7-3.6-10.3l-3.9-9.8c-0.8-2.1-2-5.3-2.5-6.9h-0.1c-0.1,2.5-0.2,6.5-0.3,8.6
		c-0.1,3.1-0.2,7.6-0.2,11.8c0,3.4,0,4.2,1.9,4.5l1.4,0.3c0.3,0.3,0.3,1.3,0,1.5c-1.6-0.1-2.9-0.2-4.5-0.2c-1.4,0-2.9,0.1-4.6,0.2
		c-0.4-0.3-0.4-1.2-0.1-1.5l0.7-0.1c2.1-0.3,2.4-1.1,2.7-4.2c0.3-3.2,0.4-6.5,0.6-11.8c0.2-3.5,0.4-7.7,0.4-10.8
		c0-2.4-0.6-3.5-2.3-3.8l-1.5-0.3c-0.3-0.4-0.2-1.3,0.2-1.5c1.3,0.1,2.5,0.2,4.1,0.2c1.5,0,3,0,4.6-0.2c0.2,3.1,1.3,5.7,2.4,8.5
		l4.8,11.8c0.3,0.9,1.5,3.4,2,4.6c0.7-1.5,1.3-2.9,2.3-5.3l4.1-9.8c1.4-3.4,2.8-6.4,3.5-9.7c1.2,0.1,2.6,0.2,3.5,0.2
		c1.8,0,3.3-0.1,4.5-0.2c0.5,0.2,0.6,1.2,0.1,1.5l-1.4,0.3c-1.9,0.3-2.3,1.2-2.3,3.9c0,7.5,0.1,15.1,0.4,22.6c0.1,3.4,0.6,3.8,2,4
		L175,432.7L175,432.7z"/>
	<path class="st1" d="M191.9,421.5c-1.1,0-1.1,0-1.5,1.4l-1.8,6.1c-0.9,3-0.7,3.2,0.9,3.4l1.3,0.3c0.3,0.4,0.3,1.3-0.1,1.5
		c-1.4-0.1-2.8-0.1-4.6-0.2c-1.4,0-2.8,0.1-4.3,0.2c-0.3-0.3-0.3-1,0-1.5l1.3-0.3c1.3-0.2,1.7-0.7,2.4-2.3c0.5-1.3,1.2-3.5,2.1-6.2
		l5.9-18.1c0.6-1.6,1-2.9,0.8-3.7c1.5-0.4,2.9-2.4,3-2.4c0.3,0,0.6,0.2,0.7,0.4c0.7,2.3,1.3,4.7,1.9,7l6.2,21.3
		c1,3.4,1.2,3.8,3.4,4.2l0.6,0.2c0.3,0.4,0.3,1.2,0,1.5c-1.8-0.1-3.4-0.2-5.6-0.2c-1.9,0-3.8,0.1-5.3,0.2c-0.3-0.3-0.4-1.2-0.1-1.5
		l1-0.2c1.6-0.2,1.7-0.5,1.1-2.7l-2-6.9c-0.4-1.4-0.6-1.4-1.8-1.4H191.9L191.9,421.5z M197.1,419.2c1.2,0,1.4-0.1,1-1.3l-1.8-6.1
		c-0.7-2.7-1-3.7-1.2-4H195c-0.2,0.4-0.5,1.6-1.3,4l-1.8,6c-0.5,1.5-0.3,1.5,0.7,1.5H197.1L197.1,419.2z"/>
	<path class="st1" d="M243.8,425.3c0,1.5,0,7.8,0.1,9c-0.3,0.6-1,0.8-1.5,0.7c-0.7-1.1-1.9-2.8-5.1-7l-10.1-13.6
		c-2.8-3.7-4.2-5.7-4.9-6.4c-0.1,0-0.1,0.6-0.1,3.3v9.9c0,3.8,0,8.5,0.8,10c0.4,0.8,1.1,1.1,2.2,1.3l1,0.2c0.4,0.4,0.3,1.3-0.1,1.5
		c-1.6-0.1-3.3-0.2-4.9-0.2c-1.8,0-3,0.1-4.5,0.2c-0.3-0.3-0.4-1.1-0.1-1.5l1-0.3c0.8-0.2,1.6-0.4,1.9-1.2c0.6-1.6,0.6-6,0.6-10
		v-12.1c0-4,0-4.8-1.4-6.3c-0.5-0.5-1.7-0.9-2.3-1l-0.6-0.2c-0.3-0.3-0.3-1.3,0.2-1.5c1.6,0.2,4,0.2,5.1,0.2c0.9,0,1.9-0.1,3-0.2
		c0.7,2.2,5.5,8.6,7,10.5l4.3,5.5c1.8,2.3,5.8,7.7,6.3,8c0.1-0.2,0.1-0.4,0.1-1.2v-9.9c0-3.8,0-8.5-0.8-10c-0.4-0.8-1.1-1.1-2.2-1.3
		l-1-0.2c-0.4-0.4-0.3-1.3,0.1-1.5c1.7,0.1,3.3,0.2,5,0.2c1.9,0,3-0.1,4.5-0.2c0.3,0.3,0.4,1.1,0.1,1.5l-1,0.3
		c-0.8,0.2-1.6,0.4-1.9,1.2c-0.6,1.6-0.6,6-0.6,10V425.3L243.8,425.3z"/>
	<path class="st1" d="M259.8,408c0-4.9,0-5.5-2.1-5.8l-0.9-0.1c-0.3-0.3-0.3-1.2,0-1.4c3.1-0.3,6.6-0.5,10.8-0.5
		c4.1,0,7.1,0.4,10.2,1.7c5.2,2.2,8.9,7.6,8.9,15.2c0,5.7-2.4,11.5-7.7,14.7c-3.1,1.8-6.8,2.4-10.7,2.4c-2.6,0-4.7-0.3-6.3-0.3
		c-1.6,0-3.6,0.1-5.5,0.2c-0.3-0.2-0.4-1.1-0.1-1.5l1-0.2c2-0.3,2.4-0.5,2.4-5.9V408L259.8,408z M264.8,424.7c0,4.9,0.3,7.6,4.9,7.6
		c7.7,0,11.2-6.4,11.2-15c0-10.1-5-15-12.2-15c-1.8,0-3.2,0.4-3.5,0.7c-0.3,0.3-0.3,1.4-0.3,3.8V424.7L264.8,424.7z"/>
	<path class="st1" d="M299.7,421.5c-1.1,0-1.1,0-1.5,1.4l-1.8,6.1c-0.9,3-0.7,3.2,0.9,3.4l1.3,0.3c0.3,0.4,0.3,1.3-0.1,1.5
		c-1.4-0.1-2.8-0.1-4.6-0.2c-1.4,0-2.8,0.1-4.3,0.2c-0.3-0.3-0.3-1,0-1.5l1.3-0.3c1.3-0.2,1.7-0.7,2.4-2.3c0.5-1.3,1.2-3.5,2.1-6.2
		l5.9-18.1c0.6-1.6,1-2.9,0.8-3.7c1.5-0.4,2.9-2.4,3-2.4c0.3,0,0.6,0.2,0.7,0.4c0.7,2.3,1.3,4.7,1.9,7l6.2,21.3
		c1,3.4,1.2,3.8,3.4,4.2l0.6,0.2c0.3,0.4,0.3,1.2,0,1.5c-1.8-0.1-3.4-0.2-5.6-0.2c-1.9,0-3.8,0.1-5.3,0.2c-0.3-0.3-0.4-1.2-0.1-1.5
		l1-0.2c1.6-0.2,1.7-0.5,1.1-2.7l-2-6.9c-0.4-1.4-0.6-1.4-1.8-1.4H299.7L299.7,421.5z M304.9,419.2c1.2,0,1.4-0.1,1-1.3l-1.8-6.1
		c-0.7-2.7-1-3.7-1.2-4h-0.1c-0.2,0.4-0.5,1.6-1.3,4l-1.8,6c-0.5,1.5-0.3,1.5,0.7,1.5H304.9L304.9,419.2z"/>
	<path class="st1" d="M326.7,408c0-4.9,0-5.5-2.1-5.8l-1.1-0.2c-0.3-0.4-0.3-1.2,0-1.4c2.7-0.3,6.4-0.5,10-0.5
		c3.4,0,6.3,0.5,8.2,1.7c2.2,1.4,3.8,3.8,3.8,7.4c0,4.7-3.1,7-5.2,8c-0.3,0.2-0.2,0.6,0,0.9c3.5,6.9,5.6,11.2,7.7,13.2
		c1.2,1.2,1.8,1.2,2.3,1.2c0.2,0.2,0,1.4,0,1.4l-7.4,0c0,0-1.1-1.7-3.8-6.4c-1.2-2.1-2.4-4.9-3.4-6.9c-0.8-1.5-1.3-1.7-2.7-1.7
		c-1.3,0-1.3,0.1-1.3,1.1v6.5c0,5.4,0.4,5.6,2.4,5.9l1,0.2c0.3,0.4,0.3,1.3-0.1,1.5c-1.9-0.1-3.9-0.2-5.8-0.2
		c-1.9,0-3.9,0.1-5.8,0.2c-0.3-0.2-0.5-1.1-0.1-1.5l1-0.2c2-0.3,2.4-0.5,2.4-5.9V408L326.7,408z M331.7,415.4c0,1.6,0,1.7,2.1,1.7
		c4.2,0,6.2-2.4,6.2-7.3c0-4-2.2-7.5-6-7.5c-2.3,0-2.3,0.2-2.3,2.5V415.4L331.7,415.4z"/>
	<path class="st1" d="M478.7,408c0-4.9,0-5.5-2.1-5.8l-1.1-0.2c-0.3-0.4-0.3-1.2,0-1.4c2.7-0.3,6.4-0.5,10-0.5
		c3.4,0,6.3,0.5,8.2,1.7c2.2,1.4,3.8,3.8,3.8,7.4c0,4.7-3.1,7-5.2,8c-0.3,0.2-0.2,0.6,0,0.9c3.5,6.9,5.6,11.2,7.7,13.2
		c1.2,1.2,1.8,1.2,2.3,1.2c0.2,0.2,0,1.4,0,1.4l-7.4,0c0,0-1.1-1.7-3.8-6.4c-1.2-2.1-2.4-4.9-3.4-6.9c-0.8-1.5-1.3-1.7-2.7-1.7
		c-1.3,0-1.3,0.1-1.3,1.1v6.5c0,5.4,0.4,5.6,2.4,5.9l1,0.2c0.3,0.4,0.3,1.3-0.1,1.5c-1.9-0.1-3.9-0.2-5.8-0.2s-3.9,0.1-5.8,0.2
		c-0.3-0.2-0.5-1.1-0.1-1.5l1-0.2c2-0.3,2.4-0.5,2.4-5.9V408L478.7,408z M483.7,415.4c0,1.6,0,1.7,2.1,1.7c4.2,0,6.2-2.4,6.2-7.3
		c0-4-2.2-7.5-6-7.5c-2.2,0-2.3,0.2-2.3,2.5V415.4L483.7,415.4z"/>
	<path class="st1" d="M365.1,426.7c0,5.4,0.4,5.6,2.4,5.9l1,0.2c0.3,0.4,0.3,1.3-0.1,1.5c-1.9-0.1-3.9-0.2-5.8-0.2
		c-1.9,0-3.9,0.1-5.8,0.2c-0.3-0.2-0.4-1.1-0.1-1.5l1-0.2c2-0.3,2.4-0.5,2.4-5.9v-18.9c0-5.4-0.4-5.6-2.4-5.9l-1-0.2
		c-0.3-0.4-0.3-1.3,0.1-1.5c1.9,0.1,3.9,0.2,5.8,0.2c1.9,0,3.9-0.1,5.8-0.2c0.3,0.2,0.4,1.1,0.1,1.5l-1,0.2c-2,0.3-2.4,0.5-2.4,5.9
		V426.7L365.1,426.7z"/>
	<path class="st1" d="M406.7,425.3c0,1.5,0,7.8,0.1,9c-0.3,0.6-1,0.8-1.5,0.7c-0.7-1.1-1.9-2.8-5.1-7l-10.1-13.6
		c-2.8-3.7-4.2-5.7-4.9-6.4c-0.1,0-0.1,0.6-0.1,3.3v9.9c0,3.8,0,8.5,0.8,10c0.4,0.8,1.1,1.1,2.2,1.3l1,0.2c0.4,0.4,0.3,1.3-0.1,1.5
		c-1.6-0.1-3.3-0.2-4.9-0.2c-1.8,0-3,0.1-4.5,0.2c-0.3-0.3-0.4-1.1-0.1-1.5l1-0.3c0.8-0.2,1.6-0.4,1.9-1.2c0.6-1.6,0.6-6,0.6-10
		v-12.1c0-4,0-4.8-1.4-6.3c-0.5-0.5-1.7-0.9-2.3-1l-0.6-0.2c-0.3-0.3-0.3-1.3,0.2-1.5c1.6,0.2,4,0.2,5.1,0.2c0.9,0,1.9-0.1,3-0.2
		c0.7,2.2,5.5,8.6,7,10.5l4.3,5.5c1.8,2.3,5.8,7.7,6.3,8c0.1-0.2,0.1-0.4,0.1-1.2v-9.9c0-3.8,0-8.5-0.8-10c-0.4-0.8-1.1-1.1-2.2-1.3
		l-1-0.2c-0.4-0.4-0.3-1.3,0.1-1.5c1.7,0.1,3.3,0.2,5,0.2c1.9,0,3-0.1,4.5-0.2c0.3,0.3,0.4,1.1,0.1,1.5l-1,0.3
		c-0.8,0.2-1.6,0.4-1.9,1.2c-0.6,1.6-0.6,6-0.6,10V425.3L406.7,425.3z"/>
	<path class="st1" d="M465.9,417.3c0,10-6.5,17.5-15.2,17.5c-9.8,0-15.4-8.1-15.4-17.2c0-10.4,6.4-18.1,15.5-18.1
		C460.8,399.6,465.9,408,465.9,417.3L465.9,417.3z M441.2,416.2c0,7,2.6,16.6,10,16.6c4.9,0,8.9-4.3,8.9-14.6
		c0-7.7-2.9-16.6-9.8-16.6C445.9,401.6,441.2,405.3,441.2,416.2L441.2,416.2z"/>
	<path class="st1" d="M520.5,426.7c0,5.4,0.4,5.6,2.4,5.9l1,0.2c0.3,0.4,0.3,1.3-0.1,1.5c-1.9-0.1-3.9-0.2-5.8-0.2
		c-1.9,0-3.9,0.1-5.8,0.2c-0.3-0.2-0.4-1.1-0.1-1.5l1-0.2c2-0.3,2.4-0.5,2.4-5.9v-18.9c0-5.4-0.4-5.6-2.4-5.9l-1-0.2
		c-0.3-0.4-0.3-1.3,0.1-1.5c1.9,0.1,3.9,0.2,5.8,0.2c1.9,0,3.9-0.1,5.8-0.2c0.3,0.2,0.4,1.1,0.1,1.5l-1,0.2c-2,0.3-2.4,0.5-2.4,5.9
		V426.7L520.5,426.7z"/>
	<path class="st1" d="M540.7,407.7c0-5.4-0.4-5.6-2.4-5.9l-0.7-0.1c-0.3-0.4-0.3-1.3,0.1-1.5c1.6,0.1,3.7,0.2,5.6,0.2h8.3
		c2.8,0,5.3-0.1,5.8-0.2c0.2,0.9,0.4,4.9,0.7,7.1c-0.2,0.4-1,0.5-1.4,0.2c-0.7-3-1.3-4.2-2.7-4.6c-1-0.4-2.3-0.5-3.5-0.5h-2.9
		c-1.9,0-1.9,0.1-1.9,3v8.6c0,1.3,0,1.4,1,1.4h2.1c3.8,0,4.5-0.1,4.8-2.2l0.3-1.7c0.3-0.4,1.2-0.4,1.4,0.1c0,1.4-0.1,3.2-0.1,5.1
		c0,1.9,0.1,3.7,0.1,5.3c-0.2,0.4-1,0.4-1.4,0.1l-0.3-2c-0.3-2.1-1-2.2-4.8-2.2h-2.1c-1,0-1,0.1-1,1.4v6.5c0,2.6,0.1,4.4,0.7,5.3
		c0.5,0.7,1.3,1.1,4.9,1.1c5.5,0.1,6.4-1.4,8-5.5c0.4-0.4,1.1-0.2,1.4,0.3c-0.3,2.1-1.2,6-1.8,7.4c-1.9-0.1-5.6-0.2-10.7-0.2h-4.9
		c-1.9,0-4.5,0.1-6.5,0.2c-0.3-0.2-0.4-1.1-0.1-1.5l1.6-0.2c2-0.3,2.4-0.4,2.4-5.8V407.7L540.7,407.7z"/>
	<path class="st1" d="M598.4,425.3c0,1.5,0,7.8,0.1,9c-0.3,0.6-1,0.8-1.5,0.7c-0.7-1.1-1.9-2.8-5.1-7l-10.1-13.6
		c-2.8-3.7-4.2-5.7-4.9-6.4c-0.1,0-0.1,0.6-0.1,3.3v9.9c0,3.8,0,8.5,0.8,10c0.4,0.8,1.1,1.1,2.2,1.3l1,0.2c0.4,0.4,0.3,1.3-0.1,1.5
		c-1.6-0.1-3.3-0.2-4.9-0.2c-1.8,0-3,0.1-4.5,0.2c-0.3-0.3-0.4-1.1-0.1-1.5l1-0.3c0.8-0.2,1.6-0.4,1.9-1.2c0.6-1.6,0.6-6,0.6-10
		v-12.1c0-4,0-4.8-1.4-6.3c-0.5-0.5-1.7-0.9-2.3-1l-0.6-0.2c-0.3-0.3-0.3-1.3,0.2-1.5c1.6,0.2,4,0.2,5.1,0.2c0.9,0,1.9-0.1,3-0.2
		c0.7,2.2,5.5,8.6,7,10.5l4.3,5.5c1.8,2.3,5.8,7.7,6.3,8c0.1-0.2,0.1-0.4,0.1-1.2v-9.9c0-3.8,0-8.5-0.8-10c-0.4-0.8-1.1-1.1-2.2-1.3
		l-1-0.2c-0.4-0.4-0.3-1.3,0.1-1.5c1.7,0.1,3.3,0.2,5,0.2c1.9,0,3-0.1,4.5-0.2c0.3,0.3,0.4,1.1,0.1,1.5l-1,0.3
		c-0.8,0.2-1.6,0.4-1.9,1.2c-0.6,1.6-0.6,6-0.6,10V425.3L598.4,425.3z"/>
	<path class="st1" d="M623.1,404.7c0-2.1,0-2.2-1.2-2.2h-2.4c-4,0-5.2,0.6-6.8,4.7c-0.3,0.3-1.2,0.2-1.4-0.4
		c0.7-2.8,1.4-5.9,1.7-7.7c0.1-0.2,0.3-0.2,0.5-0.2c0.2,0,0.3,0.1,0.4,0.2c0.2,1.3,0.8,1.3,3.8,1.3h17.7c2.1,0,2.8-0.2,3.3-1.3
		c0.2-0.1,0.3-0.2,0.5-0.2c0.3,0,0.5,0.1,0.6,0.3c-0.4,2.1-0.8,6.5-0.6,8.1c-0.2,0.4-1,0.5-1.3,0.2c-0.6-4-1.4-4.9-6-4.9h-2.5
		c-1.1,0-1.2,0.1-1.2,2.2v22c0,5.4,0.4,5.6,2.4,5.8l1.6,0.2c0.3,0.4,0.3,1.3-0.1,1.5c-2.5-0.1-4.5-0.2-6.4-0.2s-3.9,0.1-6.7,0.2
		c-0.3-0.2-0.4-1.2-0.1-1.5l1.8-0.3c2-0.2,2.4-0.4,2.4-5.8V404.7L623.1,404.7z"/>
	<path class="st1" d="M654.4,421.5c-1.1,0-1.1,0-1.5,1.4l-1.8,6.1c-0.9,3-0.7,3.2,0.9,3.4l1.3,0.3c0.3,0.4,0.3,1.3-0.1,1.5
		c-1.4-0.1-2.8-0.1-4.6-0.2c-1.4,0-2.8,0.1-4.3,0.2c-0.3-0.3-0.3-1,0-1.5l1.3-0.3c1.3-0.2,1.7-0.7,2.4-2.3c0.5-1.3,1.2-3.5,2.1-6.2
		l5.9-18.1c0.6-1.6,1-2.9,0.8-3.7c1.5-0.4,2.9-2.4,3-2.4c0.3,0,0.6,0.2,0.7,0.4c0.7,2.3,1.3,4.7,1.9,7l6.2,21.3
		c1,3.4,1.2,3.8,3.4,4.2l0.7,0.2c0.3,0.4,0.3,1.2,0,1.5c-1.8-0.1-3.4-0.2-5.6-0.2c-1.9,0-3.8,0.1-5.3,0.2c-0.3-0.3-0.4-1.2-0.1-1.5
		l1-0.2c1.6-0.2,1.7-0.5,1.1-2.7l-2-6.9c-0.4-1.4-0.6-1.4-1.8-1.4H654.4L654.4,421.5z M659.6,419.2c1.2,0,1.4-0.1,1-1.3l-1.8-6.1
		c-0.7-2.7-1-3.7-1.2-4h-0.1c-0.2,0.4-0.5,1.6-1.3,4l-1.8,6c-0.5,1.5-0.3,1.5,0.7,1.5H659.6L659.6,419.2z"/>
	<path class="st1" d="M690.4,425.6c0,2.5,0.1,4.4,0.7,5.2c0.5,0.7,1.2,1.1,4.7,1.1c4.8,0,5.5-0.3,7.5-5.5c0.4-0.3,1.1-0.1,1.3,0.3
		c-0.3,2.1-1.3,6-1.8,7.4c-1.8-0.1-5.5-0.2-10.4-0.2H688c-2.2,0-4.4,0.1-6.2,0.2c-0.3-0.2-0.5-1.2-0.1-1.5l1.3-0.3
		c2-0.3,2.4-0.5,2.4-5.8v-18.9c0-5.3-0.4-5.4-2.4-5.8l-1.2-0.2c-0.3-0.3-0.3-1.3,0.1-1.5c2.2,0.1,4.1,0.2,6.1,0.2
		c1.9,0,3.9-0.1,5.8-0.2c0.4,0.2,0.4,1.2,0.1,1.5l-1,0.2c-2,0.4-2.4,0.5-2.4,5.8V425.6L690.4,425.6z"/>
	<path class="st1" d="M433.4,275.2c-2.5-0.2-5.1-0.3-7.7-0.3c-2.7,0-5.4,0.1-8.1,0.3l6.8,63.7h2.8L433.4,275.2L433.4,275.2z"/>
	<path class="st1" d="M433.9,269.9c-2.7-0.2-5.5-0.3-8.2-0.3c-2.9,0-5.8,0.1-8.7,0.4L394.8,63.6l58.5,7.8L433.9,269.9L433.9,269.9z"
		/>
	<path class="st1" d="M454.5,279c-2.5-0.7-4.9-1.4-7.5-1.9c-2.7-0.6-5.3-1-8-1.4l-6.6,63.7l2.7,0.6L454.5,279L454.5,279z"/>
	<path class="st1" d="M456.1,274c-2.6-0.8-5.3-1.5-8-2c-2.9-0.6-5.7-1.1-8.5-1.5L461,64l55.6,19.8L456.1,274L456.1,274z"/>
	<path class="st1" d="M411.9,275.8c-2.5,0.3-5.1,0.8-7.6,1.3c-2.7,0.6-5.3,1.2-7.9,2l20,60.9l2.7-0.6L411.9,275.8L411.9,275.8z"/>
	<path class="st1" d="M411.3,270.5c-2.7,0.4-5.4,0.8-8.1,1.4c-2.9,0.6-5.7,1.3-8.4,2.2L329.9,76.9l58.8-4.6L411.3,270.5L411.3,270.5
		z"/>
	<path class="st1" d="M391.1,280.9c-2.4,0.9-4.8,1.8-7.2,2.9c-2.5,1.1-4.9,2.3-7.3,3.6l32.3,55.3l2.5-1.1L391.1,280.9L391.1,280.9z"
		/>
	<path class="st1" d="M389.4,275.9c-2.6,0.9-5.1,1.9-7.6,3.1c-2.7,1.2-5.2,2.5-7.8,3.9L269.3,103.6l56.6-16.8L389.4,275.9
		L389.4,275.9z"/>
	<path class="st1" d="M371.8,290.3c-2.2,1.3-4.3,2.8-6.4,4.3c-2.2,1.6-4.3,3.3-6.3,5l43.2,47.4l2.2-1.6L371.8,290.3L371.8,290.3z"/>
	<path class="st1" d="M369,285.7c-2.3,1.4-4.6,3-6.8,4.6c-2.4,1.7-4.6,3.5-6.8,5.4L215.6,142.3l51.8-28.3L369,285.7L369,285.7z"/>
	<path class="st1" d="M354.8,303.5c-1.8,1.8-3.6,3.6-5.4,5.6c-1.8,2-3.5,4.1-5.1,6.3l52.1,37.3l1.8-2.1L354.8,303.5L354.8,303.5z"/>
	<path class="st1" d="M351.2,299.6c-2,1.9-3.9,3.9-5.7,5.9c-1.9,2.2-3.8,4.4-5.5,6.7L171.2,191.4l44.7-38.5L351.2,299.6L351.2,299.6
		z"/>
	<path class="st1" d="M341,319.9c-1.4,2.1-2.8,4.3-4.1,6.6c-1.3,2.4-2.6,4.8-3.7,7.2l58.8,25.6l1.4-2.4L341,319.9L341,319.9z"/>
	<path class="st1" d="M336.7,316.9c-1.5,2.3-3,4.6-4.3,7c-1.4,2.5-2.8,5.1-4,7.7L138,248.8l35.7-47L336.7,316.9L336.7,316.9z"/>
	<path class="st1" d="M474.3,287.2c-2.2-1.2-4.6-2.4-6.9-3.4c-2.5-1.1-5-2.1-7.5-3l-19.8,60.9l2.5,1.1L474.3,287.2L474.3,287.2z"/>
	<path class="st1" d="M477,282.6c-2.4-1.3-4.8-2.5-7.4-3.7c-2.7-1.2-5.3-2.3-8.1-3.2l64.1-197.4l50.2,31L477,282.6L477,282.6z"/>
	<path class="st1" d="M492,299.4c-1.9-1.7-4-3.3-6.1-4.8c-2.2-1.6-4.4-3.1-6.7-4.5l-32.1,55.5l2.2,1.6L492,299.4L492,299.4z"/>
	<path class="st1" d="M495.6,295.4c-2.1-1.8-4.2-3.5-6.4-5.1c-2.4-1.7-4.8-3.3-7.2-4.8l104-179.6l42.6,40.8L495.6,295.4L495.6,295.4
		z"/>
	<path class="st1" d="M506.8,315c-1.6-2-3.2-4-4.9-6c-1.8-2-3.7-4-5.6-5.8l-43,47.5l1.8,2.1L506.8,315L506.8,315z"/>
	<path class="st1" d="M511.1,311.8c-1.6-2.2-3.4-4.3-5.2-6.4c-1.9-2.2-4-4.3-6-6.2l139.3-153.9l33.1,48.8L511.1,311.8L511.1,311.8z"
		/>
	<path class="st1" d="M517.9,333.3c-1.1-2.3-2.3-4.6-3.6-6.9c-1.3-2.4-2.8-4.7-4.3-6.9l-52,37.5l1.4,2.4L517.9,333.3L517.9,333.3z"
		/>
	<path class="st1" d="M522.8,331.1c-1.2-2.5-2.4-4.9-3.8-7.3c-1.4-2.5-3-5-4.6-7.4l168.4-121.4l22.2,54.7L522.8,331.1L522.8,331.1z"
		/>
</g>
</svg>
