<?xml version="1.0" standalone="no"?>
<!DOCTYPE svg PUBLIC "-//W3C//DTD SVG 1.1//EN" "http://www.w3.org/Graphics/SVG/1.1/DTD/svg11.dtd" >
<svg xmlns="http://www.w3.org/2000/svg">
<metadata>Generated by IcoMoon</metadata>
<defs>
<font id="icomoon" horiz-adv-x="1024">
<font-face units-per-em="1024" ascent="960" descent="-64" />
<missing-glyph horiz-adv-x="1024" />
<glyph unicode="&#x20;" horiz-adv-x="512" d="" />
<glyph unicode="&#xe900;" glyph-name="bag" d="M846.848 686.592c-1.024 10.24-9.216 18.432-19.456 17.408h-149.504v56.32c0 92.16-74.752 166.912-166.912 166.912s-166.912-74.752-166.912-166.912v-56.32h-150.528c-10.24 0-18.432-8.192-19.456-17.408l-51.2-591.872c-2.048-27.648 7.168-54.272 25.6-74.752s45.056-31.744 72.704-31.744h579.584c27.648 0 54.272 11.264 72.704 31.744s27.648 47.104 25.6 74.752l-52.224 591.872zM382.976 760.32c0 70.656 57.344 128 128 128s128-57.344 128-128v-56.32h-256v56.32zM843.776 45.568c-11.264-12.288-26.624-19.456-43.008-19.456h-579.584c-16.384 0-32.768 7.168-43.008 19.456-11.264 12.288-16.384 28.672-15.36 45.056l50.176 574.464h131.072v-122.88c-31.744-10.24-51.2-40.96-46.080-73.728s32.768-57.344 66.56-57.344 61.44 24.576 66.56 57.344c5.12 32.768-14.336 64.512-46.080 73.728v122.88h256v-122.88c-31.744-10.24-51.2-40.96-46.080-73.728s32.768-57.344 66.56-57.344c32.768 0 61.44 24.576 66.56 57.344s-14.336 64.512-46.080 73.728v122.88h126.976l50.176-574.464c1.024-16.384-4.096-32.768-15.36-45.056zM360.448 505.344c2.048 0 4.096 0 6.144 0 14.336-2.048 25.6-14.336 24.576-28.672s-13.312-25.6-27.648-25.6c-14.336 0-26.624 11.264-27.648 25.6s10.24 27.648 24.576 28.672zM655.36 505.344c2.048 0 4.096 0 6.144 0 14.336-2.048 25.6-14.336 24.576-28.672s-13.312-25.6-27.648-25.6c-14.336 0-26.624 11.264-27.648 25.6s10.24 27.648 24.576 28.672z" />
<glyph unicode="&#xe901;" glyph-name="eco-friendly" d="M508.928 904.704c79.872 0 159.744-22.528 231.424-65.536 50.176-29.696 94.208-68.608 131.072-114.688l-134.144 4.096-1.024-34.816 168.96-5.12c9.216 0 17.408 7.168 18.432 16.384 0 0 0 1.024 0 1.024l-6.144 169.984-34.816-1.024 4.096-114.688c-36.864 43.008-80.896 79.872-129.024 108.544-76.8 46.080-162.816 70.656-248.832 70.656-138.24 0-264.192-57.344-357.376-159.744-81.92-91.136-131.072-215.040-131.072-328.704h34.816c0 106.496 46.080 220.16 122.88 305.152 84.992 95.232 202.752 148.48 330.752 148.48zM846.848 144.896c-86.016-95.232-203.776-148.48-331.776-148.48-79.872 0-159.744 22.528-231.424 65.536-50.176 29.696-94.208 68.608-131.072 114.688l134.144-4.096 1.024 34.816-168.96 5.12c-5.12 0-9.216-2.048-13.312-5.12-3.072-3.072-5.12-8.192-5.12-13.312l5.12-168.96 34.816 1.024-3.072 114.688c36.864-43.008 79.872-78.848 129.024-108.544 76.8-46.080 162.816-70.656 248.832-70.656 137.216 0 264.192 56.32 357.376 159.744 81.92 91.136 131.072 214.016 131.072 328.704h-34.816c0-105.472-45.056-220.16-121.856-305.152zM693.248 478.72c-1.024 6.144-6.144 10.24-12.288 12.288-31.744 7.168-64.512 4.096-93.184-9.216 3.072 11.264 4.096 23.552 4.096 34.816 0 52.224-26.624 99.328-69.632 126.976-5.12 3.072-11.264 3.072-16.384 0-44.032-27.648-69.632-75.776-69.632-126.976 0-12.288 1.024-23.552 4.096-34.816-28.672 12.288-61.44 16.384-93.184 9.216-6.144-1.024-10.24-6.144-12.288-12.288-11.264-50.176 4.096-102.4 39.936-139.264 28.672-28.672 66.56-44.032 105.472-44.032 6.144 0 12.288 0 17.408 1.024v-35.84c0 0 0 0 0 0s0 0 0 0 0 0 0 0 0 0 0 0c6.144-6.144 25.6-6.144 30.72 0 0 0 0 0 0 0s0 0 0 0v35.84c6.144-1.024 12.288-1.024 17.408-1.024 38.912 0 77.824 15.36 105.472 44.032 37.888 35.84 53.248 88.064 41.984 139.264zM443.392 402.944c-6.144 6.144-16.384 6.144-22.528 0s-6.144-16.384 0-22.528l54.272-54.272c-29.696 1.024-58.368 13.312-79.872 34.816-26.624 26.624-38.912 63.488-33.792 100.352 36.864 5.12 73.728-7.168 100.352-33.792 2.048-2.048 4.096-4.096 6.144-7.168 0 0 1.024-1.024 1.024-1.024 16.384-20.48 26.624-45.056 27.648-70.656l-53.248 54.272zM513.024 523.776c-8.192 0-15.36-7.168-15.36-15.36v-71.68c-20.48 21.504-31.744 50.176-31.744 80.896 0 37.888 17.408 72.704 47.104 95.232 29.696-22.528 47.104-57.344 47.104-95.232 0-30.72-11.264-59.392-31.744-80.896v71.68c1.024 8.192-6.144 15.36-15.36 15.36zM630.784 360.96c-21.504-21.504-50.176-33.792-79.872-34.816l54.272 54.272c6.144 6.144 6.144 16.384 0 22.528s-16.384 6.144-22.528 0l-54.272-54.272c1.024 25.6 10.24 51.2 27.648 70.656 0 0 1.024 1.024 1.024 1.024 2.048 2.048 4.096 4.096 6.144 7.168 26.624 26.624 63.488 38.912 100.352 33.792 6.144-36.864-6.144-73.728-32.768-100.352z" />
<glyph unicode="&#xe902;" glyph-name="iron" d="M992.256 318.976v0l-43.008 226.304c-5.12 19.456-13.312 38.912-26.624 54.272l25.6 25.6c5.12 5.12 5.12 14.336 0 20.48l-5.12 5.12c16.384 12.288 27.648 30.72 29.696 51.2 0 11.264-2.048 23.552-6.144 33.792-3.072 8.192-5.12 15.36-5.12 24.576 0 8.192-6.144 14.336-14.336 14.336s-14.336-6.144-14.336-14.336c0-11.264 3.072-22.528 7.168-32.768 3.072-7.168 5.12-15.36 5.12-22.528-2.048-13.312-10.24-25.6-21.504-33.792l-9.216 9.216c-6.144 5.12-14.336 5.12-20.48 0l-37.888-37.888c-9.216 2.048-17.408 3.072-26.624 3.072h-286.72c-245.76-2.048-425.984-207.872-481.28-415.744h-16.384c-8.192 0-14.336-6.144-14.336-14.336v-57.344c0-8.192 6.144-14.336 14.336-14.336h413.696c10.24 10.24 21.504 19.456 31.744 28.672h-431.104v29.696h434.176c-9.216 9.216-18.432 19.456-28.672 28.672h-373.76c54.272 194.56 223.232 385.024 451.584 385.024h286.72c23.552 0 47.104-9.216 64.512-25.6 0 0 0 0 0 0s1.024-1.024 1.024-1.024c13.312-13.312 23.552-30.72 27.648-49.152l39.936-215.040c-38.912-16.384-59.392-48.128-63.488-95.232v0h-276.48c-1.024-1.024-1.024-2.048-2.048-3.072l-25.6-25.6h304.128v-29.696h-303.104c9.216-9.216 19.456-19.456 28.672-28.672h288.768c8.192 0 14.336 6.144 14.336 14.336v55.296c0 1.024 0 2.048 0 3.072 0 47.104 17.408 74.752 55.296 87.040 7.168 2.048 11.264 9.216 9.216 16.384zM902.144 619.008c-5.12 4.096-11.264 8.192-17.408 11.264l18.432 18.432 14.336-14.336-15.36-15.36zM641.024 303.616h-244.736c-8.192 0-14.336-6.144-14.336-14.336s6.144-14.336 14.336-14.336h243.712c8.192 0 14.336 6.144 14.336 14.336 0 7.168-6.144 14.336-13.312 14.336zM869.376 526.848c-2.048 11.264-11.264 20.48-23.552 20.48h-249.856c-97.28 0-183.296-65.536-211.968-163.84-2.048-7.168 2.048-15.36 9.216-17.408 1.024 0 3.072-1.024 4.096-1.024h479.232c7.168 0 13.312 3.072 17.408 9.216 6.144 7.168 7.168 16.384 5.12 25.6l-29.696 126.976zM630.784 393.728v39.936h73.728v-39.936h-73.728zM732.16 393.728v54.272c0 8.192-6.144 14.336-14.336 14.336h-102.4c-8.192 0-14.336-6.144-14.336-14.336v-54.272h-184.32c30.72 75.776 100.352 125.952 179.2 125.952h246.784l29.696-125.952h-140.288zM607.232 144.896c3.072-3.072 2.048-10.24-4.096-16.384-5.12-5.12-13.312-7.168-16.384-4.096l-43.008 43.008-43.008-43.008c-3.072-3.072-10.24-2.048-16.384 4.096-5.12 5.12-7.168 13.312-4.096 16.384l43.008 43.008-43.008 43.008c-3.072 3.072-2.048 10.24 4.096 16.384 5.12 5.12 13.312 7.168 16.384 4.096l43.008-43.008 43.008 43.008c3.072 3.072 10.24 2.048 16.384-4.096 5.12-5.12 7.168-13.312 4.096-16.384l-43.008-43.008 43.008-43.008z" />
<glyph unicode="&#xe903;" glyph-name="location" d="M512 913.92c-180.224 0-327.68-147.456-327.68-327.68 0-61.44 17.408-120.832 49.152-172.032l260.096-418.816c5.12-8.192 13.312-13.312 23.552-13.312 0 0 0 0 0 0 9.216 0 18.432 5.12 23.552 13.312l253.952 422.912c30.72 50.176 46.080 108.544 46.080 167.936-1.024 181.248-148.48 327.68-328.704 327.68zM746.496 446.976l-230.4-385.024-236.544 380.928c-26.624 43.008-40.96 92.16-40.96 143.36 0 150.528 122.88 273.408 273.408 273.408s273.408-122.88 273.408-273.408c0-49.152-13.312-97.28-38.912-139.264zM512 750.080c-90.112 0-163.84-73.728-163.84-163.84s72.704-163.84 163.84-163.84c92.16 0 163.84 74.752 163.84 163.84 0 90.112-73.728 163.84-163.84 163.84zM512 476.672c-60.416 0-109.568 49.152-109.568 109.568s49.152 109.568 109.568 109.568 109.568-49.152 109.568-109.568c0-59.392-48.128-109.568-109.568-109.568z" />
<glyph unicode="&#xe904;" glyph-name="pillow-split" d="M490.496 134.656c-94.208 0-187.392 4.096-281.6 10.24-3.072 0-7.168-1.024-9.216-3.072l-4.096-4.096c-19.456-19.456-45.056-29.696-71.68-29.696-1.024 0-2.048 0-3.072 0-27.648 1.024-54.272 13.312-72.704 34.816-34.816 40.96-31.744 102.4 6.144 140.288 2.048 3.072 4.096 6.144 3.072 10.24-12.288 103.424-12.288 207.872 0 311.296 0 4.096-1.024 7.168-3.072 10.24l-2.048 2.048c-19.456 19.456-30.72 47.104-29.696 74.752s13.312 54.272 34.816 72.704c40.96 34.816 102.4 31.744 140.288-6.144l2.048-2.048c2.048-2.048 6.144-4.096 9.216-3.072 93.184 6.144 187.392 9.216 281.6 10.24v-38.912c-93.184 0-185.344-4.096-278.528-10.24-14.336-1.024-28.672 4.096-38.912 14.336l-2.048 2.048c-12.288 12.288-29.696 19.456-47.104 19.456-15.36 0-29.696-5.12-40.96-15.36-13.312-11.264-20.48-27.648-21.504-45.056 0-17.408 6.144-34.816 18.432-47.104l2.048-2.048c11.264-11.264 16.384-26.624 14.336-40.96-11.264-100.352-11.264-202.752 0-303.104 2.048-15.36-3.072-30.72-14.336-40.96-24.576-23.552-26.624-61.44-5.12-88.064 11.264-13.312 27.648-20.48 45.056-21.504s34.816 6.144 47.104 18.432l4.096 4.096c10.24 10.24 24.576 15.36 38.912 14.336 93.184-6.144 185.344-9.216 278.528-10.24v-37.888zM970.752 280.064l-2.048 2.048c-2.048 3.072-4.096 6.144-3.072 10.24 12.288 103.424 12.288 207.872 0 311.296 0 4.096 1.024 7.168 3.072 10.24 36.864 35.84 41.984 93.184 11.264 134.144-17.408 23.552-45.056 37.888-73.728 40.96-29.696 2.048-58.368-8.192-78.848-29.696l-4.096-4.096c-2.048-2.048-6.144-4.096-9.216-3.072-94.208 6.144-188.416 9.216-282.624 10.24v-38.912c93.184 0 186.368-4.096 279.552-10.24 14.336-1.024 28.672 4.096 38.912 14.336l4.096 4.096c13.312 13.312 30.72 19.456 49.152 18.432s34.816-10.24 46.080-25.6c18.432-26.624 15.36-61.44-8.192-83.968-11.264-11.264-16.384-26.624-14.336-40.96 12.288-100.352 12.288-201.728 0-302.080-2.048-15.36 3.072-30.72 14.336-40.96l2.048-2.048c12.288-12.288 19.456-29.696 18.432-47.104s-8.192-33.792-21.504-45.056v0c-25.6-21.504-64.512-19.456-88.064 5.12l-2.048 2.048c-10.24 10.24-24.576 15.36-38.912 14.336-93.184-6.144-186.368-9.216-279.552-10.24v-37.888c94.208 0 188.416 4.096 282.624 10.24 3.072 0 7.168-1.024 9.216-3.072l2.048-2.048c37.888-38.912 99.328-41.984 140.288-6.144 21.504 18.432 33.792 45.056 34.816 72.704 1.024 26.624-10.24 53.248-29.696 72.704zM923.648 220.672c-6.144 0-11.264-5.12-11.264-11.264s5.12-11.264 11.264-11.264 11.264 5.12 11.264 11.264-5.12 11.264-11.264 11.264zM912.384 682.496c0 6.144-5.12 11.264-11.264 11.264s-10.24-5.12-10.24-11.264 5.12-11.264 11.264-11.264 10.24 5.12 10.24 11.264zM917.504 247.296c0 6.144-5.12 11.264-11.264 11.264s-11.264-5.12-11.264-11.264 5.12-11.264 11.264-11.264c6.144 0 11.264 5.12 11.264 11.264zM544.768 666.112c6.144 0 11.264 5.12 11.264 11.264s-5.12 11.264-11.264 11.264c-6.144 0-11.264-5.12-11.264-11.264s5.12-11.264 11.264-11.264zM589.824 666.112c6.144 0 11.264 5.12 11.264 11.264s-5.12 11.264-11.264 11.264-11.264-5.12-11.264-11.264 5.12-11.264 11.264-11.264zM635.904 666.112c6.144 0 11.264 5.12 11.264 11.264s-5.12 11.264-11.264 11.264c-6.144 0-11.264-5.12-11.264-11.264s5.12-11.264 11.264-11.264zM680.96 666.112c6.144 0 11.264 5.12 11.264 11.264s-5.12 11.264-11.264 11.264c-6.144 0-11.264-5.12-11.264-11.264s5.12-11.264 11.264-11.264zM726.016 666.112c6.144 0 11.264 5.12 11.264 11.264s-5.12 11.264-11.264 11.264-11.264-5.12-11.264-11.264 5.12-11.264 11.264-11.264zM772.096 666.112c6.144 0 11.264 5.12 11.264 11.264s-5.12 11.264-11.264 11.264-11.264-5.12-11.264-11.264 4.096-11.264 11.264-11.264zM817.152 666.112c6.144 0 11.264 5.12 11.264 11.264s-5.12 11.264-11.264 11.264c-6.144 0-11.264-5.12-11.264-11.264s5.12-11.264 11.264-11.264zM862.208 666.112c6.144 0 11.264 5.12 11.264 11.264s-5.12 11.264-11.264 11.264c-6.144 0-11.264-5.12-11.264-11.264s5.12-11.264 11.264-11.264zM566.272 656.896c-6.144 0-11.264-5.12-11.264-11.264s5.12-11.264 11.264-11.264c6.144 0 11.264 5.12 11.264 11.264s-5.12 11.264-11.264 11.264zM611.328 656.896c-6.144 0-11.264-5.12-11.264-11.264s5.12-11.264 11.264-11.264c6.144 0 11.264 5.12 11.264 11.264s-5.12 11.264-11.264 11.264zM657.408 656.896c-6.144 0-11.264-5.12-11.264-11.264s5.12-11.264 11.264-11.264 11.264 5.12 11.264 11.264c0 6.144-5.12 11.264-11.264 11.264zM702.464 656.896c-6.144 0-11.264-5.12-11.264-11.264s5.12-11.264 11.264-11.264c6.144 0 11.264 5.12 11.264 11.264s-5.12 11.264-11.264 11.264zM747.52 656.896c-6.144 0-11.264-5.12-11.264-11.264s5.12-11.264 11.264-11.264c6.144 0 11.264 5.12 11.264 11.264s-5.12 11.264-11.264 11.264zM793.6 656.896c-6.144 0-11.264-5.12-11.264-11.264s5.12-11.264 11.264-11.264 11.264 5.12 11.264 11.264c-1.024 6.144-5.12 11.264-11.264 11.264zM838.656 656.896c-6.144 0-11.264-5.12-11.264-11.264s5.12-11.264 11.264-11.264 11.264 5.12 11.264 11.264c0 6.144-5.12 11.264-11.264 11.264zM883.712 634.368c6.144 0 11.264 5.12 11.264 11.264s-5.12 11.264-11.264 11.264c-6.144 0-11.264-5.12-11.264-11.264s5.12-11.264 11.264-11.264zM544.768 604.672c6.144 0 11.264 5.12 11.264 11.264s-5.12 11.264-11.264 11.264c-6.144 0-11.264-5.12-11.264-11.264s5.12-11.264 11.264-11.264zM589.824 604.672c6.144 0 11.264 5.12 11.264 11.264s-5.12 11.264-11.264 11.264-11.264-5.12-11.264-11.264 5.12-11.264 11.264-11.264zM635.904 604.672c6.144 0 11.264 5.12 11.264 11.264s-5.12 11.264-11.264 11.264c-6.144 0-11.264-5.12-11.264-11.264s5.12-11.264 11.264-11.264zM680.96 604.672c6.144 0 11.264 5.12 11.264 11.264s-5.12 11.264-11.264 11.264c-6.144 0-11.264-5.12-11.264-11.264s5.12-11.264 11.264-11.264zM726.016 604.672c6.144 0 11.264 5.12 11.264 11.264s-5.12 11.264-11.264 11.264-11.264-5.12-11.264-11.264 5.12-11.264 11.264-11.264zM772.096 604.672c6.144 0 11.264 5.12 11.264 11.264s-5.12 11.264-11.264 11.264-11.264-5.12-11.264-11.264 4.096-11.264 11.264-11.264zM817.152 604.672c6.144 0 11.264 5.12 11.264 11.264s-5.12 11.264-11.264 11.264c-6.144 0-11.264-5.12-11.264-11.264s5.12-11.264 11.264-11.264zM862.208 604.672c6.144 0 11.264 5.12 11.264 11.264s-5.12 11.264-11.264 11.264c-6.144 0-11.264-5.12-11.264-11.264s5.12-11.264 11.264-11.264zM566.272 595.456c-6.144 0-11.264-5.12-11.264-11.264s5.12-11.264 11.264-11.264c6.144 0 11.264 5.12 11.264 11.264s-5.12 11.264-11.264 11.264zM611.328 595.456c-6.144 0-11.264-5.12-11.264-11.264s5.12-11.264 11.264-11.264c6.144 0 11.264 5.12 11.264 11.264s-5.12 11.264-11.264 11.264zM657.408 595.456c-6.144 0-11.264-5.12-11.264-11.264s5.12-11.264 11.264-11.264 11.264 5.12 11.264 11.264c0 6.144-5.12 11.264-11.264 11.264zM702.464 595.456c-6.144 0-11.264-5.12-11.264-11.264s5.12-11.264 11.264-11.264c6.144 0 11.264 5.12 11.264 11.264s-5.12 11.264-11.264 11.264zM747.52 595.456c-6.144 0-11.264-5.12-11.264-11.264s5.12-11.264 11.264-11.264c6.144 0 11.264 5.12 11.264 11.264s-5.12 11.264-11.264 11.264zM793.6 595.456c-6.144 0-11.264-5.12-11.264-11.264s5.12-11.264 11.264-11.264 11.264 5.12 11.264 11.264c-1.024 6.144-5.12 11.264-11.264 11.264zM838.656 595.456c-6.144 0-11.264-5.12-11.264-11.264s5.12-11.264 11.264-11.264 11.264 5.12 11.264 11.264c0 6.144-5.12 11.264-11.264 11.264zM883.712 595.456c-6.144 0-11.264-5.12-11.264-11.264s5.12-11.264 11.264-11.264c6.144 0 11.264 5.12 11.264 11.264s-5.12 11.264-11.264 11.264zM544.768 543.232c6.144 0 11.264 5.12 11.264 11.264s-5.12 11.264-11.264 11.264c-6.144 0-11.264-5.12-11.264-11.264s5.12-11.264 11.264-11.264zM589.824 543.232c6.144 0 11.264 5.12 11.264 11.264s-5.12 11.264-11.264 11.264-11.264-5.12-11.264-11.264 5.12-11.264 11.264-11.264zM635.904 543.232c6.144 0 11.264 5.12 11.264 11.264s-5.12 11.264-11.264 11.264c-6.144 0-11.264-5.12-11.264-11.264s5.12-11.264 11.264-11.264zM680.96 543.232c6.144 0 11.264 5.12 11.264 11.264s-5.12 11.264-11.264 11.264c-6.144 0-11.264-5.12-11.264-11.264s5.12-11.264 11.264-11.264zM726.016 543.232c6.144 0 11.264 5.12 11.264 11.264s-5.12 11.264-11.264 11.264-11.264-5.12-11.264-11.264 5.12-11.264 11.264-11.264zM772.096 543.232c6.144 0 11.264 5.12 11.264 11.264s-5.12 11.264-11.264 11.264-11.264-5.12-11.264-11.264 4.096-11.264 11.264-11.264zM817.152 543.232c6.144 0 11.264 5.12 11.264 11.264s-5.12 11.264-11.264 11.264c-6.144 0-11.264-5.12-11.264-11.264s5.12-11.264 11.264-11.264zM862.208 543.232c6.144 0 11.264 5.12 11.264 11.264s-5.12 11.264-11.264 11.264c-6.144 0-11.264-5.12-11.264-11.264s5.12-11.264 11.264-11.264zM566.272 534.016c-6.144 0-11.264-5.12-11.264-11.264s5.12-11.264 11.264-11.264c6.144 0 11.264 5.12 11.264 11.264s-5.12 11.264-11.264 11.264zM611.328 534.016c-6.144 0-11.264-5.12-11.264-11.264s5.12-11.264 11.264-11.264c6.144 0 11.264 5.12 11.264 11.264s-5.12 11.264-11.264 11.264zM657.408 534.016c-6.144 0-11.264-5.12-11.264-11.264s5.12-11.264 11.264-11.264 11.264 5.12 11.264 11.264c0 6.144-5.12 11.264-11.264 11.264zM702.464 534.016c-6.144 0-11.264-5.12-11.264-11.264s5.12-11.264 11.264-11.264c6.144 0 11.264 5.12 11.264 11.264s-5.12 11.264-11.264 11.264zM747.52 534.016c-6.144 0-11.264-5.12-11.264-11.264s5.12-11.264 11.264-11.264c6.144 0 11.264 5.12 11.264 11.264s-5.12 11.264-11.264 11.264zM793.6 534.016c-6.144 0-11.264-5.12-11.264-11.264s5.12-11.264 11.264-11.264 11.264 5.12 11.264 11.264c-1.024 6.144-5.12 11.264-11.264 11.264zM838.656 534.016c-6.144 0-11.264-5.12-11.264-11.264s5.12-11.264 11.264-11.264 11.264 5.12 11.264 11.264c0 6.144-5.12 11.264-11.264 11.264zM883.712 534.016c-6.144 0-11.264-5.12-11.264-11.264s5.12-11.264 11.264-11.264c6.144 0 11.264 5.12 11.264 11.264s-5.12 11.264-11.264 11.264zM544.768 481.792c6.144 0 11.264 5.12 11.264 11.264s-5.12 11.264-11.264 11.264c-6.144 0-11.264-5.12-11.264-11.264s5.12-11.264 11.264-11.264zM589.824 481.792c6.144 0 11.264 5.12 11.264 11.264s-5.12 11.264-11.264 11.264-11.264-5.12-11.264-11.264 5.12-11.264 11.264-11.264zM635.904 481.792c6.144 0 11.264 5.12 11.264 11.264s-5.12 11.264-11.264 11.264c-6.144 0-11.264-5.12-11.264-11.264s5.12-11.264 11.264-11.264zM680.96 481.792c6.144 0 11.264 5.12 11.264 11.264s-5.12 11.264-11.264 11.264c-6.144 0-11.264-5.12-11.264-11.264s5.12-11.264 11.264-11.264zM726.016 481.792c6.144 0 11.264 5.12 11.264 11.264s-5.12 11.264-11.264 11.264-11.264-5.12-11.264-11.264 5.12-11.264 11.264-11.264zM772.096 481.792c6.144 0 11.264 5.12 11.264 11.264s-5.12 11.264-11.264 11.264-11.264-5.12-11.264-11.264 4.096-11.264 11.264-11.264zM817.152 481.792c6.144 0 11.264 5.12 11.264 11.264s-5.12 11.264-11.264 11.264c-6.144 0-11.264-5.12-11.264-11.264s5.12-11.264 11.264-11.264zM862.208 481.792c6.144 0 11.264 5.12 11.264 11.264s-5.12 11.264-11.264 11.264c-6.144 0-11.264-5.12-11.264-11.264s5.12-11.264 11.264-11.264zM566.272 472.576c-6.144 0-11.264-5.12-11.264-11.264s5.12-11.264 11.264-11.264c6.144 0 11.264 5.12 11.264 11.264s-5.12 11.264-11.264 11.264zM611.328 472.576c-6.144 0-11.264-5.12-11.264-11.264s5.12-11.264 11.264-11.264c6.144 0 11.264 5.12 11.264 11.264s-5.12 11.264-11.264 11.264zM657.408 472.576c-6.144 0-11.264-5.12-11.264-11.264s5.12-11.264 11.264-11.264 11.264 5.12 11.264 11.264c0 6.144-5.12 11.264-11.264 11.264zM702.464 472.576c-6.144 0-11.264-5.12-11.264-11.264s5.12-11.264 11.264-11.264c6.144 0 11.264 5.12 11.264 11.264s-5.12 11.264-11.264 11.264zM747.52 472.576c-6.144 0-11.264-5.12-11.264-11.264s5.12-11.264 11.264-11.264c6.144 0 11.264 5.12 11.264 11.264s-5.12 11.264-11.264 11.264zM793.6 472.576c-6.144 0-11.264-5.12-11.264-11.264s5.12-11.264 11.264-11.264 11.264 5.12 11.264 11.264c-1.024 6.144-5.12 11.264-11.264 11.264zM838.656 472.576c-6.144 0-11.264-5.12-11.264-11.264s5.12-11.264 11.264-11.264 11.264 5.12 11.264 11.264c0 6.144-5.12 11.264-11.264 11.264zM883.712 472.576c-6.144 0-11.264-5.12-11.264-11.264s5.12-11.264 11.264-11.264c6.144 0 11.264 5.12 11.264 11.264s-5.12 11.264-11.264 11.264zM544.768 420.352c6.144 0 11.264 5.12 11.264 11.264s-5.12 11.264-11.264 11.264c-6.144 0-11.264-5.12-11.264-11.264s5.12-11.264 11.264-11.264zM589.824 420.352c6.144 0 11.264 5.12 11.264 11.264s-5.12 11.264-11.264 11.264-11.264-5.12-11.264-11.264 5.12-11.264 11.264-11.264zM635.904 420.352c6.144 0 11.264 5.12 11.264 11.264s-5.12 11.264-11.264 11.264c-6.144 0-11.264-5.12-11.264-11.264s5.12-11.264 11.264-11.264zM680.96 420.352c6.144 0 11.264 5.12 11.264 11.264s-5.12 11.264-11.264 11.264c-6.144 0-11.264-5.12-11.264-11.264s5.12-11.264 11.264-11.264zM726.016 420.352c6.144 0 11.264 5.12 11.264 11.264s-5.12 11.264-11.264 11.264-11.264-5.12-11.264-11.264 5.12-11.264 11.264-11.264zM772.096 420.352c6.144 0 11.264 5.12 11.264 11.264s-5.12 11.264-11.264 11.264-11.264-5.12-11.264-11.264 4.096-11.264 11.264-11.264zM817.152 420.352c6.144 0 11.264 5.12 11.264 11.264s-5.12 11.264-11.264 11.264c-6.144 0-11.264-5.12-11.264-11.264s5.12-11.264 11.264-11.264zM862.208 420.352c6.144 0 11.264 5.12 11.264 11.264s-5.12 11.264-11.264 11.264c-6.144 0-11.264-5.12-11.264-11.264s5.12-11.264 11.264-11.264zM566.272 411.136c-6.144 0-11.264-5.12-11.264-11.264s5.12-11.264 11.264-11.264c6.144 0 11.264 5.12 11.264 11.264s-5.12 11.264-11.264 11.264zM611.328 411.136c-6.144 0-11.264-5.12-11.264-11.264s5.12-11.264 11.264-11.264c6.144 0 11.264 5.12 11.264 11.264s-5.12 11.264-11.264 11.264zM657.408 411.136c-6.144 0-11.264-5.12-11.264-11.264s5.12-11.264 11.264-11.264 11.264 5.12 11.264 11.264c0 6.144-5.12 11.264-11.264 11.264zM702.464 411.136c-6.144 0-11.264-5.12-11.264-11.264s5.12-11.264 11.264-11.264c6.144 0 11.264 5.12 11.264 11.264s-5.12 11.264-11.264 11.264zM747.52 411.136c-6.144 0-11.264-5.12-11.264-11.264s5.12-11.264 11.264-11.264c6.144 0 11.264 5.12 11.264 11.264s-5.12 11.264-11.264 11.264zM793.6 411.136c-6.144 0-11.264-5.12-11.264-11.264s5.12-11.264 11.264-11.264 11.264 5.12 11.264 11.264c-1.024 6.144-5.12 11.264-11.264 11.264zM838.656 411.136c-6.144 0-11.264-5.12-11.264-11.264s5.12-11.264 11.264-11.264 11.264 5.12 11.264 11.264c0 6.144-5.12 11.264-11.264 11.264zM883.712 411.136c-6.144 0-11.264-5.12-11.264-11.264s5.12-11.264 11.264-11.264c6.144 0 11.264 5.12 11.264 11.264s-5.12 11.264-11.264 11.264zM544.768 358.912c6.144 0 11.264 5.12 11.264 11.264s-5.12 11.264-11.264 11.264c-6.144 0-11.264-5.12-11.264-11.264s5.12-11.264 11.264-11.264zM589.824 358.912c6.144 0 11.264 5.12 11.264 11.264s-5.12 11.264-11.264 11.264-11.264-5.12-11.264-11.264 5.12-11.264 11.264-11.264zM635.904 358.912c6.144 0 11.264 5.12 11.264 11.264s-5.12 11.264-11.264 11.264c-6.144 0-11.264-5.12-11.264-11.264s5.12-11.264 11.264-11.264zM680.96 358.912c6.144 0 11.264 5.12 11.264 11.264s-5.12 11.264-11.264 11.264c-6.144 0-11.264-5.12-11.264-11.264s5.12-11.264 11.264-11.264zM726.016 358.912c6.144 0 11.264 5.12 11.264 11.264s-5.12 11.264-11.264 11.264-11.264-5.12-11.264-11.264 5.12-11.264 11.264-11.264zM772.096 358.912c6.144 0 11.264 5.12 11.264 11.264s-5.12 11.264-11.264 11.264-11.264-5.12-11.264-11.264 4.096-11.264 11.264-11.264zM817.152 358.912c6.144 0 11.264 5.12 11.264 11.264s-5.12 11.264-11.264 11.264c-6.144 0-11.264-5.12-11.264-11.264s5.12-11.264 11.264-11.264zM862.208 358.912c6.144 0 11.264 5.12 11.264 11.264s-5.12 11.264-11.264 11.264c-6.144 0-11.264-5.12-11.264-11.264s5.12-11.264 11.264-11.264zM566.272 349.696c-6.144 0-11.264-5.12-11.264-11.264s5.12-11.264 11.264-11.264c6.144 0 11.264 5.12 11.264 11.264s-5.12 11.264-11.264 11.264zM611.328 349.696c-6.144 0-11.264-5.12-11.264-11.264s5.12-11.264 11.264-11.264c6.144 0 11.264 5.12 11.264 11.264s-5.12 11.264-11.264 11.264zM657.408 349.696c-6.144 0-11.264-5.12-11.264-11.264s5.12-11.264 11.264-11.264 11.264 5.12 11.264 11.264c0 6.144-5.12 11.264-11.264 11.264zM702.464 349.696c-6.144 0-11.264-5.12-11.264-11.264s5.12-11.264 11.264-11.264c6.144 0 11.264 5.12 11.264 11.264s-5.12 11.264-11.264 11.264zM747.52 349.696c-6.144 0-11.264-5.12-11.264-11.264s5.12-11.264 11.264-11.264c6.144 0 11.264 5.12 11.264 11.264s-5.12 11.264-11.264 11.264zM793.6 349.696c-6.144 0-11.264-5.12-11.264-11.264s5.12-11.264 11.264-11.264 11.264 5.12 11.264 11.264c-1.024 6.144-5.12 11.264-11.264 11.264zM838.656 349.696c-6.144 0-11.264-5.12-11.264-11.264s5.12-11.264 11.264-11.264 11.264 5.12 11.264 11.264c0 6.144-5.12 11.264-11.264 11.264zM883.712 349.696c-6.144 0-11.264-5.12-11.264-11.264s5.12-11.264 11.264-11.264c6.144 0 11.264 5.12 11.264 11.264s-5.12 11.264-11.264 11.264zM544.768 297.472c6.144 0 11.264 5.12 11.264 11.264s-5.12 11.264-11.264 11.264c-6.144 0-11.264-5.12-11.264-11.264s5.12-11.264 11.264-11.264zM589.824 297.472c6.144 0 11.264 5.12 11.264 11.264s-5.12 11.264-11.264 11.264-11.264-5.12-11.264-11.264 5.12-11.264 11.264-11.264zM635.904 297.472c6.144 0 11.264 5.12 11.264 11.264s-5.12 11.264-11.264 11.264c-6.144 0-11.264-5.12-11.264-11.264s5.12-11.264 11.264-11.264zM680.96 297.472c6.144 0 11.264 5.12 11.264 11.264s-5.12 11.264-11.264 11.264c-6.144 0-11.264-5.12-11.264-11.264s5.12-11.264 11.264-11.264zM726.016 297.472c6.144 0 11.264 5.12 11.264 11.264s-5.12 11.264-11.264 11.264-11.264-5.12-11.264-11.264 5.12-11.264 11.264-11.264zM772.096 297.472c6.144 0 11.264 5.12 11.264 11.264s-5.12 11.264-11.264 11.264-11.264-5.12-11.264-11.264 4.096-11.264 11.264-11.264zM817.152 297.472c6.144 0 11.264 5.12 11.264 11.264s-5.12 11.264-11.264 11.264c-6.144 0-11.264-5.12-11.264-11.264s5.12-11.264 11.264-11.264zM862.208 297.472c6.144 0 11.264 5.12 11.264 11.264s-5.12 11.264-11.264 11.264c-6.144 0-11.264-5.12-11.264-11.264s5.12-11.264 11.264-11.264zM566.272 288.256c-6.144 0-11.264-5.12-11.264-11.264s5.12-11.264 11.264-11.264c6.144 0 11.264 5.12 11.264 11.264s-5.12 11.264-11.264 11.264zM611.328 288.256c-6.144 0-11.264-5.12-11.264-11.264s5.12-11.264 11.264-11.264c6.144 0 11.264 5.12 11.264 11.264s-5.12 11.264-11.264 11.264zM657.408 288.256c-6.144 0-11.264-5.12-11.264-11.264s5.12-11.264 11.264-11.264 11.264 5.12 11.264 11.264c0 6.144-5.12 11.264-11.264 11.264zM702.464 288.256c-6.144 0-11.264-5.12-11.264-11.264s5.12-11.264 11.264-11.264c6.144 0 11.264 5.12 11.264 11.264s-5.12 11.264-11.264 11.264zM747.52 288.256c-6.144 0-11.264-5.12-11.264-11.264s5.12-11.264 11.264-11.264c6.144 0 11.264 5.12 11.264 11.264s-5.12 11.264-11.264 11.264zM793.6 288.256c-6.144 0-11.264-5.12-11.264-11.264s5.12-11.264 11.264-11.264 11.264 5.12 11.264 11.264c-1.024 6.144-5.12 11.264-11.264 11.264zM838.656 288.256c-6.144 0-11.264-5.12-11.264-11.264s5.12-11.264 11.264-11.264 11.264 5.12 11.264 11.264c0 6.144-5.12 11.264-11.264 11.264zM883.712 288.256c-6.144 0-11.264-5.12-11.264-11.264s5.12-11.264 11.264-11.264c6.144 0 11.264 5.12 11.264 11.264s-5.12 11.264-11.264 11.264zM544.768 257.536c-6.144 0-11.264-5.12-11.264-11.264s5.12-11.264 11.264-11.264c6.144 0 11.264 5.12 11.264 11.264s-5.12 11.264-11.264 11.264zM589.824 257.536c-6.144 0-11.264-5.12-11.264-11.264s5.12-11.264 11.264-11.264 11.264 5.12 11.264 11.264-5.12 11.264-11.264 11.264zM635.904 257.536c-6.144 0-11.264-5.12-11.264-11.264s5.12-11.264 11.264-11.264c6.144 0 11.264 5.12 11.264 11.264s-5.12 11.264-11.264 11.264zM680.96 257.536c-6.144 0-11.264-5.12-11.264-11.264s5.12-11.264 11.264-11.264c6.144 0 11.264 5.12 11.264 11.264s-5.12 11.264-11.264 11.264zM726.016 257.536c-6.144 0-11.264-5.12-11.264-11.264s5.12-11.264 11.264-11.264 11.264 5.12 11.264 11.264-5.12 11.264-11.264 11.264zM772.096 257.536c-6.144 0-11.264-5.12-11.264-11.264s5.12-11.264 11.264-11.264 11.264 5.12 11.264 11.264-5.12 11.264-11.264 11.264zM817.152 257.536c-6.144 0-11.264-5.12-11.264-11.264s5.12-11.264 11.264-11.264c6.144 0 11.264 5.12 11.264 11.264s-5.12 11.264-11.264 11.264zM862.208 257.536c-6.144 0-11.264-5.12-11.264-11.264s5.12-11.264 11.264-11.264c6.144 0 11.264 5.12 11.264 11.264s-5.12 11.264-11.264 11.264zM566.272 226.816c-6.144 0-11.264-5.12-11.264-11.264s5.12-11.264 11.264-11.264c6.144 0 11.264 5.12 11.264 11.264s-5.12 11.264-11.264 11.264zM611.328 226.816c-6.144 0-11.264-5.12-11.264-11.264s5.12-11.264 11.264-11.264c6.144 0 11.264 5.12 11.264 11.264s-5.12 11.264-11.264 11.264zM657.408 226.816c-6.144 0-11.264-5.12-11.264-11.264s5.12-11.264 11.264-11.264 11.264 5.12 11.264 11.264c0 6.144-5.12 11.264-11.264 11.264zM702.464 226.816c-6.144 0-11.264-5.12-11.264-11.264s5.12-11.264 11.264-11.264c6.144 0 11.264 5.12 11.264 11.264s-5.12 11.264-11.264 11.264zM747.52 226.816c-6.144 0-11.264-5.12-11.264-11.264s5.12-11.264 11.264-11.264c6.144 0 11.264 5.12 11.264 11.264s-5.12 11.264-11.264 11.264zM793.6 226.816c-6.144 0-11.264-5.12-11.264-11.264s5.12-11.264 11.264-11.264 11.264 5.12 11.264 11.264c-1.024 6.144-5.12 11.264-11.264 11.264zM838.656 226.816c-6.144 0-11.264-5.12-11.264-11.264s5.12-11.264 11.264-11.264 11.264 5.12 11.264 11.264c0 6.144-5.12 11.264-11.264 11.264zM883.712 226.816c-6.144 0-11.264-5.12-11.264-11.264s5.12-11.264 11.264-11.264c6.144 0 11.264 5.12 11.264 11.264s-5.12 11.264-11.264 11.264z" />
<glyph unicode="&#xe905;" glyph-name="quote" d="M41.984 800.256h352.256v-352.256c0-193.536-158.72-352.256-352.256-352.256v117.76c129.024 0 234.496 105.472 234.496 234.496h-234.496v352.256zM629.76 800.256v-352.256h234.496c0-129.024-105.472-234.496-234.496-234.496v-117.76c193.536 0 352.256 158.72 352.256 352.256v352.256h-352.256z" />
<glyph unicode="&#xe906;" glyph-name="right-arrow" d="M703.488 519.68l74.752-80.896-440.32-484.352-74.752 81.92 366.592 402.432-384 420.864 74.752 81.92z" />
<glyph unicode="&#xe907;" glyph-name="search" d="M835.584-0.512l-188.416 228.352c97.28 72.704 159.744 188.416 159.744 318.464 0 220.16-179.2 398.336-398.336 398.336s-398.336-178.176-398.336-398.336c0-220.16 179.2-398.336 398.336-398.336 73.728 0 142.336 20.48 201.728 54.272l191.488-231.424c7.168-8.192 20.48-10.24 28.672-3.072l3.072 2.048c8.192 8.192 9.216 21.504 2.048 29.696zM56.32 546.304c0 194.56 157.696 352.256 352.256 352.256s352.256-157.696 352.256-352.256c0-194.56-157.696-352.256-352.256-352.256s-352.256 158.72-352.256 352.256z" />
<glyph unicode="&#xe908;" glyph-name="washing-machine" d="M815.104 905.728h-606.208c-41.984 0-75.776-33.792-75.776-75.776v-727.040c0-25.6 20.48-45.056 45.056-45.056v-45.056c0-8.192 7.168-15.36 15.36-15.36h636.928c8.192 0 15.36 7.168 15.36 15.36v45.056c25.6 0 45.056 20.48 45.056 45.056v727.040c0 41.984-33.792 75.776-75.776 75.776zM208.896 876.032h606.208c25.6 0 45.056-20.48 45.056-45.056v-106.496h-696.32v105.472c0 25.6 20.48 46.080 45.056 46.080zM815.104 27.136h-606.208v30.72h606.208v-30.72zM845.824 87.552h-666.624c-8.192 0-15.36 7.168-15.36 15.36v590.848h697.344v-590.848c0-8.192-7.168-15.36-15.36-15.36zM208.896 754.176h182.272c8.192 0 15.36 7.168 15.36 15.36v60.416c0 8.192-7.168 15.36-15.36 15.36h-182.272c-8.192 0-15.36-7.168-15.36-15.36v-60.416c1.024-8.192 7.168-15.36 15.36-15.36zM224.256 815.616h151.552v-30.72h-151.552v30.72zM482.304 754.176c25.6 0 45.056 20.48 45.056 45.056 0 25.6-20.48 45.056-45.056 45.056-25.6 0-45.056-20.48-45.056-45.056-1.024-24.576 19.456-45.056 45.056-45.056zM482.304 815.616c8.192 0 15.36-7.168 15.36-15.36s-7.168-15.36-15.36-15.36c-8.192 0-15.36 7.168-15.36 15.36s7.168 15.36 15.36 15.36zM603.136 754.176c25.6 0 45.056 20.48 45.056 45.056 0 25.6-20.48 45.056-45.056 45.056-25.6 0-45.056-20.48-45.056-45.056s20.48-45.056 45.056-45.056zM603.136 815.616c8.192 0 15.36-7.168 15.36-15.36s-7.168-15.36-15.36-15.36c-8.192 0-15.36 7.168-15.36 15.36s7.168 15.36 15.36 15.36zM694.272 784.896h30.72c8.192 0 15.36 7.168 15.36 15.36s-7.168 15.36-15.36 15.36h-30.72c-8.192 0-15.36-7.168-15.36-15.36s7.168-15.36 15.36-15.36zM785.408 784.896h30.72c8.192 0 15.36 7.168 15.36 15.36s-7.168 15.36-15.36 15.36h-30.72c-8.192 0-15.36-7.168-15.36-15.36s7.168-15.36 15.36-15.36zM512 633.344c-134.144 0-242.688-108.544-242.688-242.688s109.568-241.664 242.688-241.664c134.144 0 242.688 108.544 242.688 242.688 0 133.12-108.544 241.664-242.688 241.664zM512 178.688c-116.736 0-211.968 95.232-211.968 211.968s95.232 211.968 211.968 211.968c116.736 0 211.968-95.232 211.968-211.968s-94.208-211.968-211.968-211.968zM512 588.288c-108.544 0-196.608-88.064-196.608-196.608 0-25.6 5.12-51.2 14.336-74.752 0 0 0-1.024 0-1.024s0-1.024 1.024-1.024c41.984-100.352 157.696-147.456 258.048-105.472 56.32 23.552 98.304 71.68 113.664 131.072 0 0 0 0 0 1.024 27.648 104.448-33.792 211.968-138.24 240.64-17.408 4.096-34.816 6.144-52.224 6.144zM512 557.568c92.16 0 166.912-73.728 166.912-165.888 0-12.288-1.024-24.576-4.096-36.864-8.192-3.072-15.36-6.144-23.552-9.216-19.456-10.24-41.984-15.36-63.488-15.36-18.432 0-37.888 4.096-54.272 13.312-20.48 11.264-44.032 17.408-67.584 16.384-38.912-2.048-76.8-9.216-112.64-21.504-28.672 87.040 19.456 181.248 106.496 209.92 17.408 6.144 34.816 9.216 52.224 9.216zM512 224.768c-61.44 0-117.76 33.792-146.432 87.040 32.768 11.264 66.56 17.408 101.376 18.432 18.432 0 37.888-4.096 54.272-13.312 20.48-11.264 44.032-17.408 67.584-16.384 25.6 0 50.176 6.144 73.728 17.408-28.672-57.344-87.040-93.184-150.528-93.184z" />
<glyph unicode="&#xe909;" glyph-name="cotton-blend" d="M840.704 151.040l-16.384 167.936c0 1.024 0 2.048 0 3.072 0 2.048 0 4.096-1.024 6.144l-17.408 184.32c0 0 0 1.024 0 1.024l-6.144 61.44c0 1.024 0 1.024 0 2.048l-12.288 129.024c0 0 0 0 0 0l-4.096 41.984c-5.12 52.224-41.984 96.256-90.112 114.688-1.024 0-2.048 1.024-3.072 1.024-13.312 5.12-28.672 7.168-43.008 7.168h-25.6v47.104c0 8.192-7.168 15.36-15.36 15.36h-188.416c-8.192 0-15.36-7.168-15.36-15.36v-47.104h-25.6c-1.024 0-2.048 0-3.072 0 0 0 0 0 0 0-1.024 0-3.072 0-4.096 0-65.536-4.096-121.856-57.344-128-122.88l-28.672-295.936c0 0 0 0 0 0s0 0 0 0l-12.288-124.928c0 0 0 0 0 0s0 0 0 0l-12.288-124.928c0 0 0 0 0 0s0 0 0 0l-5.12-51.2c0-5.12-1.024-10.24 0-14.336 0 0 0-1.024 0-1.024 1.024-27.648 11.264-53.248 29.696-72.704 0 0 0 0 0 0s0 0 0 0c21.504-23.552 52.224-36.864 84.992-36.864h25.6v-47.104c0-8.192 7.168-15.36 15.36-15.36h345.088c8.192 0 15.36 7.168 15.36 15.36v47.104h25.6c33.792 0 64.512 13.312 86.016 36.864 22.528 23.552 32.768 54.272 29.696 88.064zM677.888 55.808h-51.2c49.152 35.84 92.16 78.848 130.048 128 12.288-1.024 24.576-2.048 37.888-2.048-33.792-46.080-72.704-89.088-116.736-125.952zM507.904 55.808c66.56 33.792 126.976 80.896 176.128 138.24 12.288-2.048 23.552-4.096 35.84-6.144-41.984-52.224-92.16-96.256-148.48-132.096h-63.488zM218.112 182.784c9.216-1.024 18.432-1.024 27.648-1.024 89.088 0 175.104 30.72 244.736 86.016 10.24-5.12 19.456-11.264 29.696-16.384-76.8-65.536-173.056-100.352-274.432-100.352-10.24 0-20.48 0-30.72 1.024l3.072 30.72zM245.76 212.48c-8.192 0-16.384 0-24.576 1.024l3.072 30.72c7.168 0 14.336-1.024 21.504-1.024 67.584 0 133.12 20.48 188.416 59.392 9.216-6.144 18.432-13.312 27.648-19.456-62.464-45.056-138.24-70.656-216.064-70.656zM245.76 275.968c-6.144 0-12.288 0-18.432 1.024l3.072 30.72c5.12 0 10.24 0 15.36 0 48.128 0 95.232 13.312 136.192 37.888 8.192-7.168 16.384-14.336 25.6-21.504-48.128-31.744-103.424-48.128-161.792-48.128zM245.76 338.432c-4.096 0-8.192 0-12.288 0l3.072 31.744c3.072 0 6.144 0 9.216 0 31.744 0 62.464 7.168 90.112 20.48 7.168-8.192 15.36-16.384 22.528-23.552-34.816-18.432-72.704-28.672-112.64-28.672zM238.592 400.896l3.072 31.744c1.024 0 2.048 0 4.096 0 16.384 0 32.768 3.072 48.128 8.192 6.144-9.216 13.312-17.408 20.48-25.6-23.552-10.24-50.176-15.36-75.776-14.336zM244.736 463.36l4.096 46.080c8.192-14.336 16.384-28.672 25.6-41.984-9.216-2.048-19.456-4.096-29.696-4.096zM231.424 87.552c-7.168 9.216-12.288 20.48-15.36 31.744 9.216-1.024 19.456-1.024 28.672-1.024 113.664 0 221.184 41.984 305.152 117.76 10.24-5.12 21.504-9.216 31.744-13.312-90.112-87.040-208.896-135.168-335.872-135.168-5.12 0-9.216 0-14.336 0zM254.976 567.808l6.144 67.584c78.848-228.352 291.84-387.072 538.624-391.168l3.072-31.744c-234.496 3.072-449.536 141.312-547.84 355.328zM323.584 824.832c10.24 6.144 20.48 10.24 31.744 12.288 0-4.096 0-9.216 0-13.312 0-241.664 192.512-442.368 433.152-453.632l3.072-31.744c-260.096 10.24-467.968 224.256-467.968 486.4 0 0 0 0 0 0zM417.792 840.192c0-5.12 0-10.24 0-15.36 0-207.872 158.72-376.832 363.52-391.168l3.072-31.744c-221.184 13.312-397.312 198.656-397.312 421.888 0 5.12 0 10.24 1.024 15.36h29.696zM606.208 840.192c0-5.12-1.024-10.24-1.024-15.36 0-95.232 65.536-177.152 157.696-198.656l3.072-32.768c-110.592 20.48-191.488 116.736-191.488 231.424 0 5.12 0 10.24 1.024 15.36h30.72zM770.048 560.64l3.072-31.744c-148.48 18.432-261.12 144.384-261.12 294.912 0 5.12 0 10.24 0 15.36h31.744c0-5.12 0-10.24 0-15.36 0-133.12 96.256-243.712 226.304-263.168zM776.192 497.152l3.072-31.744c-186.368 15.36-329.728 169.984-329.728 359.424 0 5.12 0 10.24 0 15.36h31.744c0-5.12 0-10.24 0-15.36-1.024-169.984 128-311.296 294.912-327.68zM751.616 744.96l1.024-14.336c-32.768 19.456-53.248 54.272-53.248 94.208 0 0 0 0 0 1.024 28.672-18.432 49.152-47.104 52.224-80.896zM647.168 840.192c7.168 0 14.336-1.024 21.504-3.072 0-4.096-1.024-9.216-1.024-13.312 0-58.368 34.816-109.568 88.064-131.072l3.072-33.792c-72.704 21.504-122.88 88.064-122.88 164.864 0 5.12 0 10.24 1.024 15.36h10.24zM433.152 902.656h156.672v-31.744h-156.672v31.744zM292.864 797.184c14.336-267.264 232.448-481.28 500.736-489.472l3.072-31.744c-260.096 6.144-480.256 192.512-526.336 449.536l2.048 19.456c1.024 19.456 9.216 37.888 20.48 52.224zM282.624 57.856c126.976 8.192 243.712 62.464 332.8 153.6 11.264-3.072 22.528-7.168 33.792-10.24-60.416-65.536-136.192-115.712-220.16-145.408h-131.072c-5.12 0-10.24 1.024-15.36 2.048zM668.672 25.088v-31.744h-313.344v31.744h313.344zM788.48 83.456c-15.36-17.408-37.888-26.624-62.464-26.624h-1.024c30.72 28.672 59.392 59.392 83.968 93.184v-1.024c3.072-25.6-5.12-48.128-20.48-65.536z" />
<glyph unicode="&#xe90a;" glyph-name="checked" d="M875.52 585.216c-9.216 0-16.384-7.168-16.384-16.384v-516.096h-790.528v790.528h790.528v-16.384c0-9.216 7.168-16.384 16.384-16.384s16.384 7.168 16.384 16.384v49.152h-856.064v-855.040h855.040v547.84c0 9.216-7.168 16.384-15.36 16.384zM983.040 806.4c-6.144 6.144-16.384 6.144-22.528 0l-488.448-488.448-210.944 210.944c-6.144 6.144-16.384 6.144-22.528 0s-6.144-16.384 0-22.528l222.208-222.208c3.072-3.072 7.168-5.12 11.264-5.12s8.192 2.048 11.264 5.12l499.712 499.712c7.168 6.144 7.168 16.384 0 22.528z" />
<glyph unicode="&#xe90b;" glyph-name="chat" d="M942.080 701.952v0c-46.080 56.32-105.472 99.328-182.272 131.072-73.728 30.72-154.624 46.080-248.832 46.080-65.536 0-130.048-9.216-191.488-27.648s-114.688-44.032-158.72-75.776c-43.008-29.696-77.824-66.56-109.568-114.688v-1.024c-27.648-47.104-40.96-95.232-40.96-145.408 0-57.344 17.408-112.64 52.224-162.816 29.696-44.032 70.656-81.92 121.856-113.664-3.072-7.168-5.12-13.312-7.168-19.456-4.096-9.216-7.168-16.384-11.264-23.552l-2.048-5.12c-3.072-6.144-8.192-14.336-14.336-22.528l-1.024-1.024c-6.144-9.216-11.264-15.36-13.312-17.408s-4.096-4.096-7.168-7.168c-3.072-3.072-7.168-7.168-11.264-12.288-6.144-6.144-13.312-14.336-18.432-20.48-1.024-1.024-2.048-3.072-3.072-4.096l-10.24-5.12v-14.336c-3.072-3.072-3.072-7.168-3.072-10.24-2.048-7.168-2.048-13.312 0-18.432 2.048-13.312 9.216-23.552 19.456-30.72 11.264-9.216 23.552-10.24 30.72-10.24h4.096c24.576 3.072 46.080 8.192 63.488 13.312 91.136 23.552 174.080 66.56 245.76 126.976 21.504-2.048 44.032-3.072 68.608-3.072 88.064 0 172.032 15.36 247.808 47.104 75.776 30.72 137.216 74.752 182.272 131.072 46.080 56.32 69.632 118.784 69.632 186.368-2.048 65.536-25.6 126.976-71.68 184.32zM904.192 364.032c-39.936-49.152-94.208-89.088-161.792-116.736-69.632-28.672-147.456-43.008-229.376-43.008-26.624 0-51.2 1.024-73.728 4.096l-11.264 1.024-9.216-7.168c-68.608-60.416-144.384-100.352-234.496-123.904-15.36-4.096-32.768-8.192-53.248-11.264 0 0 0 0 0 0l3.072 4.096v3.072c0 1.024 1.024 1.024 1.024 1.024s0 0 0 0l3.072 4.096c1.024 1.024 5.12 6.144 13.312 14.336 5.12 5.12 9.216 10.24 13.312 13.312 2.048 2.048 4.096 4.096 5.12 6.144 5.12 5.12 12.288 14.336 18.432 23.552 8.192 11.264 15.36 21.504 19.456 30.72l2.048 5.12c4.096 7.168 8.192 16.384 12.288 27.648s10.24 25.6 15.36 43.008l5.12 19.456-17.408 10.24c-52.224 29.696-93.184 66.56-122.88 109.568-26.624 40.96-40.96 84.992-40.96 132.096 0 39.936 11.264 79.872 33.792 118.784 27.648 41.984 58.368 74.752 95.232 100.352 39.936 28.672 88.064 52.224 143.36 68.608 57.344 17.408 116.736 25.6 177.152 25.6 87.040 0 161.792-13.312 228.352-41.984 68.608-28.672 120.832-66.56 161.792-116.736 37.888-47.104 57.344-98.304 58.368-151.552 2.048-56.32-16.384-106.496-55.296-153.6z" />
<glyph unicode="&#xe90c;" glyph-name="trash" d="M637.952 845.312l-2.048 2.048c-6.144 8.192-13.312 12.288-21.504 14.336l-2.048 1.024h-199.68l-3.072-1.024c-9.216-2.048-15.36-7.168-21.504-14.336l-1.024-2.048-44.032-102.4h336.896l-41.984 102.4zM952.32 773.632c-5.12 4.096-13.312 9.216-26.624 9.216h-177.152l-37.888 89.088c-8.192 20.48-21.504 36.864-39.936 48.128-19.456 13.312-39.936 20.48-60.416 20.48h-196.608c-22.528 0-43.008-7.168-61.44-20.48-19.456-14.336-32.768-29.696-39.936-47.104l-37.888-90.112h-176.128c-8.192 0-19.456-1.024-28.672-11.264l-2.048-2.048c-4.096-5.12-9.216-13.312-9.216-26.624v-38.912c0-11.264 4.096-21.504 11.264-28.672l2.048-2.048c5.12-4.096 13.312-9.216 26.624-9.216h38.912v-565.248c0-39.936 11.264-73.728 33.792-100.352 23.552-28.672 53.248-43.008 84.992-43.008h512c33.792 0 62.464 15.36 86.016 45.056 21.504 27.648 32.768 61.44 32.768 100.352v563.2h38.912c8.192 0 19.456 1.024 28.672 11.264l2.048 2.048c4.096 5.12 9.216 13.312 9.216 26.624v39.936c0 16.384-7.168 25.6-13.312 29.696zM924.672 705.024h-78.848v-604.16c0-29.696-8.192-55.296-24.576-75.776-15.36-19.456-32.768-28.672-53.248-28.672h-512c-20.48 0-37.888 9.216-54.272 28.672s-23.552 44.032-23.552 73.728v606.208h-78.848v36.864h202.752l49.152 115.712c4.096 10.24 12.288 20.48 25.6 29.696 11.264 8.192 23.552 12.288 36.864 12.288h196.608c12.288 0 24.576-4.096 37.888-13.312 11.264-7.168 19.456-16.384 24.576-29.696l48.128-114.688h202.752l1.024-36.864zM362.496 124.416h-15.36c-22.528 0-40.96 18.432-40.96 40.96v419.84c0 22.528 18.432 40.96 40.96 40.96h15.36c22.528 0 40.96-18.432 40.96-40.96v-419.84c0-22.528-18.432-40.96-40.96-40.96zM520.192 124.416h-15.36c-22.528 0-40.96 18.432-40.96 40.96v419.84c0 22.528 18.432 40.96 40.96 40.96h15.36c22.528 0 40.96-18.432 40.96-40.96v-419.84c0-22.528-18.432-40.96-40.96-40.96zM677.888 124.416h-15.36c-22.528 0-40.96 18.432-40.96 40.96v419.84c0 22.528 18.432 40.96 40.96 40.96h15.36c22.528 0 40.96-18.432 40.96-40.96v-419.84c0-22.528-18.432-40.96-40.96-40.96z" />
<glyph unicode="&#xe90d;" glyph-name="scroll" d="M952.32 169.472h-109.568c-9.216 72.704-8.192 173.056-8.192 269.312 0 28.672 0 58.368 0 88.064 7.168 6.144 13.312 12.288 19.456 19.456 23.552 23.552 45.056 49.152 64.512 75.776 8.192 11.264 5.12 25.6-6.144 33.792s-25.6 5.12-33.792-6.144c-17.408-24.576-36.864-48.128-58.368-69.632-17.408-17.408-35.84-33.792-55.296-48.128-35.84-27.648-73.728-48.128-110.592-62.464l218.112 218.112c9.216 9.216 9.216 24.576 0 33.792s-24.576 9.216-33.792 0l-217.088-217.088c14.336 36.864 34.816 74.752 63.488 110.592v0c31.744 40.96 68.608 77.824 110.592 108.544 49.152 35.84 102.4 61.44 151.552 71.68-7.168-31.744-19.456-65.536-37.888-99.328-3.072-6.144-4.096-12.288-2.048-18.432s6.144-11.264 11.264-14.336v0c11.264-6.144 26.624-2.048 32.768 9.216 27.648 51.2 45.056 102.4 49.152 149.504 1.024 7.168-2.048 14.336-7.168 19.456-6.144 4.096-13.312 6.144-20.48 6.144-50.176-4.096-105.472-23.552-160.768-55.296-6.144 19.456-12.288 34.816-20.48 48.128-16.384 25.6-38.912 37.888-65.536 37.888h-609.28c-31.744 0-56.32-10.24-72.704-31.744-30.72-39.936-15.36-100.352-14.336-102.4 3.072-10.24 12.288-18.432 23.552-18.432h113.664c11.264-77.824 10.24-188.416 10.24-286.72 0-53.248-1.024-107.52 1.024-157.696 0-13.312 11.264-23.552 24.576-23.552 6.144 0 12.288 3.072 17.408 7.168 4.096 5.12 7.168 11.264 6.144 17.408-1.024 51.2-1.024 105.472-1.024 157.696 1.024 125.952 1.024 245.76-16.384 327.68-2.048 8.192-4.096 16.384-6.144 23.552-4.096 15.36-9.216 27.648-15.36 38.912h538.624c18.432 0 32.768-22.528 43.008-65.536-13.312-9.216-26.624-20.48-38.912-30.72-31.744-27.648-60.416-57.344-84.992-90.112h-366.592c-13.312 0-24.576-11.264-24.576-24.576s11.264-24.576 24.576-24.576h333.824c-5.12-9.216-10.24-18.432-15.36-27.648h-318.464c-13.312 0-24.576-11.264-24.576-24.576s11.264-24.576 24.576-24.576h296.96c-3.072-9.216-6.144-18.432-9.216-27.648h-287.744c-13.312 0-24.576-11.264-24.576-24.576s11.264-24.576 24.576-24.576h276.48c0-2.048 0-3.072-1.024-5.12l-40.96-40.96c-4.096-4.096-7.168-10.24-7.168-17.408 0-6.144 2.048-12.288 7.168-17.408 9.216-9.216 24.576-9.216 33.792 0l40.96 40.96c23.552 3.072 49.152 9.216 74.752 17.408 24.576 9.216 50.176 20.48 74.752 34.816 16.384 9.216 32.768 20.48 48.128 31.744 0-16.384 0-31.744 0-48.128-1.024-95.232-1.024-194.56 8.192-269.312h-450.56c-7.168 0-14.336-3.072-18.432-9.216-5.12-6.144-6.144-13.312-5.12-20.48v-1.024c3.072-13.312 6.144-44.032-5.12-60.416-8.192-11.264-25.6-13.312-34.816-13.312-15.36 0-41.984 21.504-50.176 161.792-1.024 13.312-12.288 23.552-25.6 22.528s-23.552-12.288-22.528-25.6c6.144-97.28 22.528-207.872 99.328-207.872h609.28c31.744 0 56.32 10.24 72.704 31.744 30.72 39.936 15.36 100.352 14.336 102.4-4.096 14.336-13.312 21.504-24.576 21.504zM888.832 66.048h-527.36c8.192 18.432 9.216 37.888 9.216 55.296h561.152c1.024-12.288 0-30.72-8.192-43.008-7.168-8.192-18.432-12.288-34.816-12.288zM115.712 829.952l8.192-1.024c13.312-4.096 25.6-22.528 33.792-54.272h-83.968c0 2.048 0 4.096 0 6.144 0 11.264 1.024 26.624 9.216 35.84 6.144 9.216 16.384 13.312 32.768 13.312z" />
<glyph unicode="&#xe90e;" glyph-name="plane" d="M910.336 551.424h-244.736l-232.448 385.024h-132.096l115.712-386.048h-218.112l-69.632 96.256h-105.472l52.224-188.416-52.224-189.44h107.52l69.632 96.256h218.112l-116.736-385.024h132.096l231.424 386.048h244.736c49.152 0 90.112 41.984 90.112 92.16 0 49.152-41.984 93.184-90.112 93.184zM910.336 407.040h-267.264l-231.424-386.048h-54.272l115.712 385.024h-293.888l-69.632-96.256h-32.768l40.96 148.48-40.96 147.456h30.72l69.632-96.256h293.888l-114.688 386.048h54.272l232.448-385.024h267.264c25.6 0 49.152-24.576 49.152-52.224s-22.528-51.2-49.152-51.2z" />
<glyph unicode="&#xe90f;" glyph-name="payments" d="M543.744 292.352h253.952c12.288 0 20.48 8.192 20.48 21.504v143.36c0 12.288-8.192 21.504-20.48 21.504h-253.952c-12.288 0-21.504-8.192-21.504-21.504v-143.36c0-13.312 9.216-21.504 21.504-21.504zM564.224 334.336v101.376h211.968v-101.376h-211.968zM977.92 672.256c-12.288 15.36-27.648 23.552-46.080 25.6l-33.792 4.096v71.68c0 37.888-30.72 68.608-68.608 68.608h-730.112c-37.888 0-68.608-30.72-68.608-68.608v-507.904c0-28.672 18.432-55.296 45.056-64.512 1.024-33.792 26.624-61.44 60.416-64.512l740.352-82.944c34.816 0 65.536 26.624 68.608 58.368l48.128 509.952c2.048 18.432-4.096 36.864-15.36 50.176zM829.44 197.12c37.888 0 68.608 30.72 68.608 68.608v396.288l31.744-3.072c6.144 0 12.288-4.096 16.384-9.216 4.096-6.144 6.144-14.336 5.12-19.456l-48.128-509.952c-1.024-7.168-4.096-13.312-9.216-18.432-5.12-4.096-12.288-7.168-19.456-6.144l-732.16 82.944c-11.264 1.024-19.456 8.192-22.528 18.432h709.632zM856.064 762.368h-783.36v11.264c0 14.336 12.288 26.624 26.624 26.624h730.112c14.336 0 26.624-12.288 26.624-26.624v-11.264zM72.704 635.392v84.992h783.36v-84.992h-783.36zM72.704 593.408h783.36v-328.704c0-14.336-12.288-26.624-26.624-26.624h-730.112c-14.336 0-26.624 12.288-26.624 26.624v328.704z" />
<glyph unicode="&#xe910;" glyph-name="faq" d="M918.528 696.832c-44.032 74.752-103.424 134.144-178.176 178.176-75.776 44.032-157.696 65.536-244.736 65.536-90.112 0-169.984-21.504-244.736-65.536s-134.144-103.424-178.176-178.176c-44.032-75.776-65.536-157.696-65.536-244.736 0-89.088 22.528-171.008 65.536-244.736 45.056-75.776 103.424-134.144 178.176-178.176 73.728-44.032 156.672-65.536 244.736-65.536s171.008 22.528 244.736 65.536c75.776 45.056 134.144 103.424 178.176 178.176 44.032 73.728 65.536 156.672 65.536 244.736 0 87.040-21.504 168.96-65.536 244.736zM874.496 232.96c-38.912-66.56-91.136-118.784-159.744-159.744-65.536-38.912-139.264-58.368-219.136-58.368s-152.576 19.456-219.136 58.368c-66.56 38.912-118.784 91.136-159.744 159.744-38.912 66.56-58.368 140.288-58.368 219.136 0 77.824 19.456 151.552 58.368 219.136 38.912 66.56 93.184 120.832 159.744 159.744 67.584 38.912 138.24 58.368 219.136 58.368 78.848 0 150.528-19.456 219.136-58.368 66.56-38.912 120.832-93.184 159.744-159.744 39.936-68.608 58.368-140.288 58.368-219.136s-19.456-152.576-58.368-219.136zM506.88 244.224c-19.456 0-34.816-6.144-48.128-19.456-13.312-12.288-19.456-28.672-19.456-47.104 0-21.504 7.168-37.888 20.48-49.152s29.696-17.408 47.104-17.408c17.408 0 32.768 6.144 46.080 17.408 13.312 12.288 20.48 28.672 20.48 49.152 0 18.432-6.144 34.816-19.456 47.104-13.312 13.312-28.672 19.456-47.104 19.456zM630.784 761.344c-32.768 15.36-70.656 23.552-113.664 23.552-46.080 0-87.040-9.216-121.856-28.672s-61.44-43.008-78.848-71.68c-18.432-28.672-27.648-57.344-27.648-86.016 0-13.312 6.144-26.624 17.408-37.888s25.6-17.408 41.984-17.408c28.672 0 47.104 16.384 57.344 50.176 10.24 31.744 23.552 56.32 38.912 72.704s39.936 24.576 71.68 24.576c27.648 0 50.176-8.192 68.608-24.576 17.408-16.384 26.624-35.84 26.624-60.416 0-12.288-3.072-23.552-8.192-33.792-6.144-10.24-13.312-19.456-21.504-28.672-8.192-8.192-22.528-20.48-40.96-37.888-21.504-19.456-38.912-35.84-51.2-49.152s-22.528-29.696-30.72-48.128c-8.192-18.432-11.264-39.936-11.264-64.512 0-19.456 5.12-34.816 15.36-45.056s23.552-15.36 38.912-15.36c29.696 0 47.104 15.36 53.248 46.080 3.072 14.336 6.144 24.576 7.168 30.72 2.048 6.144 4.096 11.264 7.168 17.408s7.168 12.288 13.312 19.456c6.144 7.168 14.336 15.36 24.576 24.576 36.864 32.768 61.44 56.32 75.776 69.632s26.624 29.696 36.864 49.152c10.24 19.456 15.36 40.96 15.36 66.56 0 31.744-9.216 61.44-26.624 89.088-19.456 27.648-44.032 49.152-77.824 65.536z" />
<glyph unicode="&#xe911;" glyph-name="user" d="M881.664 231.936c-3.072 26.624-8.192 56.32-17.408 88.064-9.216 30.72-20.48 57.344-34.816 77.824-14.336 22.528-34.816 41.984-59.392 56.32s-53.248 21.504-84.992 21.504h-8.192l-5.12-7.168c-44.032-43.008-97.28-64.512-159.744-64.512-60.416 0-114.688 21.504-160.768 65.536l-6.144 5.12h-7.168c-31.744 0-60.416-7.168-84.992-21.504-22.528-13.312-43.008-31.744-59.392-56.32-15.36-23.552-26.624-50.176-34.816-77.824-7.168-26.624-13.312-55.296-17.408-88.064-3.072-31.744-4.096-61.44-4.096-90.112 0-45.056 13.312-84.992 39.936-116.736 27.648-33.792 60.416-50.176 99.328-50.176h473.088c38.912 0 71.68 17.408 99.328 50.176 26.624 32.768 39.936 71.68 39.936 116.736-2.048 31.744-4.096 62.464-7.168 91.136zM816.128 49.664c-19.456-23.552-40.96-35.84-67.584-35.84h-473.088c-25.6 0-48.128 11.264-67.584 35.84-20.48 24.576-30.72 55.296-30.72 91.136 0 27.648 1.024 56.32 4.096 86.016 4.096 29.696 9.216 56.32 16.384 80.896s16.384 47.104 29.696 66.56c12.288 18.432 27.648 32.768 45.056 43.008 16.384 9.216 34.816 14.336 56.32 15.36 52.224-47.104 113.664-70.656 182.272-70.656 69.632 0 131.072 23.552 181.248 70.656 21.504-1.024 39.936-6.144 56.32-15.36 18.432-11.264 33.792-25.6 45.056-43.008s21.504-39.936 29.696-66.56c8.192-29.696 14.336-56.32 16.384-80.896v-1.024c3.072-26.624 5.12-55.296 5.12-86.016 1.024-34.816-9.216-65.536-28.672-90.112zM512 456.192c62.464 0 118.784 23.552 164.864 68.608s68.608 100.352 68.608 164.864c0 62.464-23.552 118.784-68.608 164.864-44.032 46.080-100.352 68.608-164.864 68.608-62.464 0-118.784-23.552-164.864-68.608s-68.608-100.352-68.608-164.864c0-62.464 23.552-118.784 68.608-164.864 44.032-45.056 100.352-68.608 164.864-68.608zM375.808 825.856c38.912 37.888 83.968 56.32 136.192 56.32 54.272 0 98.304-18.432 136.192-56.32 37.888-38.912 56.32-83.968 56.32-136.192 0-54.272-18.432-98.304-56.32-136.192-38.912-37.888-83.968-56.32-136.192-56.32-54.272 0-98.304 18.432-136.192 56.32-37.888 38.912-56.32 83.968-56.32 136.192 0 54.272 18.432 98.304 56.32 136.192z" />
<glyph unicode="&#xe912;" glyph-name="phone" d="M726.016 936.448h-428.032c-33.792 0-61.44-27.648-61.44-61.44v-854.016c0-33.792 27.648-61.44 61.44-61.44h427.008c33.792 0 61.44 27.648 61.44 61.44v854.016c1.024 33.792-26.624 61.44-60.416 61.44zM297.984 895.488h427.008c11.264 0 20.48-9.216 20.48-20.48v-61.44h-467.968v61.44c0 11.264 9.216 20.48 20.48 20.48zM746.496 772.608v-604.16h-468.992v604.16h468.992zM726.016 0.512h-428.032c-11.264 0-20.48 9.216-20.48 20.48v106.496h467.968v-106.496c1.024-11.264-8.192-20.48-19.456-20.48zM513.024 103.936c-22.528 0-39.936-17.408-39.936-39.936s17.408-39.936 39.936-39.936 39.936 17.408 39.936 39.936c0 22.528-18.432 39.936-39.936 39.936z" />
<glyph unicode="&#xe913;" glyph-name="dollar" d="M512 943.616c-273.408 0-495.616-222.208-495.616-495.616s222.208-495.616 495.616-495.616 495.616 222.208 495.616 495.616-222.208 495.616-495.616 495.616zM512-1.536c-247.808 0-449.536 201.728-449.536 449.536s201.728 449.536 449.536 449.536 449.536-201.728 449.536-449.536-201.728-449.536-449.536-449.536zM566.272 476.672l-93.184 21.504c-54.272 13.312-80.896 37.888-80.896 74.752 0 26.624 10.24 47.104 31.744 61.44s45.056 21.504 72.704 21.504c27.648 0 53.248-7.168 77.824-22.528s39.936-36.864 46.080-66.56l56.32 16.384c-24.576 69.632-71.68 109.568-141.312 119.808v75.776h-50.176v-73.728c-43.008-2.048-79.872-14.336-107.52-36.864-31.744-24.576-47.104-58.368-47.104-99.328 0-25.6 6.144-47.104 17.408-66.56s25.6-33.792 41.984-43.008c16.384-9.216 37.888-17.408 63.488-23.552l99.328-24.576c19.456-5.12 37.888-13.312 52.224-26.624 15.36-13.312 22.528-29.696 22.528-51.2 0-27.648-10.24-50.176-29.696-67.584-19.456-16.384-49.152-24.576-89.088-24.576-75.776 0-123.904 33.792-147.456 101.376l-54.272-11.264c30.72-87.040 90.112-134.144 180.224-141.312v-66.56h50.176v66.56c46.080 4.096 81.92 17.408 109.568 41.984 31.744 28.672 48.128 64.512 48.128 107.52-1.024 70.656-43.008 116.736-129.024 137.216z" />
<glyph unicode="&#xe914;" glyph-name="heart" d="M512-41.472c-15.36 0-27.648 5.12-39.936 15.36l-1.024 1.024-327.68 316.416c-1.024 1.024-3.072 2.048-4.096 4.096-3.072 3.072-6.144 6.144-10.24 10.24-7.168 7.168-16.384 18.432-30.72 37.888-14.336 18.432-26.624 34.816-37.888 54.272-12.288 21.504-23.552 45.056-30.72 69.632-9.216 24.576-14.336 52.224-14.336 77.824 0 82.944 24.576 150.528 73.728 199.68 48.128 48.128 116.736 72.704 202.752 72.704 23.552 0 48.128-4.096 74.752-12.288 25.6-8.192 49.152-19.456 70.656-33.792 20.48-13.312 38.912-26.624 51.2-36.864 8.192-6.144 16.384-13.312 24.576-20.48 8.192 7.168 16.384 14.336 24.576 20.48 13.312 10.24 30.72 23.552 52.224 36.864 20.48 13.312 43.008 24.576 68.608 32.768 23.552 8.192 49.152 13.312 75.776 13.312 86.016 0 153.6-24.576 202.752-72.704v0c49.152-49.152 73.728-115.712 73.728-199.68 0-84.992-43.008-171.008-128-254.976l-327.68-315.392c-13.312-11.264-27.648-16.384-43.008-16.384zM505.856 12.8c3.072-2.048 4.096-3.072 6.144-3.072s3.072 0 4.096 2.048l327.68 315.392c74.752 73.728 112.64 147.456 112.64 218.112 0 69.632-19.456 123.904-59.392 162.816-38.912 38.912-93.184 58.368-165.888 58.368-20.48 0-39.936-3.072-57.344-9.216-21.504-8.192-40.96-17.408-58.368-28.672-19.456-12.288-35.84-24.576-48.128-34.816-12.288-9.216-24.576-20.48-37.888-33.792l-17.408-17.408-18.432 18.432c-13.312 13.312-25.6 24.576-37.888 33.792s-28.672 21.504-48.128 34.816c-17.408 12.288-36.864 21.504-57.344 27.648-20.48 7.168-40.96 10.24-58.368 10.24-71.68 0-128-19.456-165.888-58.368-38.912-38.912-59.392-94.208-59.392-162.816 0-20.48 4.096-41.984 11.264-63.488s15.36-40.96 26.624-59.392c9.216-16.384 21.504-31.744 33.792-48.128s21.504-27.648 26.624-32.768c3.072-3.072 6.144-6.144 8.192-8.192s4.096-4.096 6.144-5.12l326.656-316.416z" />
<glyph unicode="&#xe915;" glyph-name="email" d="M543.744 901.632c-311.296 0-493.568-233.472-493.568-493.568 0-249.856 193.536-422.912 419.84-422.912 89.088 0 171.008 17.408 244.736 57.344l-21.504 47.104c-56.32-35.84-134.144-54.272-219.136-54.272-199.68 0-362.496 156.672-362.496 377.856 0 270.336 189.44 438.272 421.888 438.272 227.328 0 361.472-154.624 361.472-363.52 0-143.36-81.92-229.376-157.696-227.328-54.272 1.024-74.752 56.32-50.176 177.152l45.056 219.136c-40.96 17.408-87.040 28.672-150.528 28.672-172.032 0-321.536-133.12-321.536-307.2 0-102.4 74.752-168.96 149.504-168.96 102.4 0 165.888 48.128 214.016 131.072h5.12c-9.216-93.184 47.104-131.072 97.28-131.072 111.616 0 231.424 105.472 231.424 284.672-1.024 230.4-162.816 407.552-413.696 407.552zM637.952 473.6c-15.36-83.968-102.4-212.992-204.8-212.992-78.848 0-115.712 56.32-115.712 117.76 0 149.504 117.76 259.072 254.976 259.072 46.080 0 78.848-9.216 96.256-15.36l-30.72-148.48z" />
<glyph unicode="&#xe916;" glyph-name="truck" d="M1002.496 338.432l-146.432 226.304c-4.096 6.144-10.24 10.24-18.432 10.24h-156.672v92.16c0 11.264-9.216 21.504-21.504 21.504h-615.424c-11.264 0-21.504-9.216-21.504-21.504v-519.168c0-11.264 9.216-21.504 21.504-21.504h110.592c10.24-47.104 51.2-80.896 100.352-80.896s90.112 33.792 100.352 80.896h351.232c10.24-47.104 51.2-80.896 100.352-80.896s90.112 33.792 100.352 80.896h77.824c11.264 0 21.504 9.216 21.504 21.504v178.176c-1.024 4.096-2.048 8.192-4.096 12.288zM805.888 207.36c32.768 0 59.392-26.624 59.392-59.392s-26.624-59.392-59.392-59.392-59.392 26.624-59.392 59.392 26.624 59.392 59.392 59.392zM746.496 364.032v103.424h121.856l66.56-103.424h-188.416zM724.992 509.44c-11.264 0-21.504-9.216-21.504-21.504v-145.408c0-11.264 9.216-21.504 21.504-21.504h237.568l1.024-1.024v-150.528h-57.344c-10.24 47.104-51.2 80.896-100.352 80.896s-90.112-33.792-100.352-80.896h-24.576v362.496h145.408l14.336-22.528h-115.712zM254.976 207.36c32.768 0 59.392-26.624 59.392-59.392s-26.624-59.392-59.392-59.392c-32.768 0-59.392 26.624-59.392 59.392s26.624 59.392 59.392 59.392zM638.976 645.632v-476.16h-284.672c-10.24 47.104-51.2 80.896-100.352 80.896s-90.112-33.792-100.352-80.896h-88.064v476.16h573.44z" />
<glyph unicode="&#xe917;" glyph-name="padlock" d="M835.584 644.608h-51.2v24.576c0 150.528-122.88 272.384-272.384 272.384-150.528 0-272.384-122.88-272.384-272.384v-24.576h-51.2c-41.984 0-75.776-33.792-75.776-75.776v-539.648c0-41.984 33.792-75.776 75.776-75.776h647.168c41.984 0 75.776 33.792 75.776 75.776v539.648c0 41.984-33.792 75.776-75.776 75.776zM867.328 568.832v-539.648c0-17.408-14.336-31.744-31.744-31.744h-647.168c-17.408 0-31.744 14.336-31.744 31.744v539.648c0 16.384 13.312 30.72 29.696 31.744h648.192c18.432 0 32.768-14.336 32.768-31.744zM512 897.536c125.952 0 228.352-102.4 228.352-228.352v-24.576h-456.704v24.576c0 125.952 102.4 228.352 228.352 228.352zM512 478.72c-63.488 0-115.712-52.224-115.712-115.712 0-41.984 22.528-79.872 58.368-100.352v-84.992c0-31.744 25.6-57.344 57.344-57.344s58.368 25.6 58.368 57.344v84.992c35.84 20.48 58.368 58.368 58.368 100.352-1.024 63.488-53.248 115.712-116.736 115.712zM484.352 296.448c-26.624 11.264-44.032 36.864-44.032 65.536 0 38.912 31.744 71.68 71.68 71.68s71.68-31.744 71.68-71.68c0-28.672-17.408-55.296-44.032-65.536-8.192-3.072-13.312-11.264-13.312-20.48v-98.304c0-7.168-6.144-13.312-13.312-13.312s-13.312 6.144-13.312 13.312v98.304c-1.024 9.216-6.144 17.408-15.36 20.48z" />
<glyph unicode="&#xe918;" glyph-name="gavel" d="M939.008 603.648c-22.528 22.528-56.32 25.6-81.92 9.216l-185.344 185.344c15.36 25.6 12.288 59.392-9.216 81.92-25.6 25.6-68.608 25.6-94.208 0l-217.088-217.088c-25.6-25.6-25.6-68.608 0-94.208 13.312-13.312 29.696-19.456 47.104-19.456 12.288 0 23.552 3.072 34.816 9.216l59.392-59.392-405.504-368.64c-24.576-22.528-26.624-60.416-4.096-86.016l26.624-29.696c11.264-12.288 27.648-20.48 44.032-20.48 0 0 1.024 0 1.024 0 16.384 0 31.744 6.144 44.032 18.432l385.024 396.288 34.816-34.816c-15.36-25.6-12.288-59.392 10.24-81.92 13.312-13.312 29.696-19.456 47.104-19.456s33.792 6.144 47.104 19.456l216.064 217.088c25.6 25.6 25.6 67.584 0 94.208zM380.928 598.528c-10.24 10.24-10.24 26.624 0 35.84l216.064 216.064c5.12 5.12 11.264 7.168 18.432 7.168 6.144 0 13.312-2.048 18.432-7.168 10.24-10.24 10.24-26.624 0-35.84l-31.744-31.744-201.728-191.488 1.024-1.024c-7.168 0-15.36 2.048-20.48 8.192zM168.96 42.496c-4.096-4.096-9.216-6.144-14.336-6.144-6.144 0-11.264 2.048-14.336 7.168l-26.624 29.696c-7.168 8.192-6.144 20.48 1.024 28.672l406.528 369.664 33.792-33.792-386.048-395.264zM523.264 527.872l-59.392 59.392 181.248 181.248 181.248-181.248-181.248-182.272-32.768 32.768-89.088 90.112zM909.312 538.112l-216.064-216.064c-10.24-10.24-26.624-10.24-35.84 0-10.24 10.24-10.24 26.624 0 35.84l216.064 216.064c5.12 5.12 11.264 7.168 18.432 7.168 6.144 0 13.312-2.048 18.432-7.168 9.216-9.216 9.216-25.6-1.024-35.84z" />
<glyph unicode="&#xe919;" glyph-name="close" d="M533.504 446.976l440.32 440.32c9.216 8.192 9.216 22.528 0 31.744v0c-9.216 9.216-22.528 9.216-31.744 0l-440.32-440.32-440.32 440.32c-9.216 9.216-23.552 9.216-31.744 0v0c-9.216-9.216-9.216-23.552-1.024-31.744l440.32-440.32-440.32-440.32c-8.192-9.216-8.192-23.552 0-32.768v0c9.216-9.216 22.528-9.216 31.744 0l440.32 440.32 440.32-440.32c9.216-9.216 22.528-9.216 31.744 0v0c9.216 9.216 9.216 22.528 0 31.744l-439.296 441.344z" />
<glyph unicode="&#xe91a;" glyph-name="envelope" d="M945.152 821.76h-866.304c-29.696 0-53.248-23.552-53.248-53.248v-642.048c0-29.696 23.552-53.248 53.248-53.248h866.304c29.696 0 53.248 23.552 53.248 53.248v642.048c0 29.696-23.552 53.248-53.248 53.248zM956.416 768.512v-642.048c0-6.144-5.12-11.264-11.264-11.264h-866.304c-6.144 0-11.264 5.12-11.264 11.264v642.048c0 6.144 5.12 11.264 11.264 11.264h866.304c6.144 0 11.264-5.12 11.264-11.264zM704.512 414.208c-5.12 6.144-13.312 8.192-20.48 6.144s-13.312-7.168-15.36-14.336 0-15.36 5.12-20.48l224.256-240.64c4.096-4.096 9.216-6.144 15.36-6.144 5.12 0 10.24 2.048 14.336 6.144 8.192 8.192 9.216 21.504 1.024 29.696l-224.256 239.616zM339.968 420.352c-7.168 2.048-15.36-1.024-20.48-6.144l-224.256-240.64c-5.12-5.12-7.168-13.312-5.12-20.48s8.192-13.312 15.36-14.336c1.024 0 3.072 0 5.12 0 6.144 0 11.264 2.048 15.36 7.168l224.256 240.64c5.12 5.12 7.168 13.312 5.12 20.48s-7.168 12.288-15.36 13.312zM914.432 758.272c-6.144 0-11.264-1.024-15.36-5.12l-369.664-311.296c-10.24-8.192-24.576-8.192-34.816 0l-369.664 311.296c-6.144 5.12-13.312 6.144-20.48 4.096-7.168-3.072-12.288-9.216-13.312-16.384s1.024-15.36 7.168-19.456l369.664-311.296c13.312-11.264 28.672-16.384 45.056-16.384 15.36 0 31.744 5.12 45.056 16.384l369.664 311.296c4.096 4.096 7.168 9.216 7.168 14.336s-1.024 11.264-5.12 15.36c-4.096 3.072-9.216 6.144-15.36 7.168z" />
<glyph unicode="&#xe91b;" glyph-name="unchecked" d="M934.912 25.088h-845.824v845.824h845.824v-845.824zM119.808 55.808h785.408v784.384h-785.408v-784.384z" />
<glyph unicode="&#xe91c;" glyph-name="update" d="M888.832 434.688c-1.024 0-1.024-1.024 0 0v0 0c-1.024-2.048-3.072-3.072-4.096-4.096 0 0-1.024-1.024-1.024-1.024-1.024-1.024-2.048-2.048-3.072-2.048 0 0-1.024-1.024-1.024-1.024-1.024-1.024-2.048-1.024-4.096-1.024 0 0-1.024 0-1.024 0-2.048 0-3.072-1.024-5.12-1.024s-4.096 0-6.144 1.024c0 0-1.024 0-1.024 0-2.048 0-3.072 1.024-4.096 2.048 0 0 0 0-1.024 0l-153.6 91.136c-11.264 7.168-15.36 21.504-8.192 33.792 7.168 11.264 22.528 15.36 33.792 8.192l113.664-67.584c-22.528 189.44-183.296 335.872-377.856 335.872-212.992 0-384-171.008-384-380.928s171.008-380.928 380.928-380.928c134.144 0 260.096 71.68 328.704 188.416 7.168 11.264 21.504 15.36 33.792 8.192 11.264-7.168 15.36-21.504 8.192-33.792-76.8-131.072-218.112-211.968-369.664-211.968-237.568 0-430.080 192.512-430.080 430.080s192.512 430.080 429.056 430.080c214.016 0 391.168-156.672 424.96-360.448l60.416 87.040c8.192 11.264 23.552 14.336 33.792 6.144 11.264-8.192 14.336-23.552 6.144-33.792l-98.304-142.336z" />
<glyph unicode="&#xe91d;" glyph-name="menu" d="M971.776 56.832h-919.552c-10.24 0-17.408 8.192-17.408 17.408v8.192c0 10.24 8.192 17.408 17.408 17.408h918.528c10.24 0 17.408-8.192 17.408-17.408v-8.192c1.024-9.216-7.168-17.408-16.384-17.408zM971.776 425.472h-919.552c-10.24 0-17.408 8.192-17.408 17.408v8.192c0 10.24 8.192 17.408 17.408 17.408h918.528c10.24 0 17.408-8.192 17.408-17.408v-8.192c1.024-9.216-7.168-17.408-16.384-17.408zM971.776 794.112h-919.552c-10.24 0-17.408 8.192-17.408 17.408v8.192c0 10.24 8.192 17.408 17.408 17.408h918.528c10.24 0 17.408-8.192 17.408-17.408v-8.192c1.024-9.216-7.168-17.408-16.384-17.408z" />
<glyph unicode="&#xe91e;" glyph-name="allergen-free" d="M708.608 754.176l4.096-2.048-74.752-130.048-28.672 16.384 74.752 130.048 4.096-3.072c-21.504 16.384-35.84 43.008-35.84 71.68 0 50.176 40.96 90.112 90.112 90.112 50.176 0 90.112-40.96 90.112-90.112 0-50.176-40.96-90.112-90.112-90.112-11.264 1.024-22.528 3.072-33.792 7.168zM909.312 512.512c-44.032 0-80.896-31.744-89.088-73.728h-104.448v-32.768h104.448c8.192-41.984 45.056-73.728 89.088-73.728 50.176 0 90.112 40.96 90.112 90.112s-40.96 90.112-90.112 90.112zM607.232 166.4c-1.024 0-2.048 0-4.096 0l-24.576 97.28-31.744-8.192 24.576-97.28c-31.744-14.336-54.272-46.080-54.272-82.944 0-50.176 40.96-90.112 90.112-90.112s90.112 40.96 90.112 90.112-39.936 91.136-90.112 91.136zM318.464 412.16l-129.024-46.080c-15.36 26.624-45.056 45.056-78.848 45.056-50.176 0-90.112-40.96-90.112-90.112s40.96-90.112 90.112-90.112c50.176 0 90.112 40.96 90.112 90.112 0 5.12 0 9.216-1.024 14.336l129.024 47.104-10.24 29.696zM330.752 658.944c10.24 14.336 16.384 31.744 16.384 51.2 0 50.176-40.96 90.112-90.112 90.112-50.176 0-90.112-40.96-90.112-90.112s40.96-90.112 90.112-90.112c19.456 0 36.864 6.144 51.2 16.384l53.248-53.248 23.552 23.552-54.272 52.224zM669.696 457.216c0 81.92-66.56 149.504-149.504 149.504s-149.504-66.56-149.504-149.504c0-81.92 66.56-149.504 149.504-149.504s149.504 66.56 149.504 149.504z" />
<glyph unicode="&#xe91f;" glyph-name="feather-free" d="M396.288 395.776c-117.76-126.976-186.368-223.232-235.52-332.8-3.072-6.144-9.216-10.24-15.36-10.24-2.048 0-5.12 0-7.168 1.024-8.192 4.096-12.288 14.336-9.216 22.528 51.2 113.664 120.832 212.992 241.664 342.016v0c1.024 1.024 3.072 3.072 4.096 4.096 4.096 4.096 7.168 8.192 11.264 12.288 3.072 4.096 7.168 7.168 10.24 11.264l1.024 1.024c8.192 9.216 17.408 18.432 25.6 26.624 0 0 1.024-1.024 1.024-1.024 8.192-8.192 15.36-15.36 23.552-23.552-8.192-8.192-16.384-17.408-25.6-26.624l-1.024-1.024c-3.072-4.096-7.168-7.168-10.24-11.264-4.096-4.096-8.192-8.192-11.264-12.288 0 0 0 0 0 0 0 1.024-1.024 0-3.072-2.048v0c0 0 0 0 0 0zM211.968 292.352c9.216-1.024 18.432 6.144 19.456 15.36 10.24 89.088 46.080 178.176 102.4 257.024l-24.576 24.576c-61.44-83.968-100.352-180.224-111.616-277.504-2.048-10.24 4.096-18.432 14.336-19.456zM293.888 201.216c-9.216-2.048-15.36-11.264-13.312-20.48 2.048-8.192 9.216-13.312 16.384-13.312 1.024 0 3.072 0 4.096 0 130.048 29.696 223.232 65.536 301.056 113.664 4.096 3.072 8.192 5.12 12.288 8.192-8.192 8.192-17.408 16.384-25.6 24.576-83.968-54.272-183.296-87.040-294.912-112.64zM898.048 833.024c0 18.432-15.36 33.792-33.792 33.792 0 0 0 0 0 0-93.184 0-184.32-18.432-270.336-55.296-87.040-35.84-163.84-88.064-228.352-155.648-1.024-1.024-2.048-2.048-3.072-3.072 8.192-8.192 16.384-16.384 24.576-24.576 1.024 1.024 2.048 2.048 3.072 3.072 61.44 63.488 134.144 113.664 216.064 148.48s167.936 52.224 256 52.224c0-69.632-12.288-139.264-34.816-205.824l-95.232-54.272c0 0 0 0 0 0-7.168-4.096-11.264-11.264-11.264-19.456 0-12.288 10.24-22.528 22.528-22.528h41.984c-36.864-68.608-79.872-122.88-129.024-165.888 8.192-8.192 16.384-16.384 24.576-24.576 53.248 48.128 98.304 105.472 135.168 174.080 9.216 16.384 3.072 36.864-13.312 46.080-4.096 2.048-9.216 4.096-13.312 4.096l55.296 31.744c7.168 4.096 12.288 10.24 15.36 18.432 24.576 71.68 36.864 144.384 37.888 219.136 0 0 0 0 0 0zM995.328 441.856c-3.072-267.264-222.208-481.28-489.472-478.208-111.616 1.024-220.16 40.96-305.152 113.664 10.24 21.504 22.528 43.008 34.816 64.512 74.752-67.584 171.008-105.472 270.336-106.496 18.432 0 37.888 1.024 56.32 3.072 75.776 9.216 146.432 38.912 205.824 87.040 6.144 4.096 6.144 7.168 1.024 12.288-45.056 43.008-89.088 86.016-133.12 129.024-7.168 7.168-14.336 14.336-22.528 21.504-8.192 8.192-17.408 16.384-25.6 24.576-47.104 46.080-93.184 91.136-140.288 137.216-8.192 8.192-15.36 15.36-23.552 23.552 0 0-1.024 1.024-1.024 1.024-23.552 22.528-46.080 45.056-69.632 67.584 0 0 0 1.024 1.024 1.024-1.024 1.024-3.072 1.024-4.096 2.048l-43.008 43.008-107.52 106.496c-10.24 10.24-10.24 10.24-18.432-1.024 0 0-1.024-1.024-1.024-2.048-66.56-93.184-92.16-197.632-73.728-310.272 9.216-59.392 31.744-114.688 65.536-164.864-14.336-22.528-27.648-45.056-38.912-67.584-69.632 87.040-106.496 194.56-104.448 305.152 3.072 267.264 222.208 481.28 489.472 478.208 71.68-1.024 141.312-17.408 205.824-49.152-39.936-8.192-78.848-19.456-116.736-33.792-52.224 12.288-106.496 13.312-162.816 4.096-69.632-11.264-131.072-38.912-186.368-81.92-7.168-5.12-8.192-9.216-1.024-15.36 10.24-9.216 19.456-18.432 28.672-27.648 25.6-25.6 52.224-50.176 77.824-75.776 8.192-8.192 16.384-16.384 24.576-24.576 21.504-20.48 41.984-40.96 63.488-61.44 68.608-67.584 138.24-134.144 206.848-201.728 8.192-8.192 16.384-16.384 24.576-24.576 8.192-7.168 15.36-15.36 23.552-22.528 40.96-39.936 81.92-78.848 121.856-118.784 7.168-7.168 10.24-5.12 14.336 2.048 53.248 72.704 79.872 152.576 81.92 242.688 1.024 20.48-1.024 40.96-4.096 60.416-5.12 36.864-15.36 72.704-29.696 107.52 11.264 32.768 19.456 67.584 25.6 101.376 53.248-80.896 80.896-175.104 78.848-271.36z" />
<glyph unicode="&#xe920;" glyph-name="recycled" d="M914.432 667.136l-23.552 10.24c-103.424 193.536-339.968 280.576-545.792 193.536-16.384-7.168-31.744-14.336-47.104-23.552-9.216-5.12-20.48-2.048-25.6 7.168s-2.048 20.48 7.168 25.6c221.184 128 506.88 52.224 636.928-171.008 3.072-5.12 6.144-10.24 8.192-15.36l-10.24-26.624zM962.56 728.576c-12.288 4.096-25.6-1.024-29.696-13.312l-8.192-21.504-10.24-26.624-23.552 10.24-24.576 10.24c-12.288 5.12-25.6-1.024-30.72-12.288-5.12-12.288 1.024-25.6 12.288-30.72l69.632-28.672c3.072-1.024 6.144-2.048 9.216-2.048s6.144 1.024 9.216 2.048 10.24 7.168 12.288 13.312l26.624 70.656c6.144 10.24 0 24.576-12.288 28.672zM960.512 495.104c-10.24 0-19.456-8.192-19.456-18.432v-1.024c0 0 0 0 0 0 0-236.544-192.512-429.056-429.056-429.056-8.192 0-17.408 0-25.6 1.024l-21.504-14.336 16.384-22.528c10.24-1.024 21.504-1.024 31.744-1.024 0 0 0 0 0 0 258.048 0 466.944 208.896 466.944 466.944v1.024c-2.048 9.216-9.216 16.384-19.456 17.408zM486.4 47.616l21.504 14.336c11.264 7.168 13.312 21.504 7.168 32.768-7.168 11.264-21.504 13.312-32.768 7.168l-64.512-43.008c-5.12-3.072-9.216-9.216-10.24-15.36s0-12.288 4.096-17.408l43.008-61.44c4.096-6.144 12.288-10.24 19.456-10.24 5.12 0 9.216 1.024 13.312 4.096 10.24 7.168 13.312 21.504 6.144 32.768l-13.312 19.456-16.384 22.528 22.528 14.336zM297.984 103.936c-64.512 36.864-117.76 90.112-155.648 153.6-83.968 143.36-77.824 321.536 14.336 458.752l-6.144 23.552-28.672-8.192c-50.176-75.776-76.8-164.864-75.776-256 0-166.912 89.088-321.536 233.472-404.48 3.072-2.048 6.144-2.048 9.216-2.048v0c7.168 0 13.312 4.096 16.384 9.216 5.12 8.192 2.048 20.48-7.168 25.6zM156.672 716.288l7.168-26.624c3.072-10.24 12.288-17.408 22.528-17.408 2.048 0 4.096 0 6.144 1.024 12.288 3.072 19.456 16.384 16.384 28.672l-19.456 73.728c-2.048 6.144-6.144 11.264-11.264 14.336s-12.288 4.096-18.432 2.048l-72.704-21.504c-12.288-4.096-19.456-16.384-15.36-28.672s16.384-19.456 28.672-15.36l20.48 6.144 28.672 8.192 7.168-24.576zM662.528 632.32v-443.392c0-16.384-8.192-32.768-22.528-40.96-22.528-14.336-53.248-8.192-67.584 14.336-13.312-14.336-32.768-22.528-52.224-22.528h-8.192c-19.456 0-38.912 8.192-52.224 22.528-9.216-14.336-24.576-22.528-40.96-22.528-27.648 0-49.152 22.528-49.152 49.152v126.976c0 1.024 0 2.048 0 3.072v313.344c0 29.696 17.408 56.32 45.056 67.584l20.48 8.192c13.312 6.144 22.528 19.456 22.528 33.792v7.168c-10.24 5.12-16.384 14.336-16.384 25.6v45.056c0 15.36 13.312 28.672 28.672 28.672h92.16c15.36 0 28.672-13.312 28.672-28.672v-44.032c0-11.264-6.144-21.504-16.384-25.6v-7.168c0-15.36 9.216-28.672 22.528-33.792l20.48-9.216c27.648-11.264 45.056-37.888 45.056-67.584zM468.992 774.656c0 0 0 0 0 0 0-1.024 0-1.024 1.024-1.024h92.16c0 0 0 0 0 0 1.024 0 1.024 0 1.024 1.024v45.056c0 0 0 0 0 0 0 1.024 0 1.024-1.024 1.024h-92.16c-1.024 0-1.024 0-1.024-1.024v-45.056zM396.288 331.264h238.592v248.832h-141.312c0 0-1.024 0-1.024 0-7.168 0-13.312 7.168-13.312 14.336s7.168 13.312 14.336 13.312h141.312v24.576c0 18.432-11.264 34.816-27.648 41.984l-20.48 8.192c-24.576 10.24-39.936 33.792-39.936 59.392v4.096h-61.44v-4.096c0-25.6-15.36-49.152-39.936-59.392l-20.48-8.192c-16.384-7.168-27.648-23.552-27.648-41.984l-1.024-301.056zM613.376 167.424c12.288 0 21.504 9.216 21.504 21.504v114.688h-238.592v-113.664c0-11.264 9.216-20.48 20.48-20.48 12.288 0 21.504 9.216 22.528 20.48v22.528c0 0 0 1.024 0 1.024 0 7.168 7.168 13.312 14.336 13.312s13.312-7.168 13.312-14.336c0-24.576 19.456-44.032 44.032-44.032h8.192c24.576 0 44.032 19.456 44.032 44.032 0 7.168 6.144 14.336 14.336 14.336 7.168 0 14.336-6.144 14.336-14.336v-22.528c0-12.288 9.216-22.528 21.504-22.528v0zM575.488 485.888c11.264-13.312 16.384-30.72 16.384-48.128 0-41.984-33.792-75.776-75.776-76.8h-1.024c-17.408 0-33.792 6.144-47.104 16.384-32.768 26.624-37.888 74.752-11.264 107.52v0l43.008 55.296c1.024 1.024 2.048 2.048 3.072 3.072 9.216 7.168 21.504 5.12 28.672-3.072l44.032-54.272zM549.888 403.968c17.408 17.408 19.456 46.080 3.072 65.536 0 0-1.024 1.024-1.024 1.024l-36.864 47.104-36.864-48.128c0 0 0 0 0 0-15.36-19.456-14.336-47.104 3.072-64.512 18.432-19.456 49.152-20.48 68.608-1.024v0zM438.272 581.12c-7.168 0-14.336 6.144-14.336 13.312s6.144 13.312 13.312 13.312c7.168 0 14.336-6.144 14.336-13.312s-6.144-13.312-13.312-13.312z" />
<glyph unicode="&#xe921;" glyph-name="feather" d="M372.736 372.224c-140.288-151.552-222.208-267.264-280.576-398.336-3.072-7.168-11.264-12.288-18.432-12.288-3.072 0-6.144 1.024-8.192 2.048-10.24 5.12-15.36 16.384-10.24 27.648 60.416 136.192 144.384 253.952 288.768 408.576v0c1.024 2.048 3.072 3.072 5.12 5.12 4.096 5.12 9.216 9.216 13.312 14.336 4.096 4.096 8.192 9.216 12.288 13.312l1.024 1.024c15.36 16.384 31.744 32.768 47.104 48.128 8.192 8.192 21.504 8.192 28.672 0 8.192-8.192 8.192-21.504 0-28.672-15.36-15.36-30.72-30.72-46.080-48.128l-1.024-1.024c-4.096-4.096-8.192-9.216-12.288-13.312-5.12-5.12-9.216-10.24-13.312-14.336 0 0 0 0 0 0-2.048-1.024-4.096-2.048-6.144-4.096v0c1.024 0 1.024 0 0 0zM971.776 894.464c0 22.528-18.432 39.936-40.96 39.936 0 0 0 0 0 0-111.616 0-220.16-22.528-322.56-65.536s-194.56-106.496-271.36-186.368c-114.688-117.76-186.368-263.168-202.752-411.648-1.024-11.264 7.168-21.504 18.432-22.528s21.504 7.168 22.528 18.432c15.36 139.264 82.944 277.504 190.464 388.096 73.728 75.776 160.768 135.168 258.048 177.152 97.28 40.96 200.704 62.464 306.176 62.464 0-83.968-14.336-165.888-41.984-245.76l-113.664-64.512c0 0 0 0 0 0-8.192-5.12-13.312-13.312-13.312-22.528 0-14.336 12.288-26.624 26.624-26.624h50.176c-131.072-246.784-329.728-335.872-587.776-396.288-11.264-3.072-18.432-13.312-15.36-24.576 2.048-9.216 10.24-16.384 20.48-16.384 2.048 0 3.072 0 5.12 1.024 155.648 35.84 266.24 77.824 359.424 136.192 107.52 67.584 191.488 158.72 256 279.552 10.24 19.456 3.072 44.032-16.384 55.296-5.12 3.072-10.24 4.096-16.384 5.12l65.536 37.888c8.192 5.12 15.36 12.288 18.432 22.528 29.696 81.92 45.056 169.984 45.056 259.072 0-1.024 0-1.024 0 0z" />
<glyph unicode="&#xe922;" glyph-name="aed" d="M512.192 943.616c-273.408 0-495.616-222.208-495.616-495.616s222.208-495.616 495.616-495.616 495.616 222.208 495.616 495.616-222.208 495.616-495.616 495.616v0 0zM512.192-1.504c-247.808 0-449.504 201.696-449.504 449.504s201.696 449.504 449.504 449.504 449.504-201.696 449.504-449.504-201.696-449.504-449.504-449.504zM378.912 311.712l-55.008-11.008v424l55.008 11.008zM538.592 327.392c0-19.552-15.84-35.392-35.392-35.392s-35.392 15.84-35.392 35.392c0 19.552 15.84 35.392 35.392 35.392s35.392-15.84 35.392-35.392zM764.608 495.616c-4.704 8.192-9.696 15.904-14.496 22.816h-70.4c0.192-0.192 20.896-21.504 37.792-51.2 25.504-44.8 23.616-74.784 17.408-92.096-2.784-8-11.392-32.192-60.096-34.304-29.408-1.312-56.896 6.4-57.216 6.496l-15.2-52.8c1.312-0.384 30.912-8.8 65.792-8.8 2.496 0 4.992 0 7.488 0.096 56.096 2.016 95.488 27.2 111.008 70.912 14.496 40.704 6.912 88.704-22.112 138.912zM307.008 160.288l86.688 20.608v25.696c-26.592-3.904-46.496-1.408-56.192 7.008-4.992 4.288-7.392 10.208-7.392 18.208 0 23.392 23.808 25.6 28.512 25.792 13.792 0.608 26.592-7.104 26.688-7.2l6.496 10.688 6.592 10.592c-1.888 1.216-19.616 11.712-40.896 10.912-25.312-1.088-52.512-17.408-52.512-50.688 0-15.2 5.504-28 16-37.088 1.696-1.408 3.392-2.784 5.312-4l-19.296-4.8v-25.696z" />
<glyph unicode="&#xe923;" glyph-name="book1" d="M742.4 38.4h-512c-14.144 0-25.6 11.456-25.6 25.6s11.456 25.6 25.6 25.6h512c14.144 0 25.6-11.456 25.6-25.6s-11.456-25.6-25.6-25.6zM844.8 806.4c-14.144 0-25.6-11.456-25.6-25.6v-768c0-14.112-11.488-25.6-25.6-25.6h-563.2c-42.336 0-76.8 34.464-76.8 76.8s34.464 76.8 76.8 76.8h460.8c42.336 0 76.8 34.464 76.8 76.8v614.4c0 42.336-34.464 76.8-76.8 76.8h-512c-42.336 0-76.8-34.464-76.8-76.8v-768c0-70.592 57.408-128 128-128h563.2c42.336 0 76.8 34.464 76.8 76.8v768c0 14.144-11.456 25.6-25.6 25.6zM179.2 857.6h512c14.112 0 25.6-11.488 25.6-25.6v-614.4c0-14.112-11.488-25.6-25.6-25.6h-460.8c-28.8 0-55.392-9.568-76.8-25.664v665.664c0 14.112 11.488 25.6 25.6 25.6z" />
<glyph unicode="&#xe924;" glyph-name="chf" d="M512.192 943.616c-273.408 0-495.616-222.208-495.616-495.616s222.208-495.616 495.616-495.616 495.616 222.208 495.616 495.616-222.208 495.616-495.616 495.616v0 0zM512.192-1.504c-247.808 0-449.504 201.696-449.504 449.504s201.696 449.504 449.504 449.504 449.504-201.696 449.504-449.504-201.696-449.504-449.504-449.504zM696.192 667.808l11.008 55.008h-341.504v-381.088h-48.896v-44.992h48.896v-123.488h55.008v123.488h120.096v44.992h-120.096v78.304h191.616l11.008 55.008h-202.592v192.8z" />
<glyph unicode="&#xe925;" glyph-name="cog" d="M390.72-48.768c-2.112 0-4.256 0.256-6.368 0.8-45.984 11.808-90.144 30.048-131.296 54.208-11.936 7.008-16.128 22.208-9.504 34.336 8.16 14.912 12.448 31.872 12.448 48.992 0 56.48-45.952 102.4-102.4 102.4-17.12 0-34.080-4.32-48.992-12.448-12.128-6.624-27.328-2.432-34.336 9.504-24.16 41.152-42.4 85.312-54.208 131.296-3.328 12.992 3.936 26.336 16.64 30.624 41.696 14.048 69.728 53.024 69.728 97.024s-28.032 83.008-69.728 97.056c-12.704 4.288-19.968 17.632-16.64 30.624 11.808 45.984 30.048 90.144 54.208 131.296 7.008 11.936 22.208 16.128 34.336 9.504 14.912-8.16 31.872-12.448 48.992-12.448 56.448 0 102.4 45.952 102.4 102.4 0 17.12-4.32 34.080-12.448 48.992-6.624 12.128-2.432 27.328 9.504 34.336 41.152 24.16 85.312 42.4 131.296 54.208 12.992 3.328 26.336-3.936 30.624-16.64 14.048-41.696 53.024-69.728 97.056-69.728s83.008 28.032 97.024 69.728c4.288 12.704 17.632 19.968 30.624 16.64 45.984-11.808 90.144-30.048 131.296-54.208 11.936-7.008 16.128-22.208 9.504-34.336-8.16-14.912-12.448-31.872-12.448-48.992 0-56.448 45.952-102.4 102.4-102.4 17.12 0 34.080 4.32 48.992 12.448 12.128 6.624 27.328 2.432 34.336-9.504 24.16-41.152 42.4-85.312 54.208-131.296 3.328-12.992-3.904-26.336-16.64-30.624-41.696-14.048-69.728-53.024-69.728-97.056s28.032-83.008 69.728-97.024c12.704-4.288 19.968-17.632 16.64-30.624-11.808-45.984-30.048-90.144-54.208-131.296-7.008-11.936-22.208-16.128-34.336-9.504-14.912 8.16-31.872 12.448-48.992 12.448-56.48 0-102.4-45.952-102.4-102.4 0-17.12 4.32-34.080 12.448-48.992 6.624-12.128 2.432-27.328-9.504-34.336-41.152-24.16-85.312-42.4-131.296-54.208-12.992-3.328-26.336 3.904-30.624 16.64-14.048 41.696-53.024 69.728-97.024 69.728s-83.008-28.032-97.056-69.728c-3.584-10.624-13.504-17.44-24.256-17.44zM512 89.6c57.728 0 109.696-32.128 135.904-82.016 26.624 8.224 52.512 18.88 77.312 31.84-5.536 16.064-8.416 33.088-8.416 50.176 0 84.704 68.896 153.6 153.6 153.6 17.12 0 34.112-2.88 50.176-8.416 12.96 24.8 23.616 50.656 31.84 77.312-49.888 26.24-82.016 78.208-82.016 135.904s32.128 109.696 82.016 135.904c-8.224 26.624-18.88 52.512-31.84 77.312-16.064-5.536-33.088-8.416-50.176-8.416-84.704 0-153.6 68.896-153.6 153.6 0 17.12 2.88 34.112 8.416 50.176-24.8 12.96-50.656 23.616-77.312 31.84-26.24-49.888-78.208-82.016-135.904-82.016s-109.696 32.128-135.904 82.016c-26.624-8.224-52.512-18.88-77.312-31.84 5.536-16.064 8.416-33.056 8.416-50.176 0-84.704-68.896-153.6-153.6-153.6-17.12 0-34.112 2.88-50.176 8.416-12.96-24.8-23.616-50.656-31.84-77.312 49.888-26.24 82.016-78.208 82.016-135.904s-32.128-109.696-82.016-135.904c8.224-26.624 18.88-52.512 31.84-77.312 16.064 5.536 33.088 8.416 50.176 8.416 84.704 0 153.6-68.896 153.6-153.6 0-17.12-2.88-34.112-8.416-50.176 24.8-12.96 50.656-23.616 77.312-31.84 26.24 49.888 78.208 82.016 135.904 82.016zM512 294.4c-84.704 0-153.6 68.896-153.6 153.6s68.896 153.6 153.6 153.6 153.6-68.896 153.6-153.6-68.896-153.6-153.6-153.6zM512 550.4c-56.448 0-102.4-45.92-102.4-102.4s45.92-102.4 102.4-102.4c56.448 0 102.4 45.952 102.4 102.4s-45.952 102.4-102.4 102.4z" />
<glyph unicode="&#xe926;" glyph-name="czk" d="M512.192 943.616c-273.408 0-495.616-222.208-495.616-495.616s222.208-495.616 495.616-495.616 495.616 222.208 495.616 495.616-222.208 495.616-495.616 495.616v0 0zM512.192-1.504c-247.808 0-449.504 201.696-449.504 449.504s201.696 449.504 449.504 449.504 449.504-201.696 449.504-449.504-201.696-449.504-449.504-449.504zM336.192 472.8v172.8h-59.008v-389.696h59.008v145.216h13.088l133.696-145.216h69.696l-164.288 189.408 152.288 200.288h-73.184zM659.008 597.504l-31.296 51.296-42.304 1.184 54.592-86.496h37.312l54.688 86.496h-41.696zM734.496 304c-67.712-38.912-147.808 3.2-146.4 86.4 1.408 83.008 56.192 99.008 85.792 101.504s63.296-15.712 63.296-15.712l9.408 43.488c-100.096 47.616-218.4-5.312-211.488-130.496s103.808-142.912 142.208-143.2c23.104-0.192 44.096 5.504 57.088 10.112l0.096 47.904z" />
<glyph unicode="&#xe927;" glyph-name="dkk" d="M512.192 943.616c-273.408 0-495.616-222.208-495.616-495.616s222.208-495.616 495.616-495.616 495.616 222.208 495.616 495.616-222.208 495.616-495.616 495.616v0 0zM512.192-1.504c-247.808 0-449.504 201.696-449.504 449.504s201.696 449.504 449.504 449.504 449.504-201.696 449.504-449.504-201.696-449.504-449.504-449.504zM383.296 422.304v212.384h-49.312v-373.408h49.312v99.808l96-99.808h61.504l-119.904 131.104 109.408 136.384h-61.184zM603.104 495.2v33.504h-48.384v-267.392h54.4v137.504c0 0-1.6 46.112 22.688 67.296s49.216 15.392 49.216 15.392l9.088 47.104c-0.096 0.192-49.088 9.888-87.008-33.408z" />
<glyph unicode="&#xe928;" glyph-name="drawer" horiz-adv-x="224" d="M219.424 246.848v-109.728c0-30.272-24.576-54.848-54.848-54.848h-109.728c-30.272 0-54.848 24.576-54.848 54.848v109.728c0 30.272 24.576 54.848 54.848 54.848h109.728c30.272 0 54.848-24.576 54.848-54.848zM219.424 539.424v-109.728c0-30.272-24.576-54.848-54.848-54.848h-109.728c-30.272 0-54.848 24.576-54.848 54.848v109.728c0 30.272 24.576 54.848 54.848 54.848h109.728c30.272 0 54.848-24.576 54.848-54.848zM219.424 832v-109.728c0-30.272-24.576-54.848-54.848-54.848h-109.728c-30.272 0-54.848 24.576-54.848 54.848v109.728c0 30.272 24.576 54.848 54.848 54.848h109.728c30.272 0 54.848-24.576 54.848-54.848z" />
<glyph unicode="&#xe929;" glyph-name="error" d="M512 874.656c-235.52 0-426.656-191.136-426.656-426.656s191.136-426.656 426.656-426.656 426.656 191.136 426.656 426.656-191.136 426.656-426.656 426.656zM554.656 234.656h-85.344v85.344h85.344v-85.344zM554.656 405.344h-85.344v256h85.344v-256z" />
<glyph unicode="&#xe92a;" glyph-name="euro" d="M512.192 943.616c-273.408 0-495.616-222.208-495.616-495.616s222.208-495.616 495.616-495.616 495.616 222.208 495.616 495.616-222.208 495.616-495.616 495.616v0zM512.192-1.504c-247.808 0-449.504 201.696-449.504 449.504s201.696 449.504 449.504 449.504 449.504-201.696 449.504-449.504-201.696-449.504-449.504-449.504zM547.712 652.096c-37.6 0-69.088-9.088-94.592-27.2-15.2-10.688-28.992-26.016-41.312-45.6-12.512-20.384-19.904-39.712-22.208-58.112h228.896l-9.088-44.992h-225.184c-0.192-4.704-0.288-9.184-0.288-13.408 0-17.184 0.096-27.488 0.288-30.912h216.096l-9.408-44.992h-199.616c9.408-51.2 32-87.616 67.808-109.088 25.696-15.392 53.6-23.2 83.584-23.2 41.792 0 74.496 11.008 98.016 32.896v-69.088c-28-12.992-58.784-19.488-92.608-19.488-101.088 0-169.504 42.112-205.088 126.208-7.2 16.992-13.312 37.6-18.496 61.792h-51.392l9.408 44.992h35.2c-0.704 9.408-0.992 19.616-0.992 30.496 0 4.512 0.096 9.088 0.288 13.792h-44l9.408 44.992h38.912c13.888 72.896 50.016 125.312 108.384 157.088 36 19.712 75.712 29.504 119.104 29.504 41.6 0 76.608-9.088 105.088-27.2l-13.408-62.4c-27.2 22.592-58.112 33.888-92.8 33.888z" />
<glyph unicode="&#xe92b;" glyph-name="gbp" d="M511.2 943.616c-273.408 0-495.616-222.208-495.616-495.616s222.208-495.616 495.616-495.616 495.584 222.208 495.584 495.616-222.208 495.616-495.616 495.616v0zM511.2-1.504c-247.808 0-449.504 201.696-449.504 449.504s201.696 449.504 449.504 449.504 449.504-201.696 449.504-449.504-201.696-449.504-449.504-449.504zM457.408 479.008h105.696v-49.696h-95.296c4.192-9.792 6.4-19.712 6.4-29.504 0-19.488-4.608-40.096-13.888-61.792s-24.608-43.904-45.792-66.496c17.696 4.896 33.792 7.392 48.288 7.392 18.592 0 39.488-2.784 62.816-8.384 38.496-9.216 64.608-13.792 78.208-13.792 16.608 0 38.016 6.304 64.384 18.784l19.488-55.392c-20.608-8.704-36.512-14.4-47.808-17.088s-22.496-4-33.696-4c-9.408 0-18.912 0.896-28.512 2.688-6.016 1.088-20.512 5.216-43.488 12.288-22.912 7.008-37.792 11.2-44.512 12.608-10.496 1.792-20.992 2.688-31.488 2.688-16.096 0-33.312-2.784-51.488-8.384s-34.912-13.216-49.792-22.784l-23.2 58.112c21.504 11.904 39.712 28.8 54.688 50.784s22.496 48.896 22.496 80.704c0 13.6-1.888 27.488-5.696 41.6h-65.792v49.696h51.616c-7.392 25.088-12.096 43.296-14.112 54.912-2.016 11.488-3.008 22.816-3.008 33.696 0 46.496 17.184 82.912 51.712 109.088 27.712 20.8 61.312 31.2 100.704 31.2 40.512 0 73.888-11.104 100.192-33.408s42.496-53.504 48.512-93.792l-60.096-9.088c-3.392 26.912-13.408 48-30.016 63.392-16.704 15.392-36.608 23.2-59.904 23.2-24.8 0-45.504-8-61.888-24s-24.704-35.296-24.704-57.888c-0.096-24.8 6.304-57.312 19.008-97.312z" />
<glyph unicode="&#xe92c;" glyph-name="heart-filled" d="M512-41.504c-15.392 0-27.616 5.088-39.904 15.392l-0.992 0.992-327.712 316.384c-0.992 0.992-3.104 2.016-4.096 4.096-3.104 3.104-6.112 6.112-10.208 10.208-7.2 7.2-16.416 18.4-30.688 37.888-14.4 18.496-26.688 34.912-38.016 54.304-12.288 21.504-23.616 45.088-30.688 69.6-9.184 24.608-14.304 52.192-14.304 77.792 0 82.912 24.608 150.496 73.696 199.712 48.096 48.096 116.704 72.704 202.816 72.704 23.616 0 48.096-4.096 74.816-12.288 25.6-8.192 49.184-19.488 70.688-33.792 20.512-13.312 38.912-26.592 51.2-36.896 8.192-6.112 16.384-13.312 24.608-20.512 8.192 7.2 16.384 14.304 24.608 20.512 13.312 10.208 30.688 23.584 52.192 36.896 20.512 13.312 43.008 24.608 68.608 32.8 23.616 8.192 49.216 13.312 75.808 13.312 86.016 0 153.6-24.608 202.784-72.704v0c49.216-49.184 73.696-115.712 73.696-199.712 0-84.992-43.008-171.008-128-255.008l-327.904-315.296c-13.312-11.296-27.616-16.384-43.008-16.384z" />
<glyph unicode="&#xe92d;" glyph-name="leu" d="M512.192 943.616c-273.408 0-495.616-222.208-495.616-495.616s222.208-495.616 495.616-495.616 495.616 222.208 495.616 495.616-222.208 495.616-495.616 495.616v0 0zM512.192-1.504c-247.808 0-449.504 201.696-449.504 449.504s201.696 449.504 449.504 449.504 449.504-201.696 449.504-449.504-201.696-449.504-449.504-449.504zM648.288 177.696h-283.616v540.608h55.008v-485.6h239.616z" />
<glyph unicode="&#xe92e;" glyph-name="list" d="M998.4 140.8h-768c-14.144 0-25.6 11.456-25.6 25.6s11.456 25.6 25.6 25.6h768c14.144 0 25.6-11.456 25.6-25.6s-11.456-25.6-25.6-25.6zM998.4 396.8h-768c-14.144 0-25.6 11.456-25.6 25.6s11.456 25.6 25.6 25.6h768c14.144 0 25.6-11.456 25.6-25.6s-11.456-25.6-25.6-25.6zM998.4 652.8h-768c-14.144 0-25.6 11.456-25.6 25.6s11.456 25.6 25.6 25.6h768c14.144 0 25.6-11.456 25.6-25.6s-11.456-25.6-25.6-25.6zM76.8 601.6c-42.336 0-76.8 34.464-76.8 76.8s34.464 76.8 76.8 76.8 76.8-34.464 76.8-76.8-34.464-76.8-76.8-76.8zM76.8 704c-14.112 0-25.6-11.488-25.6-25.6s11.488-25.6 25.6-25.6 25.6 11.488 25.6 25.6-11.488 25.6-25.6 25.6zM76.8 345.6c-42.336 0-76.8 34.464-76.8 76.8s34.464 76.8 76.8 76.8 76.8-34.464 76.8-76.8c0-42.336-34.464-76.8-76.8-76.8zM76.8 448c-14.112 0-25.6-11.488-25.6-25.6s11.488-25.6 25.6-25.6 25.6 11.488 25.6 25.6-11.488 25.6-25.6 25.6zM76.8 89.6c-42.336 0-76.8 34.464-76.8 76.8s34.464 76.8 76.8 76.8 76.8-34.464 76.8-76.8-34.464-76.8-76.8-76.8zM76.8 192c-14.112 0-25.6-11.488-25.6-25.6s11.488-25.6 25.6-25.6 25.6 11.488 25.6 25.6-11.488 25.6-25.6 25.6z" />
<glyph unicode="&#xe92f;" glyph-name="pln" d="M512.192 943.616c-273.408 0-495.616-222.208-495.616-495.616s222.208-495.616 495.616-495.616 495.616 222.208 495.616 495.616-222.208 495.616-495.616 495.616v0 0zM512.192-1.504c-247.808 0-449.504 201.696-449.504 449.504s201.696 449.504 449.504 449.504 449.504-201.696 449.504-449.504-201.696-449.504-449.504-449.504zM457.888 488.512h-171.008v48h242.016v-37.888l-183.2-235.008h185.408v-48.096h-258.592v33.088zM720 600.8v0l-45.312-35.008v173.184h-55.008v-215.808l-52.192-40.512v-56.896l52.192 40.384v-250.688h55.008v293.312l45.312 35.104z" />
<glyph unicode="&#xe930;" glyph-name="visibility" d="M512 768c-213.344 0-395.52-132.704-469.344-320 73.824-187.296 256-320 469.344-320s395.52 132.704 469.344 320c-73.824 187.296-256 320-469.344 320zM512 234.656c-117.76 0-213.344 95.584-213.344 213.344s95.584 213.344 213.344 213.344 213.344-95.584 213.344-213.344-95.584-213.344-213.344-213.344zM512 576c-70.816 0-128-57.184-128-128s57.184-128 128-128 128 57.184 128 128-57.184 128-128 128z" />
<glyph unicode="&#xe931;" glyph-name="visibility_off" d="M512 661.344c117.76 0 213.344-95.584 213.344-213.344 0-27.744-5.536-53.76-15.36-78.080l124.576-124.576c64.416 53.76 115.2 123.296 146.336 202.656-73.824 187.296-256 320-469.344 320-59.744 0-116.896-10.656-169.824-29.856l92.16-92.16c24.32 9.824 50.336 15.36 78.080 15.36zM85.344 777.824l116.896-116.896c-70.816-55.040-126.304-128.416-159.584-212.896 73.824-187.296 256-320 469.344-320 66.144 0 129.28 12.8 186.88 35.84l17.92-17.92 125.024-124.576 54.176 54.176-756.48 756.48-54.176-54.176zM321.28 541.856l66.144-66.144c-2.144-8.96-3.424-18.336-3.424-27.744 0-70.816 57.184-128 128-128 9.376 0 18.784 1.28 27.744 3.424l66.144-66.144c-28.576-14.080-60.16-22.624-93.856-22.624-117.76 0-213.344 95.584-213.344 213.344 0 33.696 8.544 65.28 22.624 93.856zM505.184 575.136l134.4-134.4 0.864 6.816c0 70.816-57.184 128-128 128l-7.264-0.416z" />
<glyph unicode="&#xe932;" glyph-name="orders" d="M925.888-21.504h-324.8c-28.992 0-52.608 23.616-52.608 52.608v324.8c0 28.992 23.616 52.608 52.608 52.608h324.8c28.992 0 52.608-23.616 52.608-52.608v-324.8c0-28.992-23.616-52.608-52.608-52.608zM603.488 33.504h320v320h-320v-320zM925.888 477.984h-324.8c-28.992 0-52.608 23.616-52.608 52.608v324.8c0 28.992 23.616 52.608 52.608 52.608h324.8c28.992 0 52.608-23.616 52.608-52.608v-324.8c0-28.992-23.616-52.608-52.608-52.608zM603.488 532.992h320v320h-320v-320zM426.4-21.504h-324.8c-28.992 0-52.608 23.616-52.608 52.608v324.8c0 28.992 23.616 52.608 52.608 52.608h324.8c28.992 0 52.608-23.616 52.608-52.608v-324.8c0-28.992-23.616-52.608-52.608-52.608zM104 33.504h320v320h-320v-320zM426.4 477.984h-324.8c-28.992 0-52.608 23.616-52.608 52.608v324.8c0 28.992 23.616 52.608 52.608 52.608h324.8c28.992 0 52.608-23.616 52.608-52.608v-324.8c0-28.992-23.616-52.608-52.608-52.608zM104 532.992h320v320h-320v-320z" />
<glyph unicode="&#xe933;" glyph-name="pencil" d="M978.112 914.112c-28.768 28.768-67.008 44.608-107.712 44.608s-78.944-15.84-107.712-44.608l-652.8-652.8c-2.656-2.656-4.672-5.824-5.952-9.344l-102.4-281.6c-3.392-9.344-1.088-19.808 5.952-26.848 4.896-4.896 11.424-7.488 18.112-7.488 2.944 0 5.888 0.512 8.736 1.536l281.6 102.4c3.52 1.28 6.72 3.328 9.344 5.952l652.8 652.8c28.768 28.768 44.608 67.008 44.608 107.712s-15.84 78.944-44.608 107.712zM293.12 86.112l-224.704-81.696 81.696 224.704 566.688 566.688 143.008-143.008-566.688-566.688zM941.888 734.912l-45.888-45.888-143.008 143.008 45.888 45.888c19.104 19.104 44.48 29.6 71.488 29.6s52.384-10.528 71.488-29.6c19.104-19.104 29.6-44.48 29.6-71.488s-10.528-52.416-29.6-71.488z" />
<glyph unicode="&#xe934;" glyph-name="KRW" d="M512.2 943.6c-273.4 0-495.6-222.2-495.6-495.6s222.2-495.6 495.6-495.6 495.6 222.2 495.6 495.6-222.2 495.6-495.6 495.6v0 0zM512.2-1.5c-247.8 0-449.5 201.7-449.5 449.5s201.7 449.5 449.5 449.5 449.5-201.7 449.5-449.5-201.7-449.5-449.5-449.5zM791.9 647.9h-57.2l-41.5-143.9h-108.9l-41.5 143.8h-61.7l-41.4-143.8h-108.9l-41.5 143.8h-57.2l41.5-143.8h-41.3v-45h54.3l11.7-40.5h-66v-45h79l45.4-157.4h57.2l45.4 157.4h105.4l45.4-157.4h57.2l45.4 157.4h79v45h-66l11.7 40.5h54.3v45h-41.3l41.5 143.9zM512 556.3l15.1-52.3h-30.2l15.1 52.3zM343.8 459h82.9l-11.7-40.5h-59.5l-11.7 40.5zM385.3 315.4l-16.8 58.2h33.5l-16.7-58.2zM472.3 418.5l11.7 40.5h56.1l11.7-40.5h-79.5zM638.8 315.4l-16.8 58.1h33.6l-16.8-58.1zM668.5 418.5h-59.5l-11.7 40.5h82.9l-11.7-40.5z" />
<glyph unicode="&#xe935;" glyph-name="CNY" d="M512.2 943.6c-273.4 0-495.6-222.2-495.6-495.6s222.2-495.6 495.6-495.6 495.6 222.2 495.6 495.6-222.2 495.6-495.6 495.6v0 0zM512.2-1.5c-247.8 0-449.5 201.7-449.5 449.5s201.7 449.5 449.5 449.5 449.5-201.7 449.5-449.5-201.7-449.5-449.5-449.5zM685.2 710.2h-61l-112.2-233.3-112.2 233.3h-61l119.3-248.2h-118.8v-55h145.3v-50.3h-145.3v-55h145.3v-137.9h55v137.9h145.1v55h-145.1v50.3h145.1v55h-118.8z" />
<glyph unicode="&#xe936;" glyph-name="newtab" d="M1024 90.214c-7.885-19.763-21.606-27.341-41.267-26.419-24.883 1.126-49.869 0.307-76.288 0.307 0-4.506 0-8.397 0-12.288 0-26.112 0.102-52.326-0.102-78.438-0.205-21.606-13.312-37.069-31.437-37.376-18.022-0.307-32.256 15.872-32.461 37.683-0.205 29.696-0.102 59.392-0.102 90.419-10.752 0-20.582 0-30.515 0-18.33 0-36.659-0.307-54.989 0.102-18.125 0.41-31.539 15.565-31.539 34.816 0 19.354 13.312 34.509 31.539 34.714 27.955 0.41 55.91 0.102 85.402 0.102 0 4.506 0 8.294 0 12.083 0 26.829-0.307 53.76 0.205 80.589 0.307 18.739 11.264 31.949 27.443 34.816 14.336 2.56 28.979-6.349 34.099-21.914 1.843-5.632 2.15-12.083 2.253-18.125 0.205-28.672 0.102-57.242 0.102-87.45 8.602 0 16.486 0 24.269 0 17.306 0 34.714-0.922 51.917 0.205 19.661 1.331 33.382-6.758 41.267-26.419 0.205-5.734 0.205-11.571 0.205-17.408zM832 726.733c-256.307 0-511.488 0-768 0 0-3.994 0-7.885 0-11.674 0-168.653 0-337.306 0-505.958 0-39.629 22.016-63.693 58.675-63.693 159.334-0.102 318.566 0 477.901-0.102 5.632 0 11.469 0.102 16.794-1.536 13.619-3.994 23.142-19.251 22.528-34.714-0.614-15.258-10.547-28.672-24.269-32.051-4.506-1.126-9.216-1.434-13.824-1.434-159.949-0.102-319.898-0.102-479.949 0-71.168 0-121.856 55.706-121.856 133.632 0 205.722 0 411.443 0 617.165 0 78.336 50.79 133.632 122.88 133.632 216.678 0 433.254 0 649.933 0 72.704 0 123.187-55.091 123.187-134.349 0-143.258 0.102-286.413-0.307-429.67 0-8.909-2.355-18.842-6.451-26.624-6.758-12.698-21.299-17.101-34.202-13.005-12.288 3.891-21.606 16.077-22.835 30.003-0.307 3.994-0.205 7.987-0.205 11.981 0 104.653 0 209.408 0 314.061 0 4.403 0 8.704 0 14.336zM831.59 797.389c0 14.643 1.229 28.467-0.205 42.086-3.379 31.334-26.522 50.79-58.88 50.79-216.166 0-432.435 0-648.602 0-3.686 0-7.373 0-10.957-0.41-24.986-3.072-44.134-21.299-47.718-47.821-1.946-14.438-0.307-29.389-0.307-44.544 255.386-0.102 510.464-0.102 766.669-0.102z" />
</font>
</defs>
</svg>
