<?xml version="1.0" encoding="utf-8"?>
<!-- Generator: Adobe Illustrator 25.3.1, SVG Export Plug-In . SVG Version: 6.00 Build 0)  -->
<svg version="1.1" id="Layer_1" xmlns="http://www.w3.org/2000/svg" xmlns:xlink="http://www.w3.org/1999/xlink" x="0px" y="0px"
	 width="37.3px" height="37.2px" viewBox="0 0 37.3 37.2" style="enable-background:new 0 0 37.3 37.2;" xml:space="preserve">
<g>
	<path d="M18.7,4.6c4.6,0,5.1,0,6.9,0.1c1.7,0.1,2.6,0.4,3.2,0.6c0.8,0.3,1.4,0.7,2,1.3c0.6,0.6,1,1.2,1.3,2
		c0.2,0.6,0.5,1.5,0.6,3.2c0.1,1.8,0.1,2.3,0.1,6.9s0,5.1-0.1,6.9c-0.1,1.7-0.4,2.6-0.6,3.2c-0.3,0.8-0.7,1.4-1.3,2
		c-0.6,0.6-1.2,1-2,1.3c-0.6,0.2-1.5,0.5-3.2,0.6c-1.8,0.1-2.3,0.1-6.9,0.1s-5.1,0-6.9-0.1c-1.7-0.1-2.6-0.4-3.2-0.6
		c-0.8-0.3-1.4-0.7-2-1.3c-0.6-0.6-1-1.2-1.3-2c-0.2-0.6-0.5-1.5-0.6-3.2c-0.1-1.8-0.1-2.3-0.1-6.9s0-5.1,0.1-6.9
		C4.8,10,5.1,9.1,5.4,8.5c0.3-0.8,0.7-1.4,1.3-2c0.6-0.6,1.2-1,2-1.3c0.6-0.2,1.5-0.5,3.2-0.6C13.6,4.6,14.1,4.6,18.7,4.6 M18.7,1.5
		c-4.6,0-5.2,0-7,0.1C9.8,1.7,8.6,2,7.5,2.4c-1.1,0.4-2.1,1-3,2c-0.9,0.9-1.5,1.9-2,3c-0.4,1.1-0.7,2.3-0.8,4.1
		c-0.1,1.8-0.1,2.4-0.1,7c0,4.6,0,5.2,0.1,7c0.1,1.8,0.4,3.1,0.8,4.1c0.4,1.1,1,2.1,2,3c0.9,0.9,1.9,1.5,3,2
		c1.1,0.4,2.3,0.7,4.1,0.8c1.8,0.1,2.4,0.1,7,0.1s5.2,0,7-0.1c1.8-0.1,3.1-0.4,4.1-0.8c1.1-0.4,2.1-1,3-2c0.9-0.9,1.5-1.9,2-3
		c0.4-1.1,0.7-2.3,0.8-4.1c0.1-1.8,0.1-2.4,0.1-7s0-5.2-0.1-7c-0.1-1.8-0.4-3.1-0.8-4.1c-0.4-1.1-1-2.1-2-3c-0.9-0.9-1.9-1.5-3-2
		c-1.1-0.4-2.3-0.7-4.1-0.8C23.9,1.6,23.3,1.5,18.7,1.5L18.7,1.5z"/>
	<path d="M18.7,9.8c-4.8,0-8.8,3.9-8.8,8.8s3.9,8.8,8.8,8.8s8.8-3.9,8.8-8.8S23.5,9.8,18.7,9.8z M18.7,24.3c-3.1,0-5.7-2.5-5.7-5.7
		s2.5-5.7,5.7-5.7c3.1,0,5.7,2.5,5.7,5.7S21.8,24.3,18.7,24.3z"/>
	<circle cx="27.8" cy="9.5" r="2"/>
</g>
</svg>
