<?xml version="1.0" encoding="utf-8"?>
<!-- Generator: Adobe Illustrator 21.0.0, SVG Export Plug-In . SVG Version: 6.00 Build 0)  -->
<svg version="1.1" id="图层_1" xmlns="http://www.w3.org/2000/svg" xmlns:xlink="http://www.w3.org/1999/xlink" x="0px" y="0px"
	 viewBox="0 0 46 28.8" style="enable-background:new 0 0 46 28.8;" xml:space="preserve">
<style type="text/css">
	.st0{fill:#E6001F;}
	.st1{fill:#F9B70E;}
	.st2{fill:#002E75;}
	.st3{fill:#FFFFFF;}
</style>
<g>
	<path class="st0" d="M26.9,14.4c0,6.6-5.4,12-12,12c-6.6,0-12-5.4-12-12c0-6.6,5.4-12,12-12C21.6,2.4,26.9,7.8,26.9,14.4L26.9,14.4
		z"/>
	<path class="st1" d="M31.1,2.4c-3.1,0-5.9,1.2-8.1,3.1c-0.4,0.4-0.8,0.8-1.2,1.3h2.4c0.3,0.4,0.6,0.8,0.9,1.3h-4.3
		c-0.3,0.4-0.5,0.8-0.7,1.3h5.6c0.2,0.4,0.4,0.8,0.5,1.3h-6.7c-0.1,0.4-0.3,0.8-0.3,1.3h7.3c0.2,0.8,0.3,1.7,0.3,2.5
		c0,1.3-0.2,2.6-0.6,3.8h-6.7c0.1,0.4,0.3,0.9,0.5,1.3h5.6c-0.2,0.4-0.4,0.9-0.7,1.3h-4.3c0.3,0.4,0.6,0.9,0.9,1.3h2.4
		c-0.4,0.5-0.8,0.9-1.2,1.3c2.1,1.9,5,3.1,8.1,3.1c6.6,0,12-5.4,12-12C43.1,7.8,37.7,2.4,31.1,2.4L31.1,2.4z"/>
	<path class="st1" d="M41.5,21.1c0-0.2,0.2-0.4,0.4-0.4c0.2,0,0.4,0.2,0.4,0.4c0,0.2-0.2,0.4-0.4,0.4C41.6,21.5,41.5,21.3,41.5,21.1
		L41.5,21.1z M41.8,21.4c0.2,0,0.3-0.1,0.3-0.3c0-0.2-0.1-0.3-0.3-0.3c-0.2,0-0.3,0.1-0.3,0.3C41.5,21.3,41.7,21.4,41.8,21.4
		L41.8,21.4z M41.8,21.3L41.8,21.3l-0.1-0.3h0.1c0,0,0.1,0,0.1,0c0,0,0,0.1,0,0.1c0,0,0,0.1-0.1,0.1l0.1,0.2h-0.1l-0.1-0.1h-0.1
		L41.8,21.3L41.8,21.3z M41.8,21.1L41.8,21.1C41.9,21.1,41.9,21.1,41.8,21.1c0.1,0,0.1,0,0.1,0C41.9,21,41.9,21,41.8,21.1
		C41.9,21,41.8,21,41.8,21.1L41.8,21.1L41.8,21.1L41.8,21.1z"/>
	<path class="st2" d="M12.1,15.7c-0.1,0-0.2,0-0.3,0c-0.7,0-1.1,0.3-1.1,0.8c0,0.3,0.2,0.5,0.5,0.5C11.7,17,12.1,16.4,12.1,15.7
		L12.1,15.7z M13.1,17.9c-0.2,0-1.1,0-1.1,0l0-0.5c-0.3,0.4-0.8,0.6-1.4,0.6c-0.7,0-1.2-0.6-1.2-1.4c0-1.2,0.8-1.9,2.3-1.9
		c0.1,0,0.3,0,0.5,0c0-0.2,0.1-0.2,0.1-0.3c0-0.3-0.2-0.5-0.8-0.5c-0.6,0-1.2,0.2-1.4,0.2c0-0.1,0.2-1.1,0.2-1.1
		c0.6-0.2,1.1-0.3,1.6-0.3c1.1,0,1.7,0.5,1.7,1.5c0,0.3,0,0.6-0.1,1C13.4,16,13.1,17.5,13.1,17.9L13.1,17.9z"/>
	<polygon class="st2" points="8.9,17.9 7.6,17.9 8.4,13.2 6.7,17.9 5.8,17.9 5.7,13.3 4.9,17.9 3.7,17.9 4.7,11.8 6.6,11.8 
		6.7,15.2 7.9,11.8 9.9,11.8 	"/>
	<path class="st2" d="M32.7,15.7c-0.1,0-0.2,0-0.3,0c-0.7,0-1.1,0.3-1.1,0.8c0,0.3,0.2,0.5,0.5,0.5C32.3,17,32.6,16.4,32.7,15.7
		L32.7,15.7z M33.6,17.9c-0.2,0-1.1,0-1.1,0l0-0.5c-0.3,0.4-0.8,0.6-1.4,0.6c-0.7,0-1.2-0.6-1.2-1.4c0-1.2,0.8-1.9,2.3-1.9
		c0.1,0,0.3,0,0.5,0c0-0.2,0.1-0.2,0.1-0.3c0-0.3-0.2-0.5-0.8-0.5c-0.6,0-1.2,0.2-1.4,0.2c0-0.1,0.2-1.1,0.2-1.1
		c0.6-0.2,1.1-0.3,1.6-0.3c1.1,0,1.7,0.5,1.7,1.5c0,0.3,0,0.6-0.1,1C33.9,16,33.6,17.5,33.6,17.9L33.6,17.9z"/>
	<path class="st2" d="M18.9,17.8C18.5,18,18.2,18,17.9,18c-0.7,0-1-0.4-1-1.1c0-0.2,0.1-0.8,0.2-1.3c0.1-0.5,0.6-3.4,0.6-3.4H19
		L18.8,13h0.8l-0.2,1.2h-0.8c-0.2,0.9-0.4,2.1-0.4,2.3c0,0.3,0.1,0.4,0.4,0.4c0.1,0,0.3,0,0.4,0L18.9,17.8L18.9,17.8z"/>
	<path class="st2" d="M22.9,17.8C22.4,17.9,22,18,21.5,18c-1.4,0-2.2-0.8-2.2-2.2c0-1.7,1-2.9,2.3-2.9c1.1,0,1.7,0.7,1.7,1.8
		c0,0.4,0,0.7-0.2,1.2h-2.6c-0.1,0.7,0.4,1,1.1,1c0.5,0,0.9-0.1,1.3-0.3L22.9,17.8L22.9,17.8z M22.1,14.9c0-0.1,0.1-0.9-0.6-0.9
		c-0.4,0-0.7,0.3-0.8,0.9H22.1L22.1,14.9z"/>
	<path class="st2" d="M13.9,14.5c0,0.6,0.3,1.1,1,1.4c0.5,0.2,0.6,0.3,0.6,0.5c0,0.3-0.2,0.4-0.7,0.4c-0.4,0-0.8-0.1-1.2-0.2
		c0,0-0.2,1.1-0.2,1.1c0.3,0.1,0.6,0.1,1.4,0.1c1.4,0,2-0.5,2-1.7c0-0.7-0.3-1.1-0.9-1.4c-0.5-0.3-0.6-0.3-0.6-0.5
		c0-0.3,0.2-0.4,0.6-0.4c0.3,0,0.6,0,0.9,0.1L17,13c-0.3-0.1-0.8-0.1-1.1-0.1C14.4,12.9,13.9,13.6,13.9,14.5L13.9,14.5z"/>
	<path class="st2" d="M29.2,13c0.4,0,0.7,0.1,1.2,0.3l0.2-1.3c-0.2-0.1-0.9-0.5-1.4-0.5c-0.9,0-1.6,0.4-2.1,1.1
		c-0.8-0.2-1.1,0.3-1.4,0.8l-0.3,0.1c0-0.2,0-0.3,0-0.5h-1.2c-0.2,1.5-0.5,3.1-0.7,4.6l-0.1,0.3h1.3c0.2-1.4,0.3-2.3,0.4-2.9
		l0.5-0.3c0.1-0.3,0.3-0.4,0.8-0.4c-0.1,0.3-0.1,0.7-0.1,1c0,1.6,0.9,2.6,2.3,2.6c0.4,0,0.7,0,1.2-0.2l0.2-1.4
		c-0.4,0.2-0.8,0.3-1.1,0.3c-0.8,0-1.2-0.6-1.2-1.5C27.5,13.9,28.2,13,29.2,13L29.2,13z"/>
	<path class="st2" d="M40.2,11.8l-0.3,1.8c-0.4-0.5-0.7-0.8-1.2-0.8c-0.7,0-1.3,0.5-1.6,1.2c-0.5-0.1-1.1-0.3-1.1-0.3l0,0
		c0-0.4,0.1-0.7,0.1-0.7h-1.2c-0.2,1.5-0.5,3.1-0.7,4.6L34,17.9h1.3c0.2-1.1,0.3-2.1,0.4-2.8c0.4-0.4,0.7-0.8,1.1-0.7
		c-0.2,0.5-0.3,1-0.3,1.6c0,1.2,0.6,2.1,1.6,2.1c0.5,0,0.8-0.2,1.2-0.5l-0.1,0.5h1.2l1-6.1L40.2,11.8L40.2,11.8z M38.6,16.8
		c-0.4,0-0.7-0.3-0.7-1c0-1,0.4-1.7,1-1.7c0.4,0,0.7,0.3,0.7,1C39.6,16.1,39.2,16.8,38.6,16.8L38.6,16.8z"/>
	<polygon class="st3" points="9.3,17.6 8,17.6 8.8,12.9 7.1,17.6 6.2,17.6 6.1,12.9 5.3,17.6 4.1,17.6 5.1,11.5 7,11.5 7,15.2 
		8.3,11.5 10.3,11.5 	"/>
	<path class="st3" d="M12.5,15.4c-0.1,0-0.2,0-0.3,0c-0.7,0-1.1,0.3-1.1,0.8c0,0.3,0.2,0.5,0.5,0.5C12.1,16.6,12.5,16.1,12.5,15.4
		L12.5,15.4z M13.5,17.6c-0.2,0-1.1,0-1.1,0l0-0.5c-0.3,0.4-0.8,0.6-1.4,0.6c-0.7,0-1.2-0.6-1.2-1.4c0-1.2,0.8-1.9,2.3-1.9
		c0.1,0,0.3,0,0.5,0c0-0.2,0.1-0.2,0.1-0.3c0-0.3-0.2-0.4-0.8-0.4c-0.6,0-1.2,0.2-1.4,0.2c0-0.1,0.2-1.1,0.2-1.1
		c0.6-0.2,1.1-0.3,1.6-0.3c1.1,0,1.7,0.5,1.7,1.5c0,0.3,0,0.6-0.1,1C13.7,15.6,13.5,17.2,13.5,17.6L13.5,17.6z"/>
	<path class="st3" d="M30.9,11.6L30.7,13c-0.5-0.2-0.8-0.3-1.2-0.3c-1,0-1.7,0.9-1.7,2.3c0,0.9,0.5,1.5,1.2,1.5
		c0.3,0,0.7-0.1,1.1-0.3L30,17.5c-0.5,0.1-0.8,0.2-1.2,0.2c-1.4,0-2.3-1-2.3-2.6c0-2.2,1.2-3.7,2.9-3.7
		C30.1,11.3,30.7,11.6,30.9,11.6L30.9,11.6z"/>
	<path class="st3" d="M33,15.4c-0.1,0-0.2,0-0.3,0c-0.7,0-1.1,0.3-1.1,0.8c0,0.3,0.2,0.5,0.5,0.5C32.6,16.6,33,16.1,33,15.4L33,15.4
		z M34,17.6c-0.2,0-1.1,0-1.1,0l0-0.5c-0.3,0.4-0.8,0.6-1.4,0.6c-0.7,0-1.2-0.6-1.2-1.4c0-1.2,0.8-1.9,2.3-1.9c0.1,0,0.3,0,0.5,0
		c0-0.2,0.1-0.2,0.1-0.3c0-0.3-0.2-0.4-0.8-0.4c-0.6,0-1.2,0.2-1.4,0.2c0-0.1,0.2-1.1,0.2-1.1c0.6-0.2,1.1-0.3,1.6-0.3
		c1.1,0,1.7,0.5,1.7,1.5c0,0.3,0,0.6-0.1,1C34.3,15.6,34,17.2,34,17.6L34,17.6z"/>
	<path class="st3" d="M19.3,17.5c-0.4,0.1-0.6,0.2-0.9,0.2c-0.7,0-1-0.4-1-1.1c0-0.2,0.1-0.8,0.2-1.3c0.1-0.5,0.6-3.4,0.6-3.4h1.3
		l-0.2,0.7h0.7l-0.2,1.2H19c-0.2,0.9-0.4,2.1-0.4,2.3c0,0.3,0.1,0.4,0.4,0.4c0.1,0,0.3,0,0.4,0L19.3,17.5L19.3,17.5z"/>
	<path class="st3" d="M23.2,17.4c-0.4,0.1-0.9,0.2-1.3,0.2c-1.4,0-2.2-0.8-2.2-2.2c0-1.7,1-2.9,2.3-2.9c1.1,0,1.8,0.7,1.8,1.8
		c0,0.4,0,0.7-0.2,1.2H21c-0.1,0.7,0.4,1,1.1,1c0.5,0,0.9-0.1,1.3-0.3L23.2,17.4L23.2,17.4z M22.5,14.5c0-0.1,0.1-0.9-0.6-0.9
		c-0.4,0-0.7,0.3-0.8,0.9H22.5L22.5,14.5z"/>
	<path class="st3" d="M14.2,14.2c0,0.6,0.3,1.1,1,1.4c0.5,0.2,0.6,0.3,0.6,0.5c0,0.3-0.2,0.4-0.7,0.4c-0.4,0-0.7-0.1-1.2-0.2
		c0,0-0.2,1.1-0.2,1.1c0.3,0.1,0.6,0.1,1.4,0.1c1.4,0,2-0.5,2-1.7c0-0.7-0.3-1.1-0.9-1.4c-0.5-0.3-0.6-0.3-0.6-0.5
		c0-0.3,0.2-0.4,0.6-0.4c0.3,0,0.6,0,0.9,0.1l0.2-1.1c-0.3-0.1-0.8-0.1-1.1-0.1C14.7,12.5,14.2,13.3,14.2,14.2L14.2,14.2z"/>
	<path class="st3" d="M40.9,17.6h-1.2l0.1-0.5c-0.4,0.4-0.7,0.5-1.2,0.5c-0.9,0-1.6-0.8-1.6-2.1c0-1.6,1-3,2.1-3
		c0.5,0,0.9,0.2,1.2,0.7l0.3-1.8h1.3L40.9,17.6L40.9,17.6z M39,16.4c0.6,0,1-0.7,1-1.7c0-0.6-0.2-1-0.7-1c-0.6,0-1,0.7-1,1.7
		C38.3,16.1,38.5,16.4,39,16.4L39,16.4z"/>
	<path class="st3" d="M35.2,12.6c-0.2,1.5-0.5,3.1-0.7,4.6l-0.1,0.3h1.3c0.5-3,0.6-3.6,1.3-3.5c0.1-0.6,0.3-1.2,0.5-1.4
		c-0.5-0.1-0.9,0.2-1.3,0.8c0-0.3,0.1-0.5,0.1-0.8L35.2,12.6L35.2,12.6z"/>
	<path class="st3" d="M24.4,12.6c-0.2,1.5-0.5,3.1-0.7,4.6l-0.1,0.3H25c0.5-3,0.6-3.6,1.3-3.5c0.1-0.6,0.3-1.2,0.5-1.4
		c-0.5-0.1-0.9,0.2-1.2,0.8c0-0.3,0.1-0.5,0.1-0.8L24.4,12.6L24.4,12.6z"/>
	<path class="st3" d="M41.5,17.2c0-0.2,0.2-0.4,0.4-0.4c0.2,0,0.4,0.2,0.4,0.4c0,0.2-0.2,0.4-0.4,0.4C41.6,17.6,41.5,17.4,41.5,17.2
		L41.5,17.2z M41.8,17.5c0.2,0,0.3-0.1,0.3-0.3c0-0.2-0.1-0.3-0.3-0.3c-0.2,0-0.3,0.1-0.3,0.3C41.5,17.3,41.7,17.5,41.8,17.5
		L41.8,17.5z M41.8,17.3L41.8,17.3L41.7,17h0.1c0,0,0.1,0,0.1,0c0,0,0,0.1,0,0.1c0,0,0,0.1-0.1,0.1l0.1,0.1h-0.1l-0.1-0.1h-0.1
		L41.8,17.3L41.8,17.3z M41.8,17.1L41.8,17.1C41.9,17.1,41.9,17.1,41.8,17.1c0.1,0,0.1,0,0.1,0C41.9,17.1,41.9,17.1,41.8,17.1
		C41.9,17.1,41.8,17.1,41.8,17.1L41.8,17.1L41.8,17.1L41.8,17.1z"/>
</g>
</svg>
