<?xml version="1.0" encoding="utf-8"?>
<!-- Generator: Adobe Illustrator 21.0.0, SVG Export Plug-In . SVG Version: 6.00 Build 0)  -->
<svg version="1.1" id="图层_1" xmlns="http://www.w3.org/2000/svg" xmlns:xlink="http://www.w3.org/1999/xlink" x="0px" y="0px"
	 viewBox="0 0 70 28.8" style="enable-background:new 0 0 70 28.8;" xml:space="preserve">
<style type="text/css">
	.st0{fill:#2566AF;}
	.st1{fill:#E6A540;}
	.st2{fill:none;}
</style>
<g>
	<g>
		<path class="st0" d="M31.1,23.6h-4.8l3-18.5h4.8L31.1,23.6z M22.2,5.2l-4.6,12.7l-0.5-2.7l0,0l-1.6-8.3c0,0-0.2-1.7-2.3-1.7H5.6
			L5.5,5.5c0,0,2.3,0.5,5,2.1l4.2,16h5l7.6-18.5L22.2,5.2L22.2,5.2z M60,23.6h4.4L60.6,5.2h-3.9c-1.8,0-2.2,1.4-2.2,1.4l-7.2,17.1h5
			l1-2.7h6.1L60,23.6L60,23.6z M54.8,17.1l2.5-6.9l1.4,6.9H54.8z M47.7,9.6l0.7-4c0,0-2.1-0.8-4.3-0.8c-2.4,0-8.1,1-8.1,6.1
			c0,4.8,6.6,4.8,6.6,7.3s-6,2.1-7.9,0.5L34,22.9c0,0,2.1,1,5.4,1c3.3,0,8.2-1.7,8.2-6.3c0-4.8-6.7-5.2-6.7-7.3
			C41,8.2,45.7,8.5,47.7,9.6L47.7,9.6z"/>
	</g>
	<path class="st1" d="M17.1,15.1l-1.6-8.3c0,0-0.2-1.7-2.3-1.7H5.6L5.5,5.5c0,0,3.6,0.8,7.1,3.6C16,11.8,17.1,15.1,17.1,15.1z"/>
	<path class="st2" d="M0-20.6h70v70H0V-20.6z"/>
</g>
</svg>
