<?xml version="1.0" encoding="utf-8"?>
<!-- Generator: Adobe Illustrator 21.0.0, SVG Export Plug-In . SVG Version: 6.00 Build 0)  -->
<svg version="1.1" id="图层_1" xmlns="http://www.w3.org/2000/svg" xmlns:xlink="http://www.w3.org/1999/xlink" x="0px" y="0px"
	 viewBox="0 0 28.8 28.8" style="enable-background:new 0 0 28.8 28.8;" xml:space="preserve">
<style type="text/css">
	.st0{fill:#009FE1;}
	.st1{fill:#CC2229;}
	.st2{fill:#33A457;}
	.st3{fill:#FFFFFF;}
</style>
<g>
	<path class="st0" d="M2.3,26.4h4.2c1.5,0,3.2-1.4,3.2-3.2V2.4H5.7c-1.9,0-3.3,1.2-3.3,3.3V26.4z"/>
	<path class="st1" d="M10.7,26.4h4.2c1.5,0,3.2-1.4,3.2-3.2V2.4H14c-1.9,0-3.3,1.2-3.3,3.3V26.4z"/>
	<path class="st2" d="M19,26.4h4.2c1.5,0,3.2-1.4,3.2-3.2V2.4h-4.1c-1.9,0-3.3,1.2-3.3,3.3V26.4z"/>
	<path class="st3" d="M3.5,15H2.3c0.3,1.3,1.9,2.3,3.6,2.3c1.6,0,3.7-0.9,3.7-2.6v-3H7v3c0,0.9-0.7,1.6-1.7,1.6
		C4.4,16.3,3.6,15.8,3.5,15z"/>
	<path class="st3" d="M26.5,15.6c0,0.7-0.6,1.3-1.4,1.3h-5.8v-5.1h5.8c0.7,0,1.3,0.6,1.3,1.3c0,0.7-0.6,1.3-1.3,1.3
		C25.9,14.3,26.5,14.9,26.5,15.6z M21.5,14.1h1.8c0.5,0,0.9-0.4,0.9-0.9c0-0.5-0.4-0.9-0.9-0.9h-1.8L21.5,14.1L21.5,14.1z
		 M23.3,16.3c0.5,0,0.9-0.4,0.9-0.9c0-0.5-0.4-0.9-0.9-0.9h-1.9v1.8L23.3,16.3L23.3,16.3L23.3,16.3z M17.9,16v0.9h-4.5
		c-1.4,0-2.6-1.2-2.6-2.6c0-1.4,1.2-2.6,2.6-2.6h4.5v0.9c-1.1-0.2-2.1-0.4-2.6-0.4c-1.1,0-2,0.9-2,2c0,1.1,0.9,2,2,2
		C15.8,16.3,16.9,16.2,17.9,16L17.9,16z"/>
</g>
</svg>
